<svg width="122" height="38" viewBox="0 0 122 38" fill="none" xmlns="http://www.w3.org/2000/svg">
<g clip-path="url(#clip0_5046_5933)">
<path d="M26.2225 15.0312C28.0484 15.0312 29.5732 15.2384 30.7968 15.6526C32.0203 16.0669 32.9992 16.6695 33.7334 17.4416C34.4675 18.2136 34.9946 19.1552 35.2958 20.2662C35.5969 21.3771 35.7476 22.6011 35.7476 23.9569V36.837C34.8628 37.0253 33.6204 37.2512 32.058 37.5149C30.4767 37.7785 28.5755 37.9104 26.3354 37.9104C24.9236 37.9104 23.6435 37.7785 22.4952 37.5337C21.347 37.2889 20.3493 36.8747 19.521 36.3098C18.6928 35.7448 18.0527 35.0104 17.6197 34.0878C17.168 33.1651 16.9609 32.054 16.9609 30.7171C16.9609 29.4366 17.2245 28.3633 17.7328 27.4782C18.241 26.5932 18.9375 25.8776 19.7845 25.3503C20.6505 24.8232 21.6294 24.4465 22.7399 24.2017C23.8506 23.9758 24.9989 23.8439 26.1848 23.8439C26.9943 23.8439 27.7096 23.8816 28.3308 23.9569C28.9519 24.0322 29.4602 24.1076 29.8555 24.2206V23.6368C29.8555 22.5823 29.5356 21.7349 28.8955 21.0947C28.2555 20.4544 27.1448 20.1343 25.5824 20.1343C24.5283 20.1343 23.4929 20.2096 22.4765 20.3602C21.46 20.511 20.5751 20.718 19.8222 21.0005L19.0316 16.0104C19.3893 15.8974 19.8411 15.7845 20.3869 15.6526C20.9328 15.5209 21.5164 15.4267 22.1564 15.3137C22.7965 15.2195 23.4553 15.1254 24.1706 15.0689C24.7918 15.0689 25.4883 15.0312 26.2225 15.0312ZM26.7118 33.1462C27.3142 33.1462 27.8978 33.1274 28.4625 33.1085C29.0084 33.0898 29.4602 33.0332 29.799 32.9767V28.288C29.5543 28.2314 29.1779 28.175 28.6696 28.1185C28.1802 28.0619 27.7096 28.0431 27.2955 28.0431C26.7118 28.0431 26.166 28.0808 25.6577 28.1561C25.1494 28.2314 24.6977 28.3633 24.3023 28.5515C23.9071 28.7399 23.6059 29.0035 23.38 29.3424C23.1542 29.6814 23.0411 30.0957 23.0411 30.5852C23.0411 31.5645 23.3612 32.2235 24.02 32.6001C24.6788 32.9579 25.5824 33.1462 26.7118 33.1462Z" fill="white"/>
<path d="M61.6493 26.5349C61.6493 28.2861 61.3857 29.849 60.8775 31.2802C60.3692 32.6925 59.6163 33.8977 58.6561 34.8957C57.6961 35.8937 56.4913 36.6658 55.0796 37.1929C53.6677 37.7391 52.0677 38.0027 50.2606 38.0027C49.5075 38.0027 48.7358 37.965 47.9075 37.8897C47.098 37.8144 46.2887 37.7391 45.498 37.626C44.7074 37.5131 43.9544 37.3813 43.2391 37.2306C42.5238 37.08 41.8838 36.9105 41.3379 36.7599V6.21677L47.531 5.21875V16.1028C48.2276 15.8015 48.9429 15.5567 49.6958 15.4061C50.4488 15.2366 51.2393 15.1612 52.1053 15.1612C53.649 15.1612 55.0231 15.4249 56.209 15.971C57.3949 16.517 58.3926 17.2702 59.202 18.2683C60.0115 19.2663 60.6139 20.4715 61.028 21.8649C61.4421 23.2584 61.6493 24.8213 61.6493 26.5349ZM55.3243 26.3655C55.3243 22.3734 53.856 20.3774 50.9194 20.3774C50.2793 20.3774 49.6582 20.4527 49.037 20.6221C48.4157 20.7916 47.9075 20.9987 47.5122 21.2435V32.5042C47.8133 32.5606 48.2087 32.6172 48.6793 32.6548C49.1499 32.6925 49.6582 32.7114 50.2229 32.7114C51.9171 32.7114 53.1783 32.1276 54.0442 30.96C54.8913 29.8114 55.3243 28.2861 55.3243 26.3655Z" fill="white"/>
<path d="M85.067 36.7152C84.0128 37.0165 82.6575 37.2989 81.0009 37.5626C79.3444 37.8262 77.5938 37.9581 75.7678 37.9581C73.9042 37.9581 72.3607 37.7133 71.137 37.2049C69.9134 36.7152 68.9345 35.9997 68.2005 35.1146C67.4852 34.2108 66.9769 33.1375 66.6568 31.8946C66.3556 30.6518 66.2051 29.2771 66.2051 27.7896V15.625H72.3983V27.0552C72.3983 29.0512 72.6618 30.4823 73.1889 31.3674C73.7159 32.2524 74.6948 32.7043 76.1443 32.7043C76.596 32.7043 77.0666 32.6855 77.5561 32.6479C78.0455 32.6102 78.4973 32.5537 78.8926 32.4972V15.625H85.0858V36.7152H85.067Z" fill="white"/>
<path d="M99.5978 37.8708C97.7907 37.8521 96.3412 37.6449 95.2118 37.2871C94.0822 36.9294 93.1975 36.421 92.5575 35.7618C91.8987 35.1028 91.4657 34.3307 91.221 33.3893C90.9763 32.4666 90.8633 31.412 90.8633 30.2445V6.21677L97.0565 5.21875V29.0205C97.0565 29.5666 97.0941 30.0751 97.1883 30.5082C97.2636 30.96 97.433 31.3178 97.6589 31.6379C97.8847 31.9393 98.2424 32.1841 98.6754 32.3912C99.1272 32.5795 99.7107 32.7114 100.464 32.7678L99.5978 37.8708Z" fill="white"/>
<path d="M112.476 15.0234C114.302 15.0234 115.826 15.2306 117.05 15.6448C118.274 16.0591 119.252 16.6617 119.987 17.4338C120.721 18.2058 121.248 19.1474 121.548 20.2583C121.85 21.3693 122.001 22.5933 122.001 23.9491V36.8292C121.116 37.0175 119.874 37.2434 118.311 37.5071C116.729 37.7707 114.829 37.9025 112.589 37.9025C111.177 37.9025 109.897 37.7707 108.748 37.5259C107.6 37.2811 106.602 36.8669 105.774 36.3019C104.946 35.737 104.306 35.0026 103.854 34.08C103.402 33.1573 103.195 32.0462 103.195 30.7093C103.195 29.4288 103.459 28.3555 103.967 27.4704C104.475 26.5853 105.172 25.8698 106.019 25.3425C106.885 24.8153 107.864 24.4387 108.974 24.1939C110.085 23.9679 111.233 23.8361 112.419 23.8361C113.229 23.8361 113.944 23.8738 114.565 23.9491C115.186 24.0244 115.695 24.0998 116.089 24.2128V23.6289C116.089 22.5745 115.769 21.7271 115.13 21.0869C114.49 20.4466 113.379 20.1265 111.817 20.1265C110.763 20.1265 109.727 20.2018 108.711 20.3524C107.694 20.5032 106.791 20.7102 106.057 20.9927L105.266 16.0026C105.624 15.8896 106.075 15.7766 106.621 15.6448C107.167 15.5131 107.751 15.4189 108.391 15.3059C109.031 15.2117 109.709 15.1176 110.405 15.0611C111.045 15.0611 111.76 15.0234 112.476 15.0234ZM112.965 33.1384C113.567 33.1384 114.151 33.1196 114.716 33.1007C115.262 33.082 115.713 33.0254 116.053 32.9689V28.2801C115.807 28.2236 115.431 28.1672 114.923 28.1106C114.433 28.0541 113.963 28.0353 113.549 28.0353C112.965 28.0353 112.419 28.073 111.911 28.1483C111.403 28.2236 110.951 28.3554 110.556 28.5437C110.16 28.7321 109.859 28.9957 109.633 29.3346C109.407 29.6736 109.294 30.0879 109.294 30.5774C109.294 31.5567 109.614 32.2157 110.273 32.5923C110.932 32.9501 111.836 33.1384 112.965 33.1384Z" fill="white"/>
<path d="M13.2346 0C10.6181 0 8.50977 2.10902 8.50977 4.72646C8.50977 7.3439 10.6181 9.45293 13.2346 9.45293C15.8512 9.45293 17.9596 7.3439 17.9596 4.72646C17.9596 2.10902 15.8512 0 13.2346 0Z" fill="white"/>
<path d="M6.19318 15.4377V0.429688C4.63077 0.825129 3.36955 1.52186 2.39068 2.55754C0.790619 4.21462 0 6.45546 0 9.28003V37.0927H6.19318V20.5972H13.8358V15.4377H6.19318Z" fill="white"/>
</g>
<defs>
<clipPath id="clip0_5046_5933">
<rect width="122" height="38" fill="white"/>
</clipPath>
</defs>
</svg>
