<svg width="921" height="921" viewBox="0 0 921 921" fill="none" xmlns="http://www.w3.org/2000/svg">
<g clip-path="url(#clip0_7004_50)">
<mask id="path-1-inside-1_7004_50" fill="white">
<path d="M633.913 473.665C634.176 469.706 634.329 465.725 634.329 461.7C634.329 457.675 634.176 453.682 633.913 449.734L626.729 448.506C619.71 447.31 614.259 441.783 613.042 434.775C613.031 434.687 613.009 434.61 612.998 434.523C611.77 427.515 614.994 420.484 621.169 416.964L627.541 413.334C625.314 405.602 622.572 398.1 619.348 390.851L612.143 392.156C605.145 393.428 598.159 390.116 594.606 383.964C594.562 383.887 594.518 383.821 594.474 383.744C590.899 377.581 591.513 369.849 596.13 364.42L600.846 358.859C596.13 352.4 590.987 346.269 585.448 340.522L579.131 344.207C572.978 347.804 565.268 347.07 559.818 342.485C559.752 342.431 559.697 342.387 559.631 342.332C554.181 337.758 552.141 330.301 554.608 323.633L557.153 316.756C550.55 312.314 543.63 308.311 536.436 304.78L531.774 310.395C527.223 315.868 519.732 317.82 513.053 315.385L512.801 315.298C506.111 312.874 501.625 306.557 501.669 299.439L501.702 292.135C494.036 290.237 486.162 288.844 478.134 288L475.666 294.887C473.264 301.588 466.892 305.986 459.785 305.986H459.544C452.426 305.986 446.054 301.588 443.663 294.887L441.196 288C433.168 288.844 425.293 290.237 417.627 292.135L417.66 299.439C417.693 306.557 413.218 312.874 406.528 315.298L406.276 315.385C399.586 317.82 392.095 315.868 387.555 310.395L382.894 304.78C375.699 308.311 368.779 312.314 362.177 316.756L364.721 323.633C367.189 330.301 365.138 337.758 359.698 342.332C359.632 342.387 359.577 342.431 359.512 342.485C354.061 347.07 346.351 347.794 340.198 344.207L333.881 340.522C328.343 346.269 323.199 352.4 318.483 358.859L323.199 364.42C327.805 369.86 328.43 377.581 324.855 383.744C324.811 383.821 324.767 383.887 324.723 383.964C321.17 390.116 314.173 393.428 307.187 392.156L299.981 390.851C296.757 398.1 294.015 405.602 291.789 413.334L298.161 416.964C304.335 420.484 307.56 427.515 306.331 434.523C306.32 434.61 306.298 434.687 306.287 434.775C305.07 441.794 299.619 447.31 292.6 448.506L285.417 449.734C285.154 453.693 285 457.675 285 461.7C285 465.725 285.154 469.717 285.417 473.665L292.6 474.893C299.619 476.089 305.07 481.616 306.287 488.624C306.298 488.712 306.32 488.789 306.331 488.876C307.56 495.884 304.335 502.914 298.161 506.435L291.789 510.065C294.015 517.797 296.757 525.299 299.981 532.548L307.187 531.243C314.184 529.971 321.17 533.283 324.723 539.435C324.767 539.512 324.811 539.578 324.855 539.655C328.43 545.818 327.816 553.55 323.199 558.979L318.483 564.539C323.199 570.999 328.343 577.13 333.881 582.877L340.198 579.192C346.351 575.606 354.061 576.329 359.512 580.914C359.577 580.968 359.632 581.012 359.698 581.067C365.149 585.641 367.189 593.098 364.721 599.766L362.177 606.643C368.779 611.085 375.699 615.088 382.894 618.619L387.555 613.004C392.106 607.531 399.597 605.579 406.276 608.014C406.364 608.047 406.44 608.08 406.528 608.101C413.218 610.525 417.704 616.842 417.66 623.96L417.627 631.264C425.293 633.162 433.168 634.555 441.196 635.399L443.663 628.512C446.065 621.811 452.437 617.413 459.555 617.413H459.796C466.914 617.413 473.286 621.811 475.677 628.512L478.144 635.399C486.173 634.555 494.047 633.162 501.713 631.264L501.68 623.96C501.647 616.842 506.122 610.525 512.812 608.101C512.9 608.069 512.976 608.047 513.064 608.014C519.754 605.579 527.245 607.531 531.785 613.004L536.447 618.619C543.641 615.088 550.561 611.085 557.164 606.643L554.619 599.766C552.152 593.098 554.203 585.641 559.642 581.067C559.708 581.012 559.763 580.968 559.829 580.914C565.279 576.329 572.989 575.606 579.142 579.192L585.459 582.877C590.998 577.13 596.141 570.999 600.857 564.539L596.141 558.979C591.535 553.539 590.91 545.818 594.485 539.655C594.529 539.578 594.573 539.512 594.617 539.435C598.17 533.283 605.167 529.971 612.154 531.243L619.359 532.548C622.583 525.299 625.325 517.797 627.552 510.065L621.18 506.435C615.005 502.914 611.781 495.884 613.009 488.876C613.02 488.789 613.042 488.712 613.053 488.624C614.27 481.605 619.721 476.089 626.74 474.893L633.924 473.665H633.913ZM459.665 568.126C400.88 568.126 353.238 520.473 353.238 461.7C353.238 402.926 400.891 355.273 459.665 355.273C518.438 355.273 566.091 402.926 566.091 461.7C566.091 520.473 518.438 568.126 459.665 568.126Z"/>
</mask>
<path d="M633.913 473.665C634.176 469.706 634.329 465.725 634.329 461.7C634.329 457.675 634.176 453.682 633.913 449.734L626.729 448.506C619.71 447.31 614.259 441.783 613.042 434.775C613.031 434.687 613.009 434.61 612.998 434.523C611.77 427.515 614.994 420.484 621.169 416.964L627.541 413.334C625.314 405.602 622.572 398.1 619.348 390.851L612.143 392.156C605.145 393.428 598.159 390.116 594.606 383.964C594.562 383.887 594.518 383.821 594.474 383.744C590.899 377.581 591.513 369.849 596.13 364.42L600.846 358.859C596.13 352.4 590.987 346.269 585.448 340.522L579.131 344.207C572.978 347.804 565.268 347.07 559.818 342.485C559.752 342.431 559.697 342.387 559.631 342.332C554.181 337.758 552.141 330.301 554.608 323.633L557.153 316.756C550.55 312.314 543.63 308.311 536.436 304.78L531.774 310.395C527.223 315.868 519.732 317.82 513.053 315.385L512.801 315.298C506.111 312.874 501.625 306.557 501.669 299.439L501.702 292.135C494.036 290.237 486.162 288.844 478.134 288L475.666 294.887C473.264 301.588 466.892 305.986 459.785 305.986H459.544C452.426 305.986 446.054 301.588 443.663 294.887L441.196 288C433.168 288.844 425.293 290.237 417.627 292.135L417.66 299.439C417.693 306.557 413.218 312.874 406.528 315.298L406.276 315.385C399.586 317.82 392.095 315.868 387.555 310.395L382.894 304.78C375.699 308.311 368.779 312.314 362.177 316.756L364.721 323.633C367.189 330.301 365.138 337.758 359.698 342.332C359.632 342.387 359.577 342.431 359.512 342.485C354.061 347.07 346.351 347.794 340.198 344.207L333.881 340.522C328.343 346.269 323.199 352.4 318.483 358.859L323.199 364.42C327.805 369.86 328.43 377.581 324.855 383.744C324.811 383.821 324.767 383.887 324.723 383.964C321.17 390.116 314.173 393.428 307.187 392.156L299.981 390.851C296.757 398.1 294.015 405.602 291.789 413.334L298.161 416.964C304.335 420.484 307.56 427.515 306.331 434.523C306.32 434.61 306.298 434.687 306.287 434.775C305.07 441.794 299.619 447.31 292.6 448.506L285.417 449.734C285.154 453.693 285 457.675 285 461.7C285 465.725 285.154 469.717 285.417 473.665L292.6 474.893C299.619 476.089 305.07 481.616 306.287 488.624C306.298 488.712 306.32 488.789 306.331 488.876C307.56 495.884 304.335 502.914 298.161 506.435L291.789 510.065C294.015 517.797 296.757 525.299 299.981 532.548L307.187 531.243C314.184 529.971 321.17 533.283 324.723 539.435C324.767 539.512 324.811 539.578 324.855 539.655C328.43 545.818 327.816 553.55 323.199 558.979L318.483 564.539C323.199 570.999 328.343 577.13 333.881 582.877L340.198 579.192C346.351 575.606 354.061 576.329 359.512 580.914C359.577 580.968 359.632 581.012 359.698 581.067C365.149 585.641 367.189 593.098 364.721 599.766L362.177 606.643C368.779 611.085 375.699 615.088 382.894 618.619L387.555 613.004C392.106 607.531 399.597 605.579 406.276 608.014C406.364 608.047 406.44 608.08 406.528 608.101C413.218 610.525 417.704 616.842 417.66 623.96L417.627 631.264C425.293 633.162 433.168 634.555 441.196 635.399L443.663 628.512C446.065 621.811 452.437 617.413 459.555 617.413H459.796C466.914 617.413 473.286 621.811 475.677 628.512L478.144 635.399C486.173 634.555 494.047 633.162 501.713 631.264L501.68 623.96C501.647 616.842 506.122 610.525 512.812 608.101C512.9 608.069 512.976 608.047 513.064 608.014C519.754 605.579 527.245 607.531 531.785 613.004L536.447 618.619C543.641 615.088 550.561 611.085 557.164 606.643L554.619 599.766C552.152 593.098 554.203 585.641 559.642 581.067C559.708 581.012 559.763 580.968 559.829 580.914C565.279 576.329 572.989 575.606 579.142 579.192L585.459 582.877C590.998 577.13 596.141 570.999 600.857 564.539L596.141 558.979C591.535 553.539 590.91 545.818 594.485 539.655C594.529 539.578 594.573 539.512 594.617 539.435C598.17 533.283 605.167 529.971 612.154 531.243L619.359 532.548C622.583 525.299 625.325 517.797 627.552 510.065L621.18 506.435C615.005 502.914 611.781 495.884 613.009 488.876C613.02 488.789 613.042 488.712 613.053 488.624C614.27 481.605 619.721 476.089 626.74 474.893L633.924 473.665H633.913ZM459.665 568.126C400.88 568.126 353.238 520.473 353.238 461.7C353.238 402.926 400.891 355.273 459.665 355.273C518.438 355.273 566.091 402.926 566.091 461.7C566.091 520.473 518.438 568.126 459.665 568.126Z" fill="#1D1D1D" stroke="#323232" stroke-width="2" mask="url(#path-1-inside-1_7004_50)"/>
<path d="M459.652 359.842C486.861 359.842 512.441 370.438 531.672 389.679C550.914 408.921 561.51 434.501 561.51 461.699C561.51 517.86 515.814 563.556 459.652 563.556C403.491 563.556 357.795 517.86 357.795 461.699C357.795 405.538 403.491 359.842 459.652 359.842ZM459.652 406.812C429.381 406.812 404.766 431.438 404.766 461.699C404.766 491.96 429.392 516.586 459.652 516.586C489.913 516.586 514.539 491.96 514.539 461.699C514.539 431.438 489.913 406.812 459.652 406.812Z" stroke="#323232"/>
<path d="M361.375 363.423C364.533 360.276 369.574 360.179 372.839 363.129L373.149 363.424C376.398 366.684 376.397 371.949 373.15 375.197C369.891 378.446 364.624 378.446 361.376 375.198H361.375C358.126 371.938 358.127 366.671 361.375 363.423Z" stroke="#323232"/>
<path d="M459.651 322.717C464.245 322.717 467.97 326.441 467.97 331.035C467.97 335.628 464.245 339.353 459.651 339.353C455.058 339.353 451.334 335.628 451.334 331.035C451.334 326.441 455.058 322.717 459.651 322.717Z" stroke="#323232"/>
<path d="M546.156 363.416C549.417 360.165 554.682 360.156 557.93 363.414C561.078 366.571 561.175 371.612 558.226 374.877L557.931 375.188C554.671 378.437 549.404 378.436 546.156 375.188C542.908 371.928 542.909 366.663 546.156 363.416Z" stroke="#323232"/>
<path d="M590.313 453.382C594.907 453.382 598.632 457.106 598.632 461.7C598.632 466.293 594.907 470.018 590.313 470.018C585.72 470.018 581.996 466.293 581.996 461.7C581.996 457.106 585.72 453.383 590.313 453.382Z" stroke="#323232"/>
<path d="M546.16 548.191C549.421 544.941 554.686 544.932 557.934 548.189C561.183 551.449 561.183 556.715 557.935 559.963C554.675 563.212 549.408 563.211 546.16 559.963C542.912 556.704 542.913 551.439 546.16 548.191Z" stroke="#323232"/>
<path d="M458.336 584.056C462.871 583.32 467.144 586.399 467.88 590.933C468.616 595.467 465.536 599.74 461.002 600.476C456.468 601.212 452.195 598.132 451.459 593.598C450.723 589.064 453.802 584.792 458.336 584.056Z" stroke="#323232"/>
<path d="M361.375 548.203C364.635 544.953 369.901 544.943 373.148 548.201C376.398 551.461 376.397 556.727 373.149 559.975C369.89 563.224 364.623 563.223 361.375 559.975C358.127 556.715 358.128 551.45 361.375 548.203Z" stroke="#323232"/>
<path d="M328.999 453.381C333.593 453.381 337.317 457.105 337.317 461.698C337.317 466.292 333.593 470.017 328.999 470.017C324.405 470.017 320.682 466.292 320.682 461.698C320.682 457.105 324.406 453.381 328.999 453.381Z" stroke="#323232"/>
<path d="M409.4 332.113C413.682 330.448 418.504 332.579 420.17 336.863C421.835 341.145 419.705 345.966 415.421 347.632C411.139 349.298 406.316 347.167 404.65 342.883C402.985 338.601 405.116 333.779 409.4 332.113Z" stroke="#323232"/>
<path d="M504.774 338.79C506.637 334.59 511.553 332.687 515.752 334.539C519.952 336.401 521.855 341.316 520.004 345.515C518.141 349.716 513.226 351.62 509.026 349.768H509.027C504.826 347.905 502.924 342.99 504.775 338.791L504.774 338.79Z" stroke="#323232"/>
<path d="M578.467 406.702C582.749 405.037 587.57 407.168 589.236 411.452C590.901 415.734 588.771 420.555 584.487 422.221C580.205 423.887 575.383 421.756 573.717 417.472C572.051 413.19 574.183 408.368 578.467 406.702Z" stroke="#323232"/>
<path d="M571.579 511.076C573.442 506.877 578.357 504.974 582.557 506.825C586.757 508.688 588.66 513.602 586.809 517.802C584.946 522.003 580.031 523.906 575.831 522.055H575.832C571.631 520.192 569.728 515.277 571.58 511.077L571.579 511.076Z" stroke="#323232"/>
<path d="M503.873 575.752C508.155 574.087 512.977 576.218 514.642 580.502C516.307 584.784 514.177 589.605 509.893 591.271C505.611 592.936 500.789 590.806 499.123 586.522C497.458 582.24 499.589 577.418 503.873 575.752Z" stroke="#323232"/>
<path d="M399.288 577.876C401.151 573.677 406.066 571.774 410.266 573.625C414.466 575.488 416.368 580.402 414.517 584.602C412.655 588.803 407.74 590.707 403.54 588.855H403.541C399.34 586.992 397.437 582.077 399.289 577.877L399.288 577.876Z" stroke="#323232"/>
<path d="M334.822 501.162C339.104 499.497 343.926 501.628 345.592 505.912C347.256 510.194 345.126 515.015 340.843 516.681C336.56 518.347 331.738 516.216 330.072 511.932C328.407 507.65 330.538 502.828 334.822 501.162Z" stroke="#323232"/>
<path d="M332.494 405.595C334.357 401.394 339.272 399.491 343.472 401.343V401.342C347.672 403.205 349.574 408.119 347.724 412.319C345.861 416.52 340.946 418.423 336.746 416.572H336.747C332.545 414.709 330.633 409.793 332.494 405.595Z" stroke="#323232"/>
</g>
<defs>
<clipPath id="clip0_7004_50">
<rect width="921" height="921" fill="white"/>
</clipPath>
</defs>
</svg>
