<svg width="63" height="25" viewBox="0 0 63 25" fill="none" xmlns="http://www.w3.org/2000/svg">
<path d="M7.04426 11.1794C7.44756 10.8346 7.83926 10.4772 8.22567 10.125C9.84035 8.6433 11.3785 7.08048 12.8341 5.44262C14.6859 3.3223 15.1568 2.36599 14.7134 1.64691C14.4146 1.16929 13.0104 0 12.1289 0C11.6918 0 11.0372 1.03222 11.0372 1.03222C9.94446 2.98806 7.75584 5.6925 5.54717 7.87714C6.09406 5.87385 6.63989 4.32289 7.07698 3.55426L7.10127 3.51314L7.12027 3.46885C7.13083 3.44355 7.47923 2.80355 7.47923 2.55261C7.47923 1.25996 4.88309 0.723291 4.52307 0.723291C3.71224 0.723291 3.25615 1.56678 2.72826 3.03656C2.24842 4.44079 1.84315 5.86933 1.51412 7.31622C0.85849 10.0871 0.0941162 14.1875 0.0941162 16.6231C0.0941162 17.8261 1.70839 18.5631 2.58785 18.5631C3.26988 18.5631 3.72807 18.1055 3.72807 17.4244C3.72807 16.7433 3.91601 15.3652 4.23485 13.6477C5.4321 15.2861 6.46674 17.2325 7.86986 18.1983C11.0372 20.3829 13.9648 18.2183 13.9648 18.2183C13.8445 17.9727 10.8714 17.6047 7.04426 11.1794Z" fill="#585858"/>
<path d="M60.686 5.34758C60.3292 5.29027 59.9693 5.25506 59.6081 5.24214C59.1276 5.23975 58.6502 5.31926 58.1965 5.47726C57.53 5.71274 57.1182 6.12394 56.9613 6.71087C56.8698 7.28585 56.7586 7.87313 56.6277 8.47271C56.4447 9.28246 56.0691 10.3491 55.5011 11.6727C54.9853 12.8958 54.3757 14.0774 53.6778 15.2069C53.0303 16.2381 52.4781 16.7537 52.0213 16.7537C51.7855 16.7537 51.668 16.5185 51.6687 16.0483C51.674 15.7859 51.7002 15.5243 51.7468 15.266C51.9534 14.1767 52.2384 13.1037 52.5999 12.0554C53.0116 10.8155 53.4656 9.64059 53.9618 8.5307C54.4581 7.4208 54.8958 6.59875 55.2752 6.06454C54.8087 5.74008 54.2828 5.51044 53.7275 5.3887C53.271 5.27869 52.8043 5.21649 52.3349 5.20313C51.9992 5.20274 51.6643 5.23559 51.3351 5.30119C51.0212 5.35618 50.7247 5.48407 50.4694 5.67454C50.2141 5.86501 50.0072 6.11273 49.8654 6.39772C49.3555 7.59211 48.9232 8.81806 48.5711 10.068C48.1797 11.4323 47.9577 12.4962 47.9049 13.2595C47.8521 14.0229 47.826 14.5219 47.8267 14.7567C47.8267 15.7485 47.99 16.6032 48.3166 17.3209C48.722 18.1644 49.4252 18.7253 50.482 18.8529C50.5137 18.8529 51.9823 19.0986 53.3421 18.2203C53.7399 17.9528 54.1071 17.6423 54.4369 17.2946C54.3029 17.6826 53.6071 19.5203 53.3389 20.0359C51.3002 23.9708 47.4625 22.2037 46.5281 21.0776C46.3275 21.8505 47.6494 24.2407 50.0449 24.7036C51.3562 24.9587 52.9177 24.6899 53.87 24.1416C55.0313 23.4721 56.0227 22.0961 56.501 21.3676C57.5265 19.8008 58.4021 17.9507 59.1277 15.8174C59.8534 13.6841 60.4773 11.6579 60.9996 9.739C61.4036 8.23759 61.7696 7.01066 62.0976 6.05822C61.7103 5.68371 61.2179 5.43585 60.686 5.34758Z" fill="#585858"/>
<path d="M26.8535 19.4281C26.7644 19.4284 26.6785 19.4619 26.6128 19.522C25.8811 20.1767 24.4189 21.2743 22.8447 21.2743C21.7108 21.2743 20.7332 20.6871 19.9287 19.5294C19.8993 19.4843 19.859 19.4473 19.8117 19.4217C19.7643 19.3961 19.7112 19.3827 19.6574 19.3828C19.5878 19.3859 19.5201 19.406 19.4602 19.4415C19.4003 19.477 19.3502 19.5268 19.3142 19.5863C19.2771 19.6427 19.2554 19.7077 19.2511 19.775C19.2469 19.8423 19.2603 19.9095 19.29 19.9701C19.8463 21.0983 21.1006 22.9993 23.2449 23.0509H23.3357C25.3311 23.0509 26.6772 21.3924 27.223 19.9733C27.2464 19.9128 27.2545 19.8474 27.2466 19.7831C27.2387 19.7187 27.215 19.6573 27.1776 19.6042C27.1415 19.5513 27.0932 19.5077 27.0368 19.4771C26.9805 19.4465 26.9176 19.4297 26.8535 19.4281Z" fill="#585858"/>
<path d="M47.7421 8.84365C47.7421 6.42916 46.7423 5.18255 44.7427 5.10383C44.2331 5.10383 43.6908 5.32243 43.1157 5.75964C42.4854 6.25293 41.925 6.82929 41.4497 7.47298C41.606 6.93877 41.7629 6.46888 41.9206 6.0633C41.4624 5.65842 40.9852 5.42014 40.489 5.34844C40.1255 5.29025 39.7588 5.25503 39.391 5.24301C38.911 5.24274 38.4343 5.3222 37.9804 5.47813C37.3259 5.7136 36.9204 6.1248 36.7642 6.71173C36.3714 8.64895 36.0195 10.3061 35.7084 11.6831C35.7056 11.6863 35.7032 11.6898 35.701 11.6936L35.4075 12.1923C35.0465 12.8892 33.6951 15.5304 31.7788 16.3845C28.2948 17.9386 28.6327 13.816 28.6495 13.6231C28.6929 13.1459 28.7766 12.6733 28.8997 12.2102C29.0961 12.4717 29.3991 12.593 29.8024 12.6415C30.762 12.7342 31.7268 12.5291 32.5654 12.0542C33.3572 11.5966 33.9115 10.6962 34.2546 9.39087C34.3189 9.10177 34.3518 8.80661 34.3528 8.51047C34.3537 8.09023 34.2823 7.67297 34.1417 7.27687C33.9059 6.59634 33.4629 6.00648 32.8747 5.58989C32.268 5.14706 31.5068 4.92529 30.5911 4.92459C29.5943 4.90797 28.6179 5.20694 27.8018 5.77862C26.9785 6.36008 26.2898 7.11117 25.7821 7.98119C25.2684 8.82831 24.8885 9.74936 24.6556 10.712C24.5767 11.0487 24.5123 11.3745 24.4624 11.6894L24.1689 12.1881C23.8078 12.885 22.4564 15.5262 20.5402 16.3802C17.0561 17.9344 17.394 13.8118 17.4109 13.6189C17.454 13.1424 17.5373 12.6705 17.66 12.2081C17.8564 12.4696 18.1594 12.5909 18.5627 12.6394C19.5222 12.732 20.4871 12.527 21.3256 12.0521C22.1175 11.5945 22.6718 10.6941 23.0149 9.38876C23.0792 9.09966 23.1121 8.8045 23.1131 8.50837C23.1139 8.08813 23.0425 7.67086 22.9019 7.27476C22.6662 6.59423 22.2232 6.00437 21.635 5.58778C21.0283 5.14495 20.2671 4.92318 19.3514 4.92248C18.357 4.90659 17.383 5.20474 16.5684 5.7744C15.7451 6.35586 15.0564 7.10696 14.5487 7.97697C14.035 8.82409 13.6551 9.74515 13.4222 10.7078C13.218 11.5312 13.1092 12.3753 13.098 13.2235C13.098 14.5288 13.3595 15.638 13.8825 16.551C14.4455 17.4388 15.1219 17.9902 15.9116 18.2053C16.5774 18.4016 17.266 18.5101 17.9599 18.528C18.4409 18.527 18.9205 18.4746 19.3904 18.3719C20.4081 18.1522 21.3486 17.6656 22.1154 16.9622C22.7284 16.3552 23.2501 15.6627 23.6642 14.9062C23.9339 14.4459 24.1605 13.9616 24.3409 13.4596C24.3705 14.6623 24.6309 15.6928 25.1222 16.551C25.6853 17.4388 26.3617 17.9902 27.1514 18.2053C27.8171 18.4016 28.5057 18.5101 29.1996 18.528C29.6807 18.527 30.1602 18.4746 30.6302 18.3719C31.6478 18.1522 32.5884 17.6656 33.3551 16.9622C33.9681 16.3552 34.4898 15.6627 34.9039 14.9062C34.9757 14.7829 35.0433 14.6595 35.1077 14.5362C34.791 16.182 34.5122 17.772 34.5122 17.772C34.3148 19.3788 33.7986 21.9251 35.7317 23.7882C37.1158 25.122 39.0816 24.3734 39.2527 24.2574C38.9285 24.2068 38.4313 23.8789 37.9974 23.299C37.5159 22.6547 37.4399 21.7744 37.5117 21.0721C37.7155 19.1089 38.6319 16.6881 38.6319 16.6881C38.9064 17.7066 39.8083 18.2155 41.3378 18.2148C42.3566 18.2316 43.3535 17.9191 44.1799 17.3239C45.0193 16.7122 45.7177 15.9281 46.2281 15.0243C46.7758 14.0706 47.1696 13.0366 47.3948 11.9603C47.6193 10.9364 47.7357 9.89182 47.7421 8.84365ZM29.5269 10.4684C29.7932 9.81675 30.157 9.2092 30.6059 8.66652C31.0099 8.19768 31.4019 7.9369 31.782 7.88418C31.9082 7.88473 32.0309 7.92613 32.1316 8.00216C32.2323 8.0782 32.3056 8.18478 32.3405 8.30593C32.4307 8.53389 32.4803 8.77579 32.4873 9.02079C32.5 9.37571 32.4155 9.72737 32.2429 10.0379C32.0702 10.3483 31.816 10.6059 31.5075 10.7826C31.0493 11.0828 30.4482 11.2328 29.7043 11.2328L29.2334 11.2128C29.3096 10.9567 29.4078 10.7076 29.5269 10.4684ZM18.2871 10.4684C18.5535 9.81675 18.9173 9.2092 19.3662 8.66652C19.7702 8.19768 20.1622 7.9369 20.5423 7.88418C20.6685 7.88473 20.7912 7.92613 20.8919 8.00216C20.9926 8.0782 21.0659 8.18478 21.1008 8.30593C21.1909 8.53389 21.2406 8.77579 21.2475 9.02079C21.2603 9.37571 21.1758 9.72737 21.0031 10.0379C20.8305 10.3483 20.5762 10.6059 20.2678 10.7826C19.8096 11.0828 19.2085 11.2328 18.4645 11.2328L17.9936 11.2128C18.0698 10.9567 18.168 10.7076 18.2871 10.4684ZM42.6881 12.9156C42.4153 13.8398 42.0303 14.7271 41.5416 15.5578C41.0897 16.3022 40.629 16.7004 40.1596 16.7524C39.7014 16.7524 39.4726 16.3869 39.4733 15.6559C39.4733 14.8475 39.6493 13.797 40.0012 12.5044V12.4654C40.0734 12.2739 40.1323 12.0777 40.1775 11.8781C40.4731 10.9314 40.8666 10.0179 41.3515 9.15258C41.7964 8.37938 42.2211 7.99278 42.6258 7.99278C42.9778 7.99278 43.1805 8.1657 43.234 8.51153C43.2809 8.79959 43.307 9.09063 43.3121 9.38243C43.3121 10.3018 43.1041 11.4796 42.6881 12.9156Z" fill="#585858"/>
</svg>
