<svg width="67" height="20" viewBox="0 0 67 20" fill="none" xmlns="http://www.w3.org/2000/svg">
<path fill-rule="evenodd" clip-rule="evenodd" d="M9.87078 0.800781V7.29299H3.25539V0.800781H0.000610352V16.8509H3.25539V10.0099H9.87078V16.8509H13.1256V0.800781H9.87078Z" fill="white"/>
<path fill-rule="evenodd" clip-rule="evenodd" d="M30.2005 8.37213H27.1192V3.49864H30.1658C31.4878 3.53334 32.6728 4.47369 32.6728 6.04035C32.6728 7.52027 31.5416 8.35478 30.2005 8.37213ZM35.9102 6.1618C35.9102 3.01112 33.5958 1.02633 30.9847 0.818131V0.800781H23.8644V16.8509H27.1192V11.0717H30.983C33.6635 10.9503 35.9085 9.13898 35.9085 6.16353L35.9102 6.1618Z" fill="#72BE44"/>
<path fill-rule="evenodd" clip-rule="evenodd" d="M40.3674 3.49864H43.414C44.736 3.53334 45.921 4.47369 45.921 6.04035C45.921 7.50292 44.7898 8.35478 43.4487 8.35478H40.3674V3.49864ZM46.1466 16.8491H49.8021L46.4432 10.5304C48.0446 9.78265 49.1584 8.25069 49.1584 6.1618C49.1567 2.83762 46.5803 0.800781 43.7783 0.800781H37.1109V16.8491H40.3657V11.07H43.2388L46.1466 16.8491Z" fill="#72BE44"/>
<path fill-rule="evenodd" clip-rule="evenodd" d="M62.8398 8.80761C62.8398 11.4361 60.7162 13.5597 58.0878 13.5597C55.4593 13.5597 53.3357 11.4361 53.3357 8.80761V4.07291H58.0878C60.7162 4.07291 62.8398 6.1965 62.8398 8.80761ZM58.0878 0.800781H50.0809V8.80761C50.0809 13.2283 53.6671 16.8144 58.0878 16.8144C62.5084 16.8144 66.0946 13.2283 66.0946 8.80761C66.1119 4.38694 62.5084 0.800781 58.0878 0.800781Z" fill="#72BE44"/>
<path fill-rule="evenodd" clip-rule="evenodd" d="M19.4622 17.965C19.7589 17.5642 20.1753 17.042 20.5413 16.5718C21.2371 15.6835 21.9692 14.8663 21.9692 13.4558C21.9692 13.4558 22.056 9.99109 18.2963 9.99109C14.3094 9.99109 14.4846 13.7334 14.4846 13.7334H16.9049C16.9049 13.0377 17.0784 12.0626 18.2096 12.0626C19.3407 12.0626 19.4986 12.8989 19.4986 13.4211C19.4986 13.5772 19.6027 14.0474 18.3154 15.6661C16.9569 17.3889 14.5037 20.0001 14.5037 20.0001H21.9536V17.9632H19.4639L19.4622 17.965Z" fill="white"/>
<path fill-rule="evenodd" clip-rule="evenodd" d="M60.3505 8.80804C60.3505 10.0607 59.3407 11.0704 58.0881 11.0704C56.8354 11.0704 55.8257 10.0607 55.8257 8.80804V6.54565H58.0881C59.3407 6.563 60.3505 7.57275 60.3505 8.80804Z" fill="white"/>
</svg>
