<svg width="488" height="131" viewBox="0 0 488 131" fill="none" xmlns="http://www.w3.org/2000/svg">
<line x1="250.5" y1="56" x2="250.5" y2="76" stroke="#383838"/>
<line x1="130.5" y1="56" x2="130.5" y2="76" stroke="#383838"/>
<path d="M0 66H421" stroke="url(#paint0_linear_5246_226)"/>
<mask id="path-4-inside-1_5246_226" fill="white">
<path d="M357 65.5C357 74.1016 358.694 82.6189 361.986 90.5658C365.278 98.5126 370.102 105.733 376.185 111.815C382.267 117.898 389.487 122.722 397.434 126.014C405.381 129.306 413.898 131 422.5 131C431.102 131 439.619 129.306 447.566 126.014C455.513 122.722 462.733 117.898 468.815 111.815C474.898 105.733 479.722 98.5126 483.014 90.5658C486.306 82.6189 488 74.1016 488 65.5L422.5 65.5L357 65.5Z"/>
</mask>
<path d="M357 65.5C357 74.1016 358.694 82.6189 361.986 90.5658C365.278 98.5126 370.102 105.733 376.185 111.815C382.267 117.898 389.487 122.722 397.434 126.014C405.381 129.306 413.898 131 422.5 131C431.102 131 439.619 129.306 447.566 126.014C455.513 122.722 462.733 117.898 468.815 111.815C474.898 105.733 479.722 98.5126 483.014 90.5658C486.306 82.6189 488 74.1016 488 65.5L422.5 65.5L357 65.5Z" stroke="#3C3C3C" stroke-width="2" mask="url(#path-4-inside-1_5246_226)"/>
<circle cx="422.5" cy="65.5" r="46" stroke="#3C3C3C"/>
<path d="M421 79L421 72C421 68.6863 423.686 66 427 66M427 66L433.5 66M427 66C423.686 66 421 63.3137 421 60L421 53" stroke="#D9D9D9"/>
<defs>
<linearGradient id="paint0_linear_5246_226" x1="0" y1="66.5" x2="113.5" y2="66" gradientUnits="userSpaceOnUse">
<stop stop-color="#3C3C3C" stop-opacity="0"/>
<stop offset="1" stop-color="#3C3C3C"/>
</linearGradient>
</defs>
</svg>
