<svg width="488" height="131" viewBox="0 0 488 131" fill="none" xmlns="http://www.w3.org/2000/svg">
<line x1="237.5" y1="75" x2="237.5" y2="55" stroke="#383838"/>
<line x1="357.5" y1="75" x2="357.5" y2="55" stroke="#383838"/>
<path d="M488 65H67" stroke="url(#paint0_linear_5246_236)"/>
<mask id="path-4-inside-1_5246_236" fill="white">
<path d="M131 65.5C131 56.8984 129.306 48.3811 126.014 40.4342C122.722 32.4874 117.898 25.2667 111.815 19.1845C105.733 13.1023 98.5126 8.27757 90.5658 4.98589C82.6189 1.69421 74.1016 0 65.5 0C56.8984 0 48.3811 1.69421 40.4342 4.98589C32.4874 8.27758 25.2667 13.1023 19.1845 19.1845C13.1023 25.2668 8.27757 32.4874 4.98589 40.4342C1.6942 48.3811 0 56.8984 0 65.5L65.5 65.5L131 65.5Z"/>
</mask>
<path d="M131 65.5C131 56.8984 129.306 48.3811 126.014 40.4342C122.722 32.4874 117.898 25.2667 111.815 19.1845C105.733 13.1023 98.5126 8.27757 90.5658 4.98589C82.6189 1.69421 74.1016 0 65.5 0C56.8984 0 48.3811 1.69421 40.4342 4.98589C32.4874 8.27758 25.2667 13.1023 19.1845 19.1845C13.1023 25.2668 8.27757 32.4874 4.98589 40.4342C1.6942 48.3811 0 56.8984 0 65.5L65.5 65.5L131 65.5Z" stroke="#3C3C3C" stroke-width="2" mask="url(#path-4-inside-1_5246_236)"/>
<circle cx="65.5" cy="65.5" r="46" transform="rotate(180 65.5 65.5)" stroke="#3C3C3C"/>
<path d="M67 52L67 59C67 62.3137 64.3137 65 61 65M61 65L54.5 65M61 65C64.3137 65 67 67.6863 67 71L67 78" stroke="#D9D9D9"/>
<defs>
<linearGradient id="paint0_linear_5246_236" x1="488" y1="64.5" x2="374.5" y2="65" gradientUnits="userSpaceOnUse">
<stop stop-color="#3C3C3C" stop-opacity="0"/>
<stop offset="1" stop-color="#3C3C3C"/>
</linearGradient>
</defs>
</svg>
