<svg width="450" height="450" viewBox="0 0 450 450" fill="none" xmlns="http://www.w3.org/2000/svg">
<path d="M225 323C199.009 323 174.082 312.622 155.704 294.15C137.325 275.678 127 250.624 127 224.5C127 198.376 137.325 173.322 155.704 154.85C174.082 136.378 199.009 126 225 126" stroke="#DBDBDB"/>
<path d="M225.885 0H224.113V15.9449H225.885V0Z" fill="#E6E6E6"/>
<path d="M225.885 433.169H224.113V449.114H225.885V433.169Z" fill="#E6E6E6"/>
<path d="M113.459 29.661L111.988 30.51L120.094 44.549L121.564 43.7L113.459 29.661Z" fill="#E6E6E6"/>
<path d="M329.952 404.545L328.387 405.449L336.492 419.488L338.057 418.584L329.952 404.545Z" fill="#E6E6E6"/>
<path d="M31.0577 111.365L30 113.197L44.0389 121.302L45.0966 119.47L31.0577 111.365Z" fill="#E6E6E6"/>
<path d="M405.91 327.895L404.947 329.563L418.986 337.668L419.949 336.001L405.91 327.895Z" fill="#E6E6E6"/>
<path d="M16.8307 224.114H0V225.886H16.8307V224.114Z" fill="#E6E6E6"/>
<path d="M450.001 224.114H433.17V225.886H450.001V224.114Z" fill="#E6E6E6"/>
<path d="M44.08 327.898L30.041 336.004L31.0107 337.683L45.0496 329.578L44.08 327.898Z" fill="#E6E6E6"/>
<path d="M419.053 111.556L405.014 119.662L405.855 121.119L419.894 113.014L419.053 111.556Z" fill="#E6E6E6"/>
<path d="M119.994 404.515L111.889 418.554L113.556 419.516L121.661 405.478L119.994 404.515Z" fill="#E6E6E6"/>
<path d="M336.488 29.6365L328.383 43.6755L329.952 44.5817L338.058 30.5427L336.488 29.6365Z" fill="#E6E6E6"/>
<path d="M202.526 3.91629L201.119 4.06421L202.234 14.6752L203.642 14.5273L202.526 3.91629Z" fill="#E6E6E6"/>
<path d="M247.771 434.446L246.363 434.594L247.479 445.205L248.886 445.057L247.771 434.446Z" fill="#E6E6E6"/>
<path d="M179.579 7.47411L178.195 7.76831L180.414 18.2046L181.798 17.9104L179.579 7.47411Z" fill="#E6E6E6"/>
<path d="M269.587 430.919L268.203 431.213L270.421 441.65L271.806 441.356L269.587 430.919Z" fill="#E6E6E6"/>
<path d="M157.139 13.4084L155.793 13.8457L159.09 23.993L160.436 23.5557L157.139 13.4084Z" fill="#E6E6E6"/>
<path d="M290.914 425.131L289.568 425.568L292.866 435.715L294.211 435.278L290.914 425.131Z" fill="#E6E6E6"/>
<path d="M135.439 21.6579L134.146 22.2334L138.486 31.9804L139.779 31.4049L135.439 21.6579Z" fill="#E6E6E6"/>
<path d="M311.515 417.134L310.223 417.709L314.562 427.457L315.855 426.881L311.515 417.134Z" fill="#E6E6E6"/>
<path d="M95.2112 44.7166L94.0664 45.5483L100.338 54.1801L101.483 53.3484L95.2112 44.7166Z" fill="#E6E6E6"/>
<path d="M349.664 394.934L348.52 395.766L354.791 404.397L355.936 403.566L349.664 394.934Z" fill="#E6E6E6"/>
<path d="M77.1199 59.2678L76.0684 60.2146L83.2076 68.1436L84.2592 67.1967L77.1199 59.2678Z" fill="#E6E6E6"/>
<path d="M366.788 380.974L365.736 381.92L372.876 389.849L373.927 388.903L366.788 380.974Z" fill="#E6E6E6"/>
<path d="M60.6872 76.3345L67.8734 82.8049L67.5957 83.1134L60.4095 76.6429L60.6872 76.3345Z" fill="#E6E6E6" stroke="#DBDBDB"/>
<path d="M382.365 365.306L381.418 366.358L389.347 373.497L390.294 372.446L382.365 365.306Z" fill="#E6E6E6"/>
<path d="M46.0947 94.3244L53.9178 100.008L53.6739 100.344L45.8507 94.6601L46.0947 94.3244Z" fill="#E6E6E6" stroke="#DBDBDB"/>
<path d="M396.211 348.078L395.379 349.223L404.011 355.494L404.842 354.349L396.211 348.078Z" fill="#E6E6E6"/>
<path d="M22.6751 133.705L22.0996 134.998L31.8467 139.338L32.4222 138.045L22.6751 133.705Z" fill="#E6E6E6"/>
<path d="M418.156 309.786L417.58 311.079L427.327 315.419L427.903 314.126L418.156 309.786Z" fill="#E6E6E6"/>
<path d="M14.283 155.349L13.8457 156.695L23.993 159.992L24.4302 158.646L14.283 155.349Z" fill="#E6E6E6"/>
<path d="M426.002 289.129L425.564 290.475L435.712 293.772L436.149 292.426L426.002 289.129Z" fill="#E6E6E6"/>
<path d="M8.20826 177.757L7.91406 179.141L18.3504 181.359L18.6446 179.975L8.20826 177.757Z" fill="#E6E6E6"/>
<path d="M431.654 267.762L431.36 269.146L441.796 271.365L442.09 269.98L431.654 267.762Z" fill="#E6E6E6"/>
<path d="M4.49947 200.672L4.35156 202.079L14.9626 203.194L15.1105 201.787L4.49947 200.672Z" fill="#E6E6E6"/>
<path d="M435.033 245.924L434.885 247.331L445.496 248.447L445.644 247.039L435.033 245.924Z" fill="#E6E6E6"/>
<path d="M14.9646 245.922L4.35352 247.038L4.50143 248.445L15.1125 247.33L14.9646 245.922Z" fill="#E6E6E6"/>
<path d="M445.498 200.677L434.887 201.792L435.035 203.199L445.646 202.084L445.498 200.677Z" fill="#E6E6E6"/>
<path d="M18.3481 267.765L7.91187 269.983L8.20606 271.367L18.6423 269.149L18.3481 267.765Z" fill="#E6E6E6"/>
<path d="M441.79 177.763L431.354 179.981L431.648 181.366L442.084 179.147L441.79 177.763Z" fill="#E6E6E6"/>
<path d="M23.9949 289.126L13.8477 292.423L14.2849 293.769L24.4321 290.472L23.9949 289.126Z" fill="#E6E6E6"/>
<path d="M435.712 155.355L425.564 158.652L426.002 159.997L436.149 156.7L435.712 155.355Z" fill="#E6E6E6"/>
<path d="M31.8467 309.784L22.0996 314.124L22.6751 315.416L32.4222 311.077L31.8467 309.784Z" fill="#E6E6E6"/>
<path d="M427.327 133.713L417.58 138.052L418.156 139.345L427.903 135.005L427.327 133.713Z" fill="#E6E6E6"/>
<path d="M53.7841 348.047L45.1523 354.318L45.9841 355.463L54.6159 349.192L53.7841 348.047Z" fill="#E6E6E6"/>
<path d="M403.917 94.347L404.161 94.6828L396.339 100.366L396.095 100.03L403.917 94.347Z" fill="#E6E6E6" stroke="#DBDBDB"/>
<path d="M67.6379 365.293L59.709 372.432L60.6558 373.484L68.5847 366.344L67.6379 365.293Z" fill="#E6E6E6"/>
<path d="M389.341 76.3836L389.618 76.6921L382.433 83.1618L382.155 82.8534L389.341 76.3836Z" fill="#E6E6E6" stroke="#DBDBDB"/>
<path d="M83.2037 380.965L76.0645 388.894L77.116 389.84L84.2553 381.911L83.2037 380.965Z" fill="#E6E6E6"/>
<path d="M372.926 59.325L365.787 67.2539L366.839 68.2007L373.978 60.2718L372.926 59.325Z" fill="#E6E6E6"/>
<path d="M100.324 394.93L94.0527 403.562L95.1975 404.393L101.469 395.762L100.324 394.93Z" fill="#E6E6E6"/>
<path d="M354.773 44.7031L348.502 53.335L349.647 54.1667L355.918 45.5349L354.773 44.7031Z" fill="#E6E6E6"/>
<path d="M138.546 417.216L134.205 426.962L135.498 427.538L139.839 417.791L138.546 417.216Z" fill="#E6E6E6"/>
<path d="M314.541 21.6478L310.201 31.3948L311.494 31.9703L315.834 22.2233L314.541 21.6478Z" fill="#E6E6E6"/>
<path d="M159.12 425.159L155.822 435.306L157.168 435.744L160.465 425.596L159.12 425.159Z" fill="#E6E6E6"/>
<path d="M292.869 13.4143L289.572 23.5615L290.918 23.9988L294.215 13.8516L292.869 13.4143Z" fill="#E6E6E6"/>
<path d="M180.424 430.922L178.205 441.358L179.589 441.653L181.808 431.216L180.424 430.922Z" fill="#E6E6E6"/>
<path d="M270.423 7.48036L268.205 17.9167L269.589 18.2109L271.808 7.77456L270.423 7.48036Z" fill="#E6E6E6"/>
<path d="M202.273 434.481L201.158 445.092L202.566 445.24L203.681 434.629L202.273 434.481Z" fill="#E6E6E6"/>
<path d="M247.533 3.92565L246.418 14.5366L247.825 14.6845L248.94 4.07356L247.533 3.92565Z" fill="#E6E6E6"/>
</svg>
