<svg width="348" height="210" viewBox="0 0 348 210" fill="none" xmlns="http://www.w3.org/2000/svg">
<path d="M51.74 190.3C52.3667 190.3 52.9067 190.44 53.36 190.72C53.82 190.993 54.1733 191.383 54.42 191.89C54.6733 192.397 54.8 193 54.8 193.7C54.8 194.4 54.6733 195.003 54.42 195.51C54.1733 196.017 53.82 196.41 53.36 196.69C52.9067 196.963 52.3667 197.1 51.74 197.1C51.1133 197.1 50.57 196.963 50.11 196.69C49.6567 196.41 49.3033 196.017 49.05 195.51C48.8033 195.003 48.68 194.4 48.68 193.7C48.68 193 48.8033 192.397 49.05 191.89C49.3033 191.383 49.6567 190.993 50.11 190.72C50.57 190.44 51.1133 190.3 51.74 190.3ZM51.74 191.05C51.2867 191.05 50.8933 191.157 50.56 191.37C50.2267 191.577 49.97 191.88 49.79 192.28C49.61 192.673 49.52 193.147 49.52 193.7C49.52 194.253 49.61 194.73 49.79 195.13C49.97 195.523 50.2267 195.827 50.56 196.04C50.8933 196.247 51.2867 196.35 51.74 196.35C52.2 196.35 52.5933 196.247 52.92 196.04C53.2533 195.827 53.51 195.523 53.69 195.13C53.87 194.73 53.96 194.253 53.96 193.7C53.96 193.147 53.87 192.673 53.69 192.28C53.51 191.88 53.2533 191.577 52.92 191.37C52.5933 191.157 52.2 191.05 51.74 191.05ZM58.4805 191.9C58.8271 191.9 59.1305 191.953 59.3905 192.06C59.6571 192.167 59.8871 192.32 60.0805 192.52C60.2738 192.72 60.4305 192.957 60.5505 193.23L59.7905 193.59C59.6838 193.27 59.5205 193.027 59.3005 192.86C59.0871 192.687 58.8071 192.6 58.4605 192.6C58.1271 192.6 57.8405 192.677 57.6005 192.83C57.3605 192.977 57.1771 193.193 57.0505 193.48C56.9238 193.76 56.8605 194.1 56.8605 194.5C56.8605 194.893 56.9238 195.233 57.0505 195.52C57.1771 195.807 57.3605 196.027 57.6005 196.18C57.8405 196.327 58.1271 196.4 58.4605 196.4C58.7205 196.4 58.9438 196.36 59.1305 196.28C59.3238 196.2 59.4805 196.083 59.6005 195.93C59.7271 195.777 59.8138 195.59 59.8605 195.37L60.6005 195.63C60.4871 195.937 60.3305 196.2 60.1305 196.42C59.9371 196.64 59.7005 196.81 59.4205 196.93C59.1471 197.043 58.8338 197.1 58.4805 197.1C58.0138 197.1 57.5971 196.997 57.2305 196.79C56.8638 196.583 56.5771 196.287 56.3705 195.9C56.1638 195.507 56.0605 195.04 56.0605 194.5C56.0605 193.96 56.1638 193.497 56.3705 193.11C56.5771 192.717 56.8638 192.417 57.2305 192.21C57.5971 192.003 58.0138 191.9 58.4805 191.9ZM63.1862 190.58V195.62C63.1862 195.867 63.2562 196.05 63.3962 196.17C63.5362 196.29 63.7162 196.35 63.9362 196.35C64.1295 196.35 64.2962 196.317 64.4362 196.25C64.5762 196.183 64.7028 196.093 64.8162 195.98L65.0962 196.65C64.9428 196.79 64.7595 196.9 64.5462 196.98C64.3395 197.06 64.0995 197.1 63.8262 197.1C63.5728 197.1 63.3362 197.057 63.1162 196.97C62.8962 196.877 62.7195 196.733 62.5862 196.54C62.4595 196.34 62.3928 196.08 62.3862 195.76V190.8L63.1862 190.58ZM65.0062 192V192.69H61.3862V192H65.0062Z" fill="#4A4A4A"/>
<path d="M200.26 190.4V197H199.27L196.51 192.58L195.81 191.34H195.8L195.84 192.34V197H195.08V190.4H196.07L198.82 194.8L199.53 196.07H199.54L199.5 195.06V190.4H200.26ZM204.266 191.9C204.739 191.9 205.156 192.003 205.516 192.21C205.882 192.417 206.169 192.717 206.376 193.11C206.582 193.497 206.686 193.96 206.686 194.5C206.686 195.04 206.582 195.507 206.376 195.9C206.169 196.287 205.882 196.583 205.516 196.79C205.156 196.997 204.739 197.1 204.266 197.1C203.799 197.1 203.382 196.997 203.016 196.79C202.649 196.583 202.362 196.287 202.156 195.9C201.949 195.507 201.846 195.04 201.846 194.5C201.846 193.96 201.949 193.497 202.156 193.11C202.362 192.717 202.649 192.417 203.016 192.21C203.382 192.003 203.799 191.9 204.266 191.9ZM204.266 192.59C203.926 192.59 203.636 192.667 203.396 192.82C203.156 192.973 202.969 193.193 202.836 193.48C202.709 193.76 202.646 194.1 202.646 194.5C202.646 194.893 202.709 195.233 202.836 195.52C202.969 195.807 203.156 196.027 203.396 196.18C203.636 196.333 203.926 196.41 204.266 196.41C204.606 196.41 204.896 196.333 205.136 196.18C205.376 196.027 205.559 195.807 205.686 195.52C205.819 195.233 205.886 194.893 205.886 194.5C205.886 194.1 205.819 193.76 205.686 193.48C205.559 193.193 205.376 192.973 205.136 192.82C204.896 192.667 204.606 192.59 204.266 192.59ZM211.502 192H212.342L210.262 197H209.462L207.382 192H208.292L209.872 196.19L211.502 192Z" fill="#4A4A4A"/>
<path d="M306.21 190.4C307.243 190.4 308.053 190.687 308.64 191.26C309.233 191.827 309.53 192.64 309.53 193.7C309.53 194.76 309.233 195.577 308.64 196.15C308.053 196.717 307.243 197 306.21 197H304.08V190.4H306.21ZM306.29 196.25C307.043 196.25 307.63 196.027 308.05 195.58C308.477 195.127 308.69 194.5 308.69 193.7C308.69 192.9 308.477 192.277 308.05 191.83C307.63 191.377 307.043 191.15 306.29 191.15H304.88V196.25H306.29ZM313.227 197.1C312.754 197.1 312.33 196.997 311.957 196.79C311.59 196.583 311.304 196.287 311.097 195.9C310.89 195.507 310.787 195.04 310.787 194.5C310.787 193.96 310.89 193.497 311.097 193.11C311.304 192.717 311.587 192.417 311.947 192.21C312.307 192.003 312.717 191.9 313.177 191.9C313.644 191.9 314.04 192 314.367 192.2C314.7 192.4 314.954 192.673 315.127 193.02C315.3 193.36 315.387 193.743 315.387 194.17C315.387 194.283 315.384 194.387 315.377 194.48C315.37 194.573 315.36 194.657 315.347 194.73H311.307V194.02H314.997L314.587 194.1C314.587 193.62 314.454 193.25 314.187 192.99C313.927 192.73 313.584 192.6 313.157 192.6C312.83 192.6 312.547 192.677 312.307 192.83C312.074 192.977 311.89 193.193 311.757 193.48C311.63 193.76 311.567 194.1 311.567 194.5C311.567 194.893 311.634 195.233 311.767 195.52C311.9 195.807 312.087 196.027 312.327 196.18C312.574 196.327 312.867 196.4 313.207 196.4C313.574 196.4 313.87 196.33 314.097 196.19C314.33 196.05 314.517 195.86 314.657 195.62L315.287 195.99C315.16 196.217 314.997 196.413 314.797 196.58C314.604 196.747 314.374 196.877 314.107 196.97C313.847 197.057 313.554 197.1 313.227 197.1ZM318.979 191.9C319.325 191.9 319.629 191.953 319.889 192.06C320.155 192.167 320.385 192.32 320.579 192.52C320.772 192.72 320.929 192.957 321.049 193.23L320.289 193.59C320.182 193.27 320.019 193.027 319.799 192.86C319.585 192.687 319.305 192.6 318.959 192.6C318.625 192.6 318.339 192.677 318.099 192.83C317.859 192.977 317.675 193.193 317.549 193.48C317.422 193.76 317.359 194.1 317.359 194.5C317.359 194.893 317.422 195.233 317.549 195.52C317.675 195.807 317.859 196.027 318.099 196.18C318.339 196.327 318.625 196.4 318.959 196.4C319.219 196.4 319.442 196.36 319.629 196.28C319.822 196.2 319.979 196.083 320.099 195.93C320.225 195.777 320.312 195.59 320.359 195.37L321.099 195.63C320.985 195.937 320.829 196.2 320.629 196.42C320.435 196.64 320.199 196.81 319.919 196.93C319.645 197.043 319.332 197.1 318.979 197.1C318.512 197.1 318.095 196.997 317.729 196.79C317.362 196.583 317.075 196.287 316.869 195.9C316.662 195.507 316.559 195.04 316.559 194.5C316.559 193.96 316.662 193.497 316.869 193.11C317.075 192.717 317.362 192.417 317.729 192.21C318.095 192.003 318.512 191.9 318.979 191.9Z" fill="#4A4A4A"/>
<path d="M87 0L87 204" stroke="#303030" stroke-dasharray="2 2"/>
<path d="M235 0L235 204" stroke="#303030" stroke-dasharray="2 2"/>
<path d="M345 0L345 204" stroke="#303030" stroke-dasharray="2 2"/>
<path d="M1 173V95" stroke="#606060"/>
<path d="M37 173L37 57" stroke="#606060"/>
<path d="M75 173L75 70" stroke="#606060"/>
<path d="M110 173L110 41" stroke="#606060"/>
<path d="M94 173L94 55" stroke="#606060"/>
<path d="M57 173L57 64" stroke="#606060"/>
<path d="M18 173L18 76" stroke="#606060"/>
<path d="M148 173L148 33" stroke="#49B97A"/>
<path d="M185 173L185 17" stroke="#49B97A"/>
<path d="M221 173L221 26" stroke="#49B97A"/>
<path d="M258 173L258 0" stroke="#49B97A"/>
<path d="M277 173L277 15" stroke="#49B97A"/>
<path d="M242 173L242 15" stroke="#49B97A"/>
<path d="M295 173L295 33" stroke="#49B97A"/>
<path d="M331 173L331 13" stroke="#49B97A"/>
<path d="M315 173L315 22" stroke="#49B97A"/>
<path d="M204 173L204 22" stroke="#49B97A"/>
<path d="M167 173L167 25" stroke="#49B97A"/>
<path d="M130 173L130 37" stroke="#606060"/>
</svg>
