<svg width="921" height="921" viewBox="0 0 921 921" fill="none" xmlns="http://www.w3.org/2000/svg">
<g clip-path="url(#clip0_7004_50)">
<mask id="path-1-inside-1_7004_50" fill="white">
<path d="M483.415 255C498.869 256.75 513.818 260.199 528.054 265.151L524.852 292.936C533.81 296.397 542.407 300.559 550.601 305.356L570.32 285.533C583.285 293.727 595.291 303.308 606.104 314.095L591.155 337.743C597.677 344.692 603.641 352.161 608.995 360.069L635.366 350.76C643.443 363.621 650.134 377.429 655.255 391.989L631.541 406.795C634.367 415.806 636.481 425.115 637.868 434.67L665.652 437.729C666.482 445.249 666.923 452.886 666.923 460.626C666.923 468.366 666.482 476.003 665.652 483.522L637.868 486.582C636.494 496.137 634.367 505.446 631.541 514.457L655.255 529.264C650.134 543.823 643.443 557.631 635.366 570.492L608.995 561.184C603.641 569.105 597.664 576.56 591.155 583.509L606.104 607.157C595.291 617.944 583.285 627.526 570.32 635.72L550.601 615.896C542.407 620.694 533.797 624.855 524.852 628.316L528.054 656.101C513.818 661.066 498.869 664.502 483.415 666.252L474.249 639.829C469.53 640.205 464.772 640.399 459.962 640.399C455.152 640.399 450.393 640.205 445.674 639.829L436.508 666.252C421.054 664.502 406.105 661.053 391.869 656.101L395.071 628.316C386.112 624.855 377.516 620.694 369.322 615.896L349.603 635.72C336.637 627.526 324.632 617.944 313.819 607.157L328.768 583.509C322.246 576.56 316.282 569.092 310.928 561.184L284.557 570.492C276.48 557.631 269.79 543.823 264.669 529.264L288.382 514.457C285.568 505.446 283.442 496.137 282.055 486.582L254.271 483.522C253.441 476.003 253 468.366 253 460.626C253 452.886 253.441 445.249 254.271 437.729L282.055 434.67C283.429 425.115 285.555 415.806 288.382 406.795L264.669 391.989C269.79 377.429 276.479 363.621 284.557 350.76L310.928 360.069C316.282 352.148 322.259 344.692 328.768 337.743L313.819 314.095C324.632 303.308 336.638 293.727 349.603 285.533L369.322 305.356C377.516 300.559 386.125 296.397 395.071 292.936L391.869 265.151C406.105 260.186 421.054 256.75 436.508 255L445.674 281.423C450.393 281.047 455.152 280.853 459.962 280.853C464.772 280.853 469.53 281.047 474.249 281.423L483.415 255ZM364.708 564.899C388.369 586.528 419.414 600.209 453.621 601.724V530.636C439.008 529.318 425.671 523.51 415.004 514.604L364.708 564.899ZM504.954 514.609C494.287 523.513 480.951 529.321 466.34 530.637V601.723C500.547 600.206 531.588 586.527 555.245 564.9L504.954 514.609ZM318.877 466.992C320.394 501.204 334.081 532.249 355.714 555.907L406.012 505.609C397.108 494.941 391.3 481.604 389.984 466.992H318.877ZM530.104 465.43C529.074 480.656 523.171 494.567 513.947 505.615L564.238 555.906C586.269 531.811 600.057 500.056 601.144 465.095L530.104 465.43ZM459.983 418.606C436.802 418.606 417.95 437.457 417.95 460.639C417.95 483.82 436.802 502.672 459.983 502.672C483.165 502.672 502.016 483.82 502.016 460.639C502.015 437.457 483.165 418.607 459.983 418.606ZM355.515 365.555C333.992 389.189 320.386 420.158 318.876 454.273H389.985C391.305 439.643 397.128 426.291 406.053 415.618L355.515 365.555ZM512.842 414.368C522.044 424.867 528.176 438.12 529.821 452.712L600.976 452.376C599.007 418.195 584.888 387.275 562.869 363.868L512.842 414.368ZM452.26 319.593C418.484 321.411 387.865 335.093 364.492 356.546L415.054 406.633C425.462 397.959 438.407 392.23 452.595 390.741L452.26 319.593ZM465.313 390.556C479.726 391.642 492.94 397.095 503.633 405.592L553.749 355.001C529.969 333.874 499.004 320.658 464.979 319.474L465.313 390.556Z"/>
</mask>
<path d="M483.415 255C498.869 256.75 513.818 260.199 528.054 265.151L524.852 292.936C533.81 296.397 542.407 300.559 550.601 305.356L570.32 285.533C583.285 293.727 595.291 303.308 606.104 314.095L591.155 337.743C597.677 344.692 603.641 352.161 608.995 360.069L635.366 350.76C643.443 363.621 650.134 377.429 655.255 391.989L631.541 406.795C634.367 415.806 636.481 425.115 637.868 434.67L665.652 437.729C666.482 445.249 666.923 452.886 666.923 460.626C666.923 468.366 666.482 476.003 665.652 483.522L637.868 486.582C636.494 496.137 634.367 505.446 631.541 514.457L655.255 529.264C650.134 543.823 643.443 557.631 635.366 570.492L608.995 561.184C603.641 569.105 597.664 576.56 591.155 583.509L606.104 607.157C595.291 617.944 583.285 627.526 570.32 635.72L550.601 615.896C542.407 620.694 533.797 624.855 524.852 628.316L528.054 656.101C513.818 661.066 498.869 664.502 483.415 666.252L474.249 639.829C469.53 640.205 464.772 640.399 459.962 640.399C455.152 640.399 450.393 640.205 445.674 639.829L436.508 666.252C421.054 664.502 406.105 661.053 391.869 656.101L395.071 628.316C386.112 624.855 377.516 620.694 369.322 615.896L349.603 635.72C336.637 627.526 324.632 617.944 313.819 607.157L328.768 583.509C322.246 576.56 316.282 569.092 310.928 561.184L284.557 570.492C276.48 557.631 269.79 543.823 264.669 529.264L288.382 514.457C285.568 505.446 283.442 496.137 282.055 486.582L254.271 483.522C253.441 476.003 253 468.366 253 460.626C253 452.886 253.441 445.249 254.271 437.729L282.055 434.67C283.429 425.115 285.555 415.806 288.382 406.795L264.669 391.989C269.79 377.429 276.479 363.621 284.557 350.76L310.928 360.069C316.282 352.148 322.259 344.692 328.768 337.743L313.819 314.095C324.632 303.308 336.638 293.727 349.603 285.533L369.322 305.356C377.516 300.559 386.125 296.397 395.071 292.936L391.869 265.151C406.105 260.186 421.054 256.75 436.508 255L445.674 281.423C450.393 281.047 455.152 280.853 459.962 280.853C464.772 280.853 469.53 281.047 474.249 281.423L483.415 255ZM364.708 564.899C388.369 586.528 419.414 600.209 453.621 601.724V530.636C439.008 529.318 425.671 523.51 415.004 514.604L364.708 564.899ZM504.954 514.609C494.287 523.513 480.951 529.321 466.34 530.637V601.723C500.547 600.206 531.588 586.527 555.245 564.9L504.954 514.609ZM318.877 466.992C320.394 501.204 334.081 532.249 355.714 555.907L406.012 505.609C397.108 494.941 391.3 481.604 389.984 466.992H318.877ZM530.104 465.43C529.074 480.656 523.171 494.567 513.947 505.615L564.238 555.906C586.269 531.811 600.057 500.056 601.144 465.095L530.104 465.43ZM459.983 418.606C436.802 418.606 417.95 437.457 417.95 460.639C417.95 483.82 436.802 502.672 459.983 502.672C483.165 502.672 502.016 483.82 502.016 460.639C502.015 437.457 483.165 418.607 459.983 418.606ZM355.515 365.555C333.992 389.189 320.386 420.158 318.876 454.273H389.985C391.305 439.643 397.128 426.291 406.053 415.618L355.515 365.555ZM512.842 414.368C522.044 424.867 528.176 438.12 529.821 452.712L600.976 452.376C599.007 418.195 584.888 387.275 562.869 363.868L512.842 414.368ZM452.26 319.593C418.484 321.411 387.865 335.093 364.492 356.546L415.054 406.633C425.462 397.959 438.407 392.23 452.595 390.741L452.26 319.593ZM465.313 390.556C479.726 391.642 492.94 397.095 503.633 405.592L553.749 355.001C529.969 333.874 499.004 320.658 464.979 319.474L465.313 390.556Z" fill="#1D1D1D"/>
<path d="M483.415 255L483.528 254.006L482.733 253.916L482.47 254.672L483.415 255ZM528.054 265.151L529.047 265.266L529.139 264.47L528.382 264.207L528.054 265.151ZM524.852 292.936L523.858 292.821L523.77 293.59L524.491 293.868L524.852 292.936ZM550.601 305.356L550.095 306.219L550.764 306.611L551.31 306.062L550.601 305.356ZM570.32 285.533L570.855 284.688L570.177 284.26L569.611 284.828L570.32 285.533ZM606.104 314.095L606.949 314.629L607.377 313.952L606.81 313.387L606.104 314.095ZM591.155 337.743L590.31 337.209L589.896 337.863L590.426 338.427L591.155 337.743ZM608.995 360.069L608.167 360.63L608.6 361.269L609.328 361.012L608.995 360.069ZM635.366 350.76L636.213 350.228L635.788 349.551L635.033 349.817L635.366 350.76ZM655.255 391.989L655.784 392.838L656.464 392.413L656.198 391.657L655.255 391.989ZM631.541 406.795L631.011 405.947L630.355 406.356L630.587 407.094L631.541 406.795ZM637.868 434.67L636.879 434.814L636.99 435.579L637.759 435.664L637.868 434.67ZM665.652 437.729L666.646 437.62L666.558 436.823L665.762 436.736L665.652 437.729ZM666.923 460.626L667.923 460.626L667.923 460.626L666.923 460.626ZM665.652 483.522L665.762 484.516L666.558 484.429L666.646 483.632L665.652 483.522ZM637.868 486.582L637.759 485.588L636.989 485.673L636.878 486.44L637.868 486.582ZM631.541 514.457L630.587 514.158L630.355 514.896L631.011 515.305L631.541 514.457ZM655.255 529.264L656.198 529.595L656.464 528.84L655.785 528.415L655.255 529.264ZM635.366 570.492L635.033 571.435L635.788 571.701L636.213 571.024L635.366 570.492ZM608.995 561.184L609.328 560.241L608.599 559.983L608.167 560.624L608.995 561.184ZM591.155 583.509L590.425 582.825L589.897 583.39L590.31 584.043L591.155 583.509ZM606.104 607.157L606.81 607.865L607.377 607.3L606.949 606.623L606.104 607.157ZM570.32 635.72L569.611 636.425L570.177 636.993L570.855 636.565L570.32 635.72ZM550.601 615.896L551.31 615.191L550.764 614.642L550.095 615.033L550.601 615.896ZM524.852 628.316L524.491 627.384L523.77 627.663L523.858 628.431L524.852 628.316ZM528.054 656.101L528.383 657.045L529.139 656.781L529.047 655.986L528.054 656.101ZM483.415 666.252L482.47 666.58L482.733 667.336L483.528 667.246L483.415 666.252ZM474.249 639.829L475.194 639.501L474.94 638.771L474.17 638.832L474.249 639.829ZM459.962 640.399L459.962 641.399L459.962 641.399L459.962 640.399ZM445.674 639.829L445.753 638.832L444.982 638.771L444.729 639.501L445.674 639.829ZM436.508 666.252L436.395 667.246L437.19 667.336L437.453 666.58L436.508 666.252ZM391.869 656.101L390.876 655.986L390.784 656.782L391.541 657.045L391.869 656.101ZM395.071 628.316L396.065 628.431L396.153 627.662L395.432 627.384L395.071 628.316ZM369.322 615.896L369.827 615.033L369.159 614.642L368.613 615.191L369.322 615.896ZM349.603 635.72L349.068 636.565L349.746 636.993L350.311 636.425L349.603 635.72ZM313.819 607.157L312.974 606.623L312.546 607.3L313.113 607.865L313.819 607.157ZM328.768 583.509L329.613 584.043L330.026 583.389L329.497 582.824L328.768 583.509ZM310.928 561.184L311.756 560.623L311.323 559.984L310.595 560.241L310.928 561.184ZM284.557 570.492L283.71 571.024L284.135 571.701L284.889 571.435L284.557 570.492ZM264.669 529.264L264.139 528.415L263.46 528.84L263.726 529.595L264.669 529.264ZM288.382 514.457L288.911 515.305L289.567 514.896L289.336 514.159L288.382 514.457ZM282.055 486.582L283.044 486.438L282.933 485.673L282.164 485.588L282.055 486.582ZM254.271 483.522L253.277 483.632L253.364 484.429L254.161 484.516L254.271 483.522ZM253 460.626L252 460.626V460.626H253ZM254.271 437.729L254.161 436.736L253.364 436.823L253.277 437.62L254.271 437.729ZM282.055 434.67L282.164 435.664L282.934 435.579L283.045 434.812L282.055 434.67ZM288.382 406.795L289.336 407.094L289.567 406.356L288.911 405.947L288.382 406.795ZM264.669 391.989L263.726 391.657L263.46 392.413L264.139 392.837L264.669 391.989ZM284.557 350.76L284.89 349.817L284.135 349.551L283.71 350.228L284.557 350.76ZM310.928 360.069L310.595 361.012L311.323 361.27L311.756 360.629L310.928 360.069ZM328.768 337.743L329.497 338.427L330.026 337.862L329.613 337.209L328.768 337.743ZM313.819 314.095L313.113 313.387L312.546 313.952L312.974 314.629L313.819 314.095ZM349.603 285.533L350.311 284.828L349.746 284.26L349.068 284.688L349.603 285.533ZM369.322 305.356L368.613 306.062L369.159 306.611L369.827 306.219L369.322 305.356ZM395.071 292.936L395.432 293.868L396.153 293.589L396.065 292.821L395.071 292.936ZM391.869 265.151L391.54 264.207L390.784 264.471L390.876 265.266L391.869 265.151ZM436.508 255L437.453 254.672L437.19 253.916L436.395 254.006L436.508 255ZM445.674 281.423L444.729 281.751L444.982 282.481L445.753 282.42L445.674 281.423ZM459.962 280.853L459.962 279.853H459.962V280.853ZM474.249 281.423L474.17 282.42L474.94 282.481L475.194 281.751L474.249 281.423ZM364.708 564.899L364.001 564.192L363.261 564.932L364.033 565.638L364.708 564.899ZM453.621 601.724L453.577 602.723L454.621 602.769V601.724H453.621ZM453.621 530.636H454.621V529.722L453.711 529.64L453.621 530.636ZM415.004 514.604L415.645 513.836L414.943 513.25L414.297 513.896L415.004 514.604ZM504.954 514.609L505.661 513.902L505.015 513.256L504.313 513.842L504.954 514.609ZM466.34 530.637L466.25 529.641L465.34 529.723V530.637H466.34ZM466.34 601.723H465.34V602.768L466.384 602.722L466.34 601.723ZM555.245 564.9L555.92 565.638L556.692 564.933L555.952 564.193L555.245 564.9ZM318.877 466.992V465.992H317.832L317.878 467.037L318.877 466.992ZM355.714 555.907L354.976 556.582L355.682 557.354L356.421 556.614L355.714 555.907ZM406.012 505.609L406.719 506.316L407.365 505.67L406.779 504.969L406.012 505.609ZM389.984 466.992L390.98 466.903L390.898 465.992H389.984V466.992ZM530.104 465.43L530.099 464.43L529.169 464.434L529.106 465.362L530.104 465.43ZM513.947 505.615L513.18 504.974L512.594 505.676L513.24 506.322L513.947 505.615ZM564.238 555.906L563.531 556.613L564.271 557.353L564.976 556.581L564.238 555.906ZM601.144 465.095L602.143 465.126L602.175 464.09L601.139 464.095L601.144 465.095ZM459.983 418.606L459.983 417.606H459.983V418.606ZM417.95 460.639L416.95 460.639V460.639H417.95ZM459.983 502.672L459.983 503.672L459.983 503.672L459.983 502.672ZM502.016 460.639L503.016 460.639L503.016 460.639L502.016 460.639ZM355.515 365.555L356.218 364.844L355.477 364.11L354.775 364.881L355.515 365.555ZM318.876 454.273L317.877 454.229L317.831 455.273H318.876V454.273ZM389.985 454.273V455.273H390.899L390.981 454.363L389.985 454.273ZM406.053 415.618L406.82 416.26L407.409 415.555L406.756 414.908L406.053 415.618ZM512.842 414.368L512.131 413.664L511.476 414.326L512.09 415.027L512.842 414.368ZM529.821 452.712L528.828 452.824L528.928 453.716L529.826 453.712L529.821 452.712ZM600.976 452.376L600.98 453.376L602.035 453.371L601.974 452.318L600.976 452.376ZM562.869 363.868L563.598 363.183L562.888 362.428L562.159 363.164L562.869 363.868ZM452.26 319.593L453.26 319.588L453.255 318.538L452.206 318.594L452.26 319.593ZM364.492 356.546L363.816 355.809L363.043 356.518L363.788 357.256L364.492 356.546ZM415.054 406.633L414.35 407.343L414.996 407.983L415.694 407.401L415.054 406.633ZM452.595 390.741L452.699 391.736L453.599 391.641L453.595 390.737L452.595 390.741ZM465.313 390.556L464.313 390.56L464.318 391.483L465.238 391.553L465.313 390.556ZM503.633 405.592L503.011 406.375L503.712 406.932L504.343 406.296L503.633 405.592ZM553.749 355.001L554.459 355.705L555.203 354.955L554.413 354.253L553.749 355.001ZM464.979 319.474L465.013 318.474L463.974 318.438L463.979 319.478L464.979 319.474ZM483.415 255L483.303 255.994C498.682 257.735 513.559 261.167 527.725 266.096L528.054 265.151L528.382 264.207C514.078 259.23 499.056 255.765 483.528 254.006L483.415 255ZM528.054 265.151L527.06 265.037L523.858 292.821L524.852 292.936L525.845 293.05L529.047 265.266L528.054 265.151ZM524.852 292.936L524.491 293.868C533.399 297.31 541.947 301.449 550.095 306.219L550.601 305.356L551.106 304.493C542.866 299.67 534.222 295.484 525.212 292.003L524.852 292.936ZM550.601 305.356L551.31 306.062L571.029 286.238L570.32 285.533L569.611 284.828L549.892 304.651L550.601 305.356ZM570.32 285.533L569.786 286.379C582.689 294.533 594.637 304.068 605.397 314.803L606.104 314.095L606.81 313.387C595.945 302.548 583.881 292.921 570.855 284.688L570.32 285.533ZM606.104 314.095L605.258 313.56L590.31 337.209L591.155 337.743L592.001 338.277L606.949 314.629L606.104 314.095ZM591.155 337.743L590.426 338.427C596.911 345.338 602.842 352.765 608.167 360.63L608.995 360.069L609.823 359.509C604.439 351.557 598.442 344.047 591.884 337.059L591.155 337.743ZM608.995 360.069L609.328 361.012L635.699 351.703L635.366 350.76L635.033 349.817L608.662 359.126L608.995 360.069ZM635.366 350.76L634.519 351.292C642.557 364.091 649.215 377.832 654.312 392.321L655.255 391.989L656.198 391.657C651.052 377.027 644.33 363.152 636.213 350.228L635.366 350.76ZM655.255 391.989L654.725 391.141L631.011 405.947L631.541 406.795L632.071 407.643L655.784 392.838L655.255 391.989ZM631.541 406.795L630.587 407.094C633.397 416.053 635.499 425.31 636.879 434.814L637.868 434.67L638.858 434.526C637.463 424.919 635.338 415.558 632.495 406.496L631.541 406.795ZM637.868 434.67L637.759 435.664L665.543 438.723L665.652 437.729L665.762 436.736L637.978 433.676L637.868 434.67ZM665.652 437.729L664.658 437.839C665.484 445.324 665.923 452.924 665.923 460.626L666.923 460.626L667.923 460.626C667.923 452.848 667.48 445.175 666.646 437.62L665.652 437.729ZM666.923 460.626H665.923C665.923 468.328 665.484 475.928 664.658 483.413L665.652 483.522L666.646 483.632C667.48 476.077 667.923 468.404 667.923 460.626H666.923ZM665.652 483.522L665.543 482.528L637.759 485.588L637.868 486.582L637.978 487.576L665.762 484.516L665.652 483.522ZM637.868 486.582L636.878 486.44C635.512 495.942 633.397 505.198 630.587 514.158L631.541 514.457L632.495 514.756C635.338 505.695 637.476 496.333 638.858 486.724L637.868 486.582ZM631.541 514.457L631.011 515.305L654.725 530.112L655.255 529.264L655.785 528.415L632.071 513.609L631.541 514.457ZM655.255 529.264L654.312 528.932C649.215 543.421 642.557 557.162 634.519 569.96L635.366 570.492L636.213 571.024C644.329 558.1 651.052 544.226 656.198 529.595L655.255 529.264ZM635.366 570.492L635.699 569.549L609.328 560.241L608.995 561.184L608.662 562.127L635.033 571.435L635.366 570.492ZM608.995 561.184L608.167 560.624C602.843 568.5 596.899 575.914 590.425 582.825L591.155 583.509L591.885 584.192C598.429 577.206 604.439 569.71 609.824 561.744L608.995 561.184ZM591.155 583.509L590.31 584.043L605.258 607.692L606.104 607.157L606.949 606.623L592.001 582.974L591.155 583.509ZM606.104 607.157L605.397 606.449C594.637 617.184 582.689 626.72 569.786 634.874L570.32 635.72L570.855 636.565C583.882 628.332 595.945 618.704 606.81 607.865L606.104 607.157ZM570.32 635.72L571.029 635.014L551.31 615.191L550.601 615.896L549.892 616.602L569.611 636.425L570.32 635.72ZM550.601 615.896L550.095 615.033C541.947 619.804 533.386 623.942 524.491 627.384L524.852 628.316L525.212 629.249C534.208 625.768 542.866 621.583 551.106 616.759L550.601 615.896ZM524.852 628.316L523.858 628.431L527.06 656.215L528.054 656.101L529.047 655.986L525.845 628.202L524.852 628.316ZM528.054 656.101L527.724 655.156C513.559 660.097 498.683 663.516 483.303 665.258L483.415 666.252L483.528 667.246C499.056 665.487 514.077 662.035 528.383 657.045L528.054 656.101ZM483.415 666.252L484.36 665.924L475.194 639.501L474.249 639.829L473.304 640.157L482.47 666.58L483.415 666.252ZM474.249 639.829L474.17 638.832C469.476 639.206 464.745 639.399 459.962 639.399L459.962 640.399L459.962 641.399C464.799 641.399 469.583 641.204 474.328 640.826L474.249 639.829ZM459.962 640.399V639.399C455.179 639.399 450.447 639.206 445.753 638.832L445.674 639.829L445.594 640.826C450.34 641.204 455.125 641.399 459.962 641.399V640.399ZM445.674 639.829L444.729 639.501L435.563 665.924L436.508 666.252L437.453 666.58L446.619 640.157L445.674 639.829ZM436.508 666.252L436.62 665.258C421.24 663.516 406.364 660.085 392.198 655.156L391.869 656.101L391.541 657.045C405.845 662.022 420.867 665.487 436.395 667.246L436.508 666.252ZM391.869 656.101L392.863 656.215L396.065 628.431L395.071 628.316L394.078 628.202L390.876 655.986L391.869 656.101ZM395.071 628.316L395.432 627.384C386.524 623.942 377.976 619.804 369.827 615.033L369.322 615.896L368.817 616.759C377.057 621.583 385.701 625.768 394.711 629.249L395.071 628.316ZM369.322 615.896L368.613 615.191L348.894 635.014L349.603 635.72L350.311 636.425L370.031 616.602L369.322 615.896ZM349.603 635.72L350.137 634.874C337.234 626.72 325.286 617.184 314.526 606.449L313.819 607.157L313.113 607.865C323.978 618.704 336.041 628.332 349.068 636.565L349.603 635.72ZM313.819 607.157L314.665 607.692L329.613 584.043L328.768 583.509L327.922 582.974L312.974 606.623L313.819 607.157ZM328.768 583.509L329.497 582.824C323.012 575.914 317.081 568.488 311.756 560.623L310.928 561.184L310.1 561.744C315.484 569.696 321.481 577.205 328.038 584.193L328.768 583.509ZM310.928 561.184L310.595 560.241L284.224 569.549L284.557 570.492L284.889 571.435L311.261 562.127L310.928 561.184ZM284.557 570.492L285.403 569.96C277.366 557.162 270.709 543.421 265.612 528.932L264.669 529.264L263.726 529.595C268.872 544.226 275.593 558.1 283.71 571.024L284.557 570.492ZM264.669 529.264L265.199 530.112L288.911 515.305L288.382 514.457L287.852 513.609L264.139 528.415L264.669 529.264ZM288.382 514.457L289.336 514.159C286.539 505.199 284.424 495.941 283.044 486.438L282.055 486.582L281.065 486.726C282.46 496.333 284.598 505.694 287.427 514.755L288.382 514.457ZM282.055 486.582L282.164 485.588L254.38 482.528L254.271 483.522L254.161 484.516L281.945 487.576L282.055 486.582ZM254.271 483.522L255.264 483.413C254.439 475.928 254 468.328 254 460.626H253H252C252 468.404 252.443 476.077 253.277 483.632L254.271 483.522ZM253 460.626L254 460.626C254 452.924 254.439 445.324 255.264 437.839L254.271 437.729L253.277 437.62C252.443 445.175 252 452.848 252 460.626L253 460.626ZM254.271 437.729L254.38 438.723L282.164 435.664L282.055 434.67L281.945 433.676L254.161 436.736L254.271 437.729ZM282.055 434.67L283.045 434.812C284.411 425.31 286.526 416.054 289.336 407.094L288.382 406.795L287.428 406.496C284.585 415.557 282.447 424.919 281.065 434.528L282.055 434.67ZM288.382 406.795L288.911 405.947L265.199 391.141L264.669 391.989L264.139 392.837L287.852 407.643L288.382 406.795ZM264.669 391.989L265.612 392.321C270.709 377.832 277.365 364.09 285.403 351.292L284.557 350.76L283.71 350.228C275.593 363.152 268.872 377.027 263.726 391.657L264.669 391.989ZM284.557 350.76L284.224 351.703L310.595 361.012L310.928 360.069L311.261 359.126L284.89 349.817L284.557 350.76ZM310.928 360.069L311.756 360.629C317.08 352.753 323.024 345.338 329.497 338.427L328.768 337.743L328.038 337.06C321.494 344.046 315.484 351.543 310.099 359.509L310.928 360.069ZM328.768 337.743L329.613 337.209L314.665 313.56L313.819 314.095L312.974 314.629L327.922 338.277L328.768 337.743ZM313.819 314.095L314.526 314.803C325.286 304.068 337.234 294.533 350.137 286.379L349.603 285.533L349.068 284.688C336.042 292.921 323.978 302.548 313.113 313.387L313.819 314.095ZM349.603 285.533L348.894 286.238L368.613 306.062L369.322 305.356L370.031 304.651L350.311 284.828L349.603 285.533ZM369.322 305.356L369.827 306.219C377.976 301.449 386.536 297.31 395.432 293.868L395.071 292.936L394.71 292.003C385.714 295.484 377.057 299.67 368.817 304.493L369.322 305.356ZM395.071 292.936L396.065 292.821L392.863 265.037L391.869 265.151L390.876 265.266L394.078 293.05L395.071 292.936ZM391.869 265.151L392.198 266.096C406.364 261.155 421.24 257.736 436.62 255.994L436.508 255L436.395 254.006C420.867 255.765 405.846 259.217 391.54 264.207L391.869 265.151ZM436.508 255L435.563 255.328L444.729 281.751L445.674 281.423L446.619 281.095L437.453 254.672L436.508 255ZM445.674 281.423L445.753 282.42C450.447 282.046 455.179 281.853 459.962 281.853V280.853V279.853C455.125 279.853 450.34 280.048 445.594 280.426L445.674 281.423ZM459.962 280.853L459.962 281.853C464.745 281.853 469.476 282.046 474.17 282.42L474.249 281.423L474.328 280.426C469.583 280.048 464.799 279.853 459.962 279.853L459.962 280.853ZM474.249 281.423L475.194 281.751L484.36 255.328L483.415 255L482.47 254.672L473.304 281.095L474.249 281.423ZM364.708 564.899L364.033 565.638C387.861 587.419 419.127 601.197 453.577 602.723L453.621 601.724L453.665 600.725C419.701 599.221 388.877 585.638 365.383 564.161L364.708 564.899ZM453.621 601.724H454.621V530.636H453.621H452.621V601.724H453.621ZM453.621 530.636L453.711 529.64C439.308 528.341 426.161 522.616 415.645 513.836L415.004 514.604L414.363 515.371C425.181 524.403 438.709 530.295 453.531 531.632L453.621 530.636ZM415.004 514.604L414.297 513.896L364.001 564.192L364.708 564.899L365.415 565.607L415.711 515.311L415.004 514.604ZM504.954 514.609L504.313 513.842C493.797 522.62 480.651 528.344 466.25 529.641L466.34 530.637L466.43 531.633C481.25 530.298 494.777 524.406 505.595 515.377L504.954 514.609ZM466.34 530.637H465.34V601.723H466.34H467.34V530.637H466.34ZM466.34 601.723L466.384 602.722C500.834 601.194 532.096 587.417 555.92 565.638L555.245 564.9L554.57 564.162C531.08 585.636 500.26 599.218 466.296 600.724L466.34 601.723ZM555.245 564.9L555.952 564.193L505.661 513.902L504.954 514.609L504.247 515.316L554.538 565.607L555.245 564.9ZM318.877 466.992L317.878 467.037C319.406 501.491 333.19 532.757 354.976 556.582L355.714 555.907L356.452 555.232C334.971 531.741 321.383 500.917 319.876 466.948L318.877 466.992ZM355.714 555.907L356.421 556.614L406.719 506.316L406.012 505.609L405.305 504.902L355.007 555.2L355.714 555.907ZM406.012 505.609L406.779 504.969C398.001 494.451 392.277 481.305 390.98 466.903L389.984 466.992L388.988 467.082C390.323 481.904 396.214 495.432 405.244 506.25L406.012 505.609ZM389.984 466.992V465.992H318.877V466.992V467.992H389.984V466.992ZM530.104 465.43L529.106 465.362C528.091 480.37 522.273 494.082 513.18 504.974L513.947 505.615L514.715 506.256C524.069 495.052 530.056 480.942 531.101 465.497L530.104 465.43ZM513.947 505.615L513.24 506.322L563.531 556.613L564.238 555.906L564.945 555.199L514.654 504.908L513.947 505.615ZM564.238 555.906L564.976 556.581C587.162 532.316 601.049 500.334 602.143 465.126L601.144 465.095L600.144 465.064C599.065 499.777 585.376 531.306 563.5 555.231L564.238 555.906ZM601.144 465.095L601.139 464.095L530.099 464.43L530.104 465.43L530.108 466.43L601.148 466.095L601.144 465.095ZM459.983 418.606V417.606C436.25 417.606 416.95 436.905 416.95 460.639L417.95 460.639L418.95 460.639C418.95 438.01 437.354 419.606 459.983 419.606V418.606ZM417.95 460.639H416.95C416.95 484.373 436.25 503.672 459.983 503.672V502.672V501.672C437.354 501.672 418.95 483.268 418.95 460.639H417.95ZM459.983 502.672L459.983 503.672C483.717 503.672 503.016 484.372 503.016 460.639H502.016H501.016C501.016 483.268 482.612 501.672 459.983 501.672L459.983 502.672ZM502.016 460.639L503.016 460.639C503.015 436.905 483.717 417.607 459.983 417.606L459.983 418.606L459.983 419.606C482.612 419.607 501.015 438.01 501.016 460.639L502.016 460.639ZM355.515 365.555L354.775 364.881C333.101 388.683 319.397 419.872 317.877 454.229L318.876 454.273L319.875 454.318C321.374 420.444 334.883 389.696 356.254 366.228L355.515 365.555ZM318.876 454.273V455.273H389.985V454.273V453.273H318.876V454.273ZM389.985 454.273L390.981 454.363C392.282 439.943 398.021 426.782 406.82 416.26L406.053 415.618L405.286 414.977C396.235 425.801 390.328 439.343 388.989 454.184L389.985 454.273ZM406.053 415.618L406.756 414.908L356.218 364.844L355.515 365.555L354.811 366.265L405.349 416.329L406.053 415.618ZM512.842 414.368L512.09 415.027C521.162 425.378 527.206 438.442 528.828 452.824L529.821 452.712L530.815 452.6C529.146 437.798 522.926 424.356 513.594 413.709L512.842 414.368ZM529.821 452.712L529.826 453.712L600.98 453.376L600.976 452.376L600.971 451.376L529.817 451.712L529.821 452.712ZM600.976 452.376L601.974 452.318C599.992 417.894 585.771 386.754 563.598 363.183L562.869 363.868L562.141 364.553C584.005 387.795 598.023 418.495 599.977 452.433L600.976 452.376ZM562.869 363.868L562.159 363.164L512.131 413.664L512.842 414.368L513.552 415.072L563.58 364.572L562.869 363.868ZM452.26 319.593L452.206 318.594C418.19 320.425 387.353 334.205 363.816 355.809L364.492 356.546L365.168 357.283C388.376 335.981 418.778 322.396 452.314 320.591L452.26 319.593ZM364.492 356.546L363.788 357.256L414.35 407.343L415.054 406.633L415.757 405.922L365.196 355.835L364.492 356.546ZM415.054 406.633L415.694 407.401C425.956 398.849 438.715 393.203 452.699 391.736L452.595 390.741L452.49 389.747C438.098 391.257 424.969 397.068 414.414 405.865L415.054 406.633ZM452.595 390.741L453.595 390.737L453.26 319.588L452.26 319.593L451.26 319.597L451.595 390.746L452.595 390.741ZM465.313 390.556L465.238 391.553C479.445 392.623 492.469 397.998 503.011 406.375L503.633 405.592L504.255 404.809C493.411 396.192 480.008 390.66 465.389 389.558L465.313 390.556ZM503.633 405.592L504.343 406.296L554.459 355.705L553.749 355.001L553.039 354.297L502.922 404.888L503.633 405.592ZM553.749 355.001L554.413 354.253C530.466 332.977 499.28 319.667 465.013 318.474L464.979 319.474L464.944 320.473C498.728 321.649 529.472 334.77 553.085 355.749L553.749 355.001ZM464.979 319.474L463.979 319.478L464.313 390.56L465.313 390.556L466.313 390.551L465.979 319.469L464.979 319.474Z" fill="#323232" mask="url(#path-1-inside-1_7004_50)"/>
</g>
<defs>
<clipPath id="clip0_7004_50">
<rect width="921" height="921" fill="white"/>
</clipPath>
</defs>
</svg>
