<svg width="81" height="23" viewBox="0 0 81 23" fill="none" xmlns="http://www.w3.org/2000/svg">
<path d="M41.6084 5.78271C42.0078 5.78271 42.3816 5.9824 42.3816 6.43639V13.4768C42.3816 14.011 41.9276 14.2772 41.4889 14.2772C41.1817 14.2772 40.8626 14.1168 40.6885 13.8898L36.6076 8.6364L36.6605 9.38396V13.5706C36.6605 14.0639 36.2611 14.2772 35.8737 14.2772C35.4607 14.2772 35.0732 14.0639 35.0732 13.5706V6.59683C35.0732 6.06432 35.4607 5.78271 35.8874 5.78271C36.2202 5.78271 36.4472 5.91584 36.6605 6.18209L40.8472 11.6232L40.7943 10.7289V6.4347C40.7943 6.00801 41.2073 5.78101 41.6084 5.78101" fill="white"/>
<path d="M50.9195 8.23267V13.5936C50.9195 14.0339 50.5201 14.2729 50.16 14.2729C49.7726 14.2729 49.4005 14.0322 49.4005 13.5799V13.527C48.6666 14.2336 47.8542 14.4077 47.1732 14.4077C45.3196 14.4077 44.2393 13.1549 44.2393 11.1683V8.23437C44.2393 7.82133 44.5192 7.48682 44.9988 7.48682C45.4528 7.48682 45.7583 7.81962 45.7583 8.23437V11.1956C45.7583 12.3562 46.2652 13.0764 47.3985 13.0764C48.0777 13.0764 49.3988 12.3425 49.3988 10.7826V8.23607C49.3988 7.80939 49.6514 7.48851 50.1463 7.48851C50.6123 7.48851 50.9195 7.80939 50.9195 8.23607" fill="white"/>
<path d="M56.4604 8.13879C56.4604 8.56548 56.1531 8.83344 55.6735 8.83344C54.5539 8.83344 54.1545 9.68681 54.1545 11.0608V13.5953C54.1545 13.9947 53.8217 14.2746 53.4206 14.2746C52.953 14.2746 52.6475 13.9947 52.6475 13.5953V8.16781C52.6475 7.74112 53.0468 7.48682 53.4206 7.48682C53.7944 7.48682 54.1545 7.72747 54.1545 8.16781V8.24802C54.542 7.72746 55.0608 7.48851 55.6735 7.48851C56.1549 7.48851 56.4604 7.68821 56.4604 8.1422" fill="white"/>
<path d="M63.4759 8.17495V13.5751C63.4759 13.9882 63.1687 14.2681 62.7164 14.2681C62.2641 14.2681 62.0234 14.0411 61.9688 13.7083C61.3561 14.1878 60.5556 14.4012 59.8883 14.4012C57.9545 14.4012 56.7803 13.0016 56.7803 10.8545C56.7803 8.70745 58.1013 7.34717 60.0607 7.34717C60.6341 7.34717 61.38 7.56052 61.9671 8.01452C62.0337 7.69365 62.288 7.48201 62.7147 7.48201C63.1687 7.48201 63.4742 7.76192 63.4742 8.17495M61.9534 12.0288V9.72297C61.6206 9.06928 60.8594 8.69551 60.1665 8.69551C59.0468 8.69551 58.2993 9.60179 58.2993 10.8682C58.2993 12.1346 58.9939 13.0546 60.0453 13.0546C60.8321 13.0546 61.6462 12.7081 61.9517 12.0271" fill="white"/>
<path d="M76.8974 10.5781V13.5785C76.8974 13.9916 76.6312 14.2715 76.1379 14.2715C75.6856 14.2715 75.3784 13.9916 75.3784 13.5785V10.5508C75.3784 9.44477 74.8715 8.68356 73.7519 8.68356C72.8985 8.68356 71.7242 9.50963 71.7242 10.9638V13.5768C71.7242 13.9899 71.458 14.2698 70.9784 14.2698C70.5244 14.2698 70.2053 13.9899 70.2053 13.5768V10.549C70.2053 9.44307 69.6983 8.68185 68.5787 8.68185C67.8994 8.68185 66.6057 9.40211 66.6057 10.9621V13.6024C66.6057 14.0564 66.22 14.2698 65.8462 14.2698C65.4724 14.2698 65.0986 14.0564 65.0986 13.6024V8.16129C65.0986 7.78751 65.4315 7.48201 65.8462 7.48201C66.3002 7.48201 66.6057 7.78922 66.6057 8.16129V8.20055C67.3259 7.5076 68.1264 7.34717 68.8057 7.34717C69.9253 7.34717 70.7531 7.82677 71.2327 8.61359C72.0468 7.59978 73.1528 7.34717 73.9669 7.34717C75.8205 7.34717 76.9009 8.6665 76.9009 10.5746" fill="white"/>
<path d="M79.321 6.70164C78.9216 6.70164 78.5479 6.4883 78.5479 6.0343V5.86021C78.5479 5.40621 78.9216 5.19287 79.321 5.19287C79.6948 5.19287 80.0942 5.40621 80.0942 5.86021V6.0343C80.0942 6.4883 79.6948 6.70164 79.321 6.70164ZM79.321 7.47993C79.6948 7.47993 80.0805 7.70693 80.0805 8.11996V13.614C80.0805 14.0543 79.6948 14.2677 79.321 14.2677C78.9472 14.2677 78.5615 14.0543 78.5615 13.614V8.13361C78.5615 7.70692 78.9609 7.47993 79.321 7.47993Z" fill="white"/>
<path d="M22.8388 0.597412C25.4245 0.597412 27.6318 2.59771 27.8144 5.25171C27.997 7.92444 25.9949 10.2901 23.329 10.5564C23.1499 10.5752 22.9706 10.5818 22.7949 10.5818C21.2981 10.5715 19.8851 11.2664 19.0351 12.4968L18.9335 12.6433C18.0717 13.8909 17.8057 15.4597 18.2187 16.9207C18.2852 17.1509 18.3298 17.3899 18.3554 17.6355C18.5909 19.9686 16.8445 22.0466 14.4824 22.1951C12.3321 22.3314 10.4105 20.7609 10.1152 18.6277C10.0742 18.329 10.0654 18.0336 10.0859 17.7468C10.1968 16.2313 9.62875 14.7432 8.53314 13.6902L8.40326 13.5671C8.37255 13.5364 8.33704 13.5122 8.30463 13.4832C8.30757 13.4801 8.31139 13.4748 8.31244 13.4734L8.29779 13.4578C7.42052 12.6146 6.18271 12.2909 4.9931 12.5417C4.8533 12.5707 4.71003 12.5928 4.56342 12.6082C2.39597 12.8283 0.417719 11.2699 0.130798 9.11108C-0.178121 6.78651 1.53697 4.68635 3.87689 4.52417C6.01872 4.37569 7.92706 5.95809 8.18158 8.0896C8.22766 8.48215 8.21763 8.86865 8.15619 9.23901C7.95662 10.437 8.55021 11.4609 9.41888 12.3074C9.43083 12.3193 9.44307 12.3328 9.45502 12.3464L9.53119 12.4197C9.54816 12.4366 9.56887 12.4506 9.58588 12.4675C9.58417 12.4709 9.57709 12.4763 9.57709 12.4763L9.64056 12.5378C10.7447 13.5994 12.2638 14.0895 13.7861 13.9275C13.7946 13.9258 13.8017 13.9255 13.8085 13.9255C13.8154 13.9238 13.8242 13.9216 13.831 13.9216C15.3549 13.7782 16.7457 12.9954 17.6161 11.7361L17.7001 11.616C18.5585 10.3718 18.7118 8.78811 18.1708 7.37671C18.0053 6.94667 17.8976 6.48244 17.8583 5.9978C17.6484 3.44665 19.436 1.13822 21.9296 0.681396L22.1738 0.641357C22.3971 0.610686 22.6188 0.597422 22.8388 0.597412ZM24.1747 13.4871C25.772 13.4872 27.0663 14.7824 27.0663 16.3796C27.0663 17.9769 25.772 19.2721 24.1747 19.2722C22.5774 19.2722 21.2822 17.977 21.2822 16.3796C21.2822 14.7823 22.5774 13.4871 24.1747 13.4871Z" fill="url(#paint0_linear_5202_36)"/>
<defs>
<linearGradient id="paint0_linear_5202_36" x1="13.9602" y1="0.597412" x2="13.9602" y2="22.2033" gradientUnits="userSpaceOnUse">
<stop stop-color="#39C3FF"/>
<stop offset="0.500385" stop-color="#0E8EE2"/>
<stop offset="1" stop-color="#2350B0"/>
</linearGradient>
</defs>
</svg>
