<svg width="81" height="23" viewBox="0 0 81 23" fill="none" xmlns="http://www.w3.org/2000/svg">
<path d="M41.6084 5.78284C42.0078 5.78284 42.3816 5.98252 42.3816 6.43652V13.4769C42.3816 14.0111 41.9276 14.2774 41.4889 14.2774C41.1817 14.2774 40.8626 14.1169 40.6885 13.8899L36.6076 8.63653L36.6605 9.38409V13.5708C36.6605 14.064 36.2611 14.2774 35.8737 14.2774C35.4607 14.2774 35.0732 14.064 35.0732 13.5708V6.59695C35.0732 6.06444 35.4607 5.78284 35.8874 5.78284C36.2202 5.78284 36.4472 5.91596 36.6605 6.18221L40.8472 11.6233L40.7943 10.729V6.43482C40.7943 6.00813 41.2073 5.78113 41.6084 5.78113" fill="#585858"/>
<path d="M50.9195 8.23279V13.5937C50.9195 14.034 50.5201 14.273 50.16 14.273C49.7726 14.273 49.4005 14.0323 49.4005 13.58V13.5271C48.6666 14.2337 47.8542 14.4078 47.1732 14.4078C45.3196 14.4078 44.2393 13.1551 44.2393 11.1684V8.23449C44.2393 7.82145 44.5192 7.48694 44.9988 7.48694C45.4528 7.48694 45.7583 7.81975 45.7583 8.23449V11.1957C45.7583 12.3563 46.2652 13.0766 47.3985 13.0766C48.0777 13.0766 49.3988 12.3427 49.3988 10.7827V8.2362C49.3988 7.80951 49.6514 7.48864 50.1463 7.48864C50.6123 7.48864 50.9195 7.80951 50.9195 8.2362" fill="#585858"/>
<path d="M56.4604 8.13891C56.4604 8.5656 56.1531 8.83356 55.6735 8.83356C54.5539 8.83356 54.1545 9.68694 54.1545 11.0609V13.5954C54.1545 13.9948 53.8217 14.2747 53.4206 14.2747C52.953 14.2747 52.6475 13.9948 52.6475 13.5954V8.16793C52.6475 7.74124 53.0468 7.48694 53.4206 7.48694C53.7944 7.48694 54.1545 7.72759 54.1545 8.16793V8.24814C54.542 7.72758 55.0608 7.48864 55.6735 7.48864C56.1549 7.48864 56.4604 7.68833 56.4604 8.14233" fill="#585858"/>
<path d="M63.4759 8.17507V13.5752C63.4759 13.9883 63.1687 14.2682 62.7164 14.2682C62.2641 14.2682 62.0234 14.0412 61.9688 13.7084C61.3561 14.188 60.5556 14.4013 59.8883 14.4013C57.9545 14.4013 56.7803 13.0018 56.7803 10.8547C56.7803 8.70757 58.1013 7.34729 60.0607 7.34729C60.6341 7.34729 61.38 7.56064 61.9671 8.01464C62.0337 7.69377 62.288 7.48213 62.7147 7.48213C63.1687 7.48213 63.4742 7.76204 63.4742 8.17507M61.9534 12.0289V9.72309C61.6206 9.0694 60.8594 8.69563 60.1665 8.69563C59.0468 8.69563 58.2993 9.60192 58.2993 10.8683C58.2993 12.1347 58.9939 13.0547 60.0453 13.0547C60.8321 13.0547 61.6462 12.7082 61.9517 12.0272" fill="#585858"/>
<path d="M76.8974 10.5782V13.5787C76.8974 13.9917 76.6312 14.2716 76.1379 14.2716C75.6856 14.2716 75.3784 13.9917 75.3784 13.5787V10.5509C75.3784 9.4449 74.8715 8.68368 73.7519 8.68368C72.8985 8.68368 71.7242 9.50975 71.7242 10.9639V13.5769C71.7242 13.99 71.458 14.2699 70.9784 14.2699C70.5244 14.2699 70.2053 13.99 70.2053 13.5769V10.5492C70.2053 9.44319 69.6983 8.68197 68.5787 8.68197C67.8994 8.68197 66.6057 9.40223 66.6057 10.9622V13.6026C66.6057 14.0566 66.22 14.2699 65.8462 14.2699C65.4724 14.2699 65.0986 14.0566 65.0986 13.6026V8.16142C65.0986 7.78764 65.4315 7.48213 65.8462 7.48213C66.3002 7.48213 66.6057 7.78934 66.6057 8.16142V8.20067C67.3259 7.50773 68.1264 7.34729 68.8057 7.34729C69.9253 7.34729 70.7531 7.8269 71.2327 8.61371C72.0468 7.5999 73.1528 7.34729 73.9669 7.34729C75.8205 7.34729 76.9009 8.66662 76.9009 10.5748" fill="#585858"/>
<path d="M79.321 6.70176C78.9216 6.70176 78.5479 6.48842 78.5479 6.03442V5.86033C78.5479 5.40633 78.9216 5.19299 79.321 5.19299C79.6948 5.19299 80.0942 5.40633 80.0942 5.86033V6.03442C80.0942 6.48842 79.6948 6.70176 79.321 6.70176ZM79.321 7.48005C79.6948 7.48005 80.0805 7.70705 80.0805 8.12008V13.6141C80.0805 14.0545 79.6948 14.2678 79.321 14.2678C78.9472 14.2678 78.5615 14.0545 78.5615 13.6141V8.13373C78.5615 7.70704 78.9609 7.48005 79.321 7.48005Z" fill="#585858"/>
<mask id="mask0_5202_88" style="mask-type:luminance" maskUnits="userSpaceOnUse" x="0" y="0" width="28" height="23">
<path d="M22.1734 0.643493C19.5535 0.989964 17.642 3.36406 17.8587 5.99758C17.898 6.4823 18.0055 6.94654 18.1711 7.37665C18.7121 8.78813 18.5585 10.372 17.7 11.6162L17.6164 11.7357C16.7459 12.9953 15.3549 13.7787 13.8308 13.922C13.824 13.922 13.8154 13.9238 13.8086 13.9255C13.8018 13.9255 13.795 13.9255 13.7864 13.9272C12.264 14.0893 10.745 13.5995 9.64071 12.5379L9.57756 12.4764C9.57756 12.4764 9.58439 12.4713 9.58609 12.4679C9.56903 12.4508 9.54855 12.4372 9.53149 12.4201L9.45468 12.3467C9.44273 12.3331 9.43078 12.3194 9.41883 12.3075C8.5501 11.4609 7.95614 10.4369 8.15583 9.23871C8.21727 8.86835 8.22752 8.48262 8.18144 8.09007C7.92713 5.95833 6.01898 4.37617 3.877 4.52465C1.53704 4.6868 -0.17825 6.7861 0.130673 9.1107C0.417408 11.2698 2.39553 12.828 4.56311 12.6078C4.70989 12.5925 4.85326 12.5703 4.99322 12.5413C6.18283 12.2904 7.42022 12.6147 8.29749 13.4578L8.31286 13.4732C8.31286 13.4732 8.30774 13.48 8.30433 13.4834C8.33676 13.5124 8.37259 13.5363 8.40331 13.567L8.53303 13.6899C9.62877 14.743 10.1971 16.2313 10.0862 17.7469C10.0657 18.0336 10.0742 18.3289 10.1152 18.6276C10.4105 20.761 12.3323 22.3312 14.4828 22.1947C16.8449 22.0462 18.5909 19.9691 18.3554 17.636C18.3298 17.3902 18.2854 17.1512 18.2189 16.9208C17.8058 15.4598 18.0721 13.8913 18.934 12.6437L19.0347 12.4969C19.8847 11.2663 21.2979 10.5717 22.7947 10.5819C22.9705 10.5819 23.1497 10.5751 23.3289 10.5563C25.9948 10.2901 27.9969 7.92451 27.8143 5.25173C27.6316 2.59773 25.4248 0.597412 22.8391 0.597412C22.6189 0.597412 22.397 0.611063 22.1734 0.641784" fill="white"/>
</mask>
<g mask="url(#mask0_5202_88)">
<path d="M7.25527 -11.8196L-9.75885 16.5977L20.5606 34.7507L37.5747 6.3334L7.25527 -11.8196Z" fill="#585858"/>
</g>
<circle cx="24.1744" cy="16.3797" r="2.89228" fill="#585858"/>
</svg>
