<svg width="82" height="18" viewBox="0 0 82 18" fill="none" xmlns="http://www.w3.org/2000/svg">
<path d="M82.0006 9.49246H75.659C75.7602 10.9038 76.6495 11.6095 78.3266 11.6095C79.3962 11.6095 80.3361 11.3564 81.1462 10.85V13.0146C80.2475 13.4956 79.0798 13.7361 77.6431 13.7361C76.0735 13.7361 74.8552 13.3025 73.9881 12.4354C73.121 11.562 72.6875 10.3469 72.6875 8.78994C72.6875 7.17605 73.1558 5.89759 74.0925 4.95457C75.0292 4.01155 76.1811 3.54004 77.5482 3.54004C78.9659 3.54004 80.0608 3.96092 80.8329 4.80267C81.6114 5.64443 82.0006 6.78682 82.0006 8.22983V9.49246ZM79.219 7.65072C79.219 6.25834 78.6557 5.56215 77.5292 5.56215C77.0482 5.56215 76.6305 5.76152 76.276 6.16024C75.9279 6.55897 75.7159 7.0558 75.64 7.65072H79.219Z" fill="#585858"/>
<path d="M70.9823 13.3905C70.5393 13.6246 69.8716 13.7417 68.9792 13.7417C66.8653 13.7417 65.8083 12.6436 65.8083 10.4475V5.99503H64.2324V3.78304H65.8083V1.68498L68.7988 0.830566V3.78304H70.9823V5.99503H68.7988V9.92534C68.7988 10.938 69.2007 11.4443 70.0045 11.4443C70.3209 11.4443 70.6469 11.3525 70.9823 11.169V13.3905Z" fill="#585858"/>
<path d="M62.7428 9.49246H56.4012C56.5024 10.9038 57.3916 11.6095 59.0688 11.6095C60.1384 11.6095 61.0783 11.3564 61.8884 10.85V13.0146C60.9897 13.4956 59.822 13.7361 58.3853 13.7361C56.8157 13.7361 55.5974 13.3025 54.7303 12.4354C53.8632 11.562 53.4297 10.3469 53.4297 8.78994C53.4297 7.17605 53.898 5.89759 54.8347 4.95457C55.7714 4.01155 56.9233 3.54004 58.2904 3.54004C59.7081 3.54004 60.803 3.96092 61.5751 4.80267C62.3536 5.64443 62.7428 6.78682 62.7428 8.22983V9.49246ZM59.9612 7.65072C59.9612 6.25834 59.3979 5.56215 58.2714 5.56215C57.7904 5.56215 57.3727 5.76152 57.0182 6.16024C56.6701 6.55897 56.4581 7.0558 56.3822 7.65072H59.9612Z" fill="#585858"/>
<path d="M44.4071 12.369H44.3691V17.9702H41.3691V3.77738H44.3691V5.23938H44.4071C45.1476 4.10648 46.1887 3.54004 47.5304 3.54004C48.7899 3.54004 49.7614 3.97358 50.4449 4.84065C51.1348 5.70139 51.4797 6.87542 51.4797 8.36274C51.4797 9.98296 51.0778 11.2836 50.274 12.2646C49.4766 13.2456 48.4133 13.7361 47.0842 13.7361C45.9134 13.7361 45.021 13.2804 44.4071 12.369ZM44.3216 8.38172V9.16019C44.3216 9.83106 44.4988 10.3785 44.8533 10.8026C45.2077 11.2266 45.6729 11.4386 46.2488 11.4386C46.9323 11.4386 47.4608 11.176 47.8342 10.6507C48.214 10.119 48.4038 9.36905 48.4038 8.40071C48.4038 6.69188 47.7393 5.83747 46.4102 5.83747C45.7963 5.83747 45.2931 6.07164 44.9007 6.53998C44.5147 7.002 44.3216 7.61591 44.3216 8.38172Z" fill="#585858"/>
<path d="M38.411 13.4987H35.4206V7.95452C35.4206 6.54315 34.9016 5.83747 33.8637 5.83747C33.37 5.83747 32.9681 6.04949 32.658 6.47353C32.3479 6.89757 32.1928 7.42604 32.1928 8.05894V13.4987H29.1929V7.89755C29.1929 6.52416 28.6834 5.83747 27.6644 5.83747C27.1517 5.83747 26.7404 6.03999 26.4302 6.44505C26.1265 6.85011 25.9746 7.40073 25.9746 8.09692V13.4987H22.9746V3.77738H25.9746V5.29634H26.0125C26.3226 4.77736 26.7562 4.35648 27.3131 4.0337C27.8764 3.70459 28.4903 3.54004 29.1549 3.54004C30.5283 3.54004 31.4681 4.14446 31.9744 5.3533C32.7149 4.14446 33.8035 3.54004 35.2402 3.54004C37.3541 3.54004 38.411 4.84381 38.411 7.45136V13.4987Z" fill="#585858"/>
<path d="M15.1416 13.7361C13.5213 13.7361 12.246 13.2835 11.3157 12.3785C10.3916 11.4671 9.92963 10.233 9.92963 8.67602C9.92963 7.06846 10.4106 5.81215 11.3726 4.9071C12.3346 3.99573 13.6353 3.54004 15.2745 3.54004C16.8884 3.54004 18.1542 3.99573 19.0719 4.9071C19.9896 5.81215 20.4484 7.0115 20.4484 8.50514C20.4484 10.119 19.9737 11.3943 19.0244 12.331C18.0814 13.2677 16.7871 13.7361 15.1416 13.7361ZM15.2175 5.83747C14.5087 5.83747 13.958 6.08113 13.5656 6.56846C13.1732 7.0558 12.977 7.74566 12.977 8.63805C12.977 10.5051 13.7302 11.4386 15.2365 11.4386C16.6732 11.4386 17.3915 10.4798 17.3915 8.5621C17.3915 6.74568 16.6668 5.83747 15.2175 5.83747Z" fill="#585858"/>
<path d="M7.94606 13.1475C7.26886 13.5399 6.29103 13.7361 5.01257 13.7361C3.51892 13.7361 2.31008 13.2835 1.38605 12.3785C0.462017 11.4734 0 10.3057 0 8.87539C0 7.22352 0.493662 5.92291 1.48099 4.97356C2.47464 4.01788 3.80056 3.54004 5.45876 3.54004C6.60431 3.54004 7.43341 3.69194 7.94606 3.99573V6.53998C7.31949 6.07164 6.62013 5.83747 5.848 5.83747C4.98725 5.83747 4.30372 6.09063 3.7974 6.59695C3.29741 7.09694 3.04741 7.78996 3.04741 8.67602C3.04741 9.53677 3.28792 10.214 3.76892 10.7076C4.24992 11.195 4.9113 11.4386 5.75306 11.4386C6.49988 11.4386 7.23088 11.2045 7.94606 10.7361V13.1475Z" fill="#585858"/>
</svg>
