<svg width="81" height="19" viewBox="0 0 81 19" fill="none" xmlns="http://www.w3.org/2000/svg">
<g clip-path="url(#clip0_5202_14)">
<path d="M17.9817 0.400269H6.96094V4.80745H17.9817V0.400269Z" fill="white"/>
<path d="M11.0208 13.9159H0V18.3231H11.0208V13.9159Z" fill="white"/>
<path d="M4.35032 0.400269H0V4.80745H4.35032V0.400269Z" fill="white"/>
<path d="M17.9813 13.9159H13.631V18.3231H17.9813V13.9159Z" fill="white"/>
<path d="M8.93587 11.8587C10.2974 11.8587 11.401 10.7406 11.401 9.36129C11.401 7.98201 10.2974 6.86389 8.93587 6.86389C7.57439 6.86389 6.4707 7.98201 6.4707 9.36129C6.4707 10.7406 7.57439 11.8587 8.93587 11.8587Z" fill="#F4A72B"/>
<path d="M4.35032 7.15784H0V11.565H4.35032V7.15784Z" fill="white"/>
<path d="M17.9813 7.15784H13.631V11.565H17.9813V7.15784Z" fill="white"/>
<path d="M29.0794 14.6754C28.2248 14.6754 27.4582 14.5226 26.7795 14.2171C26.1009 13.8988 25.5605 13.4722 25.1583 12.9375C24.7687 12.4028 24.5551 11.8107 24.5173 11.1614H27.1754C27.2257 11.5688 27.4205 11.9062 27.7598 12.1736C28.1116 12.441 28.5452 12.5747 29.0605 12.5747C29.5632 12.5747 29.9528 12.4728 30.2293 12.2691C30.5183 12.0654 30.6629 11.8044 30.6629 11.4861C30.6629 11.1423 30.4869 10.8877 30.135 10.7221C29.7957 10.5439 29.249 10.3529 28.495 10.1492C27.7158 9.95825 27.0748 9.76089 26.5721 9.55717C26.082 9.3535 25.6547 9.04157 25.2902 8.62138C24.9384 8.20124 24.7624 7.63466 24.7624 6.9217C24.7624 6.33602 24.9258 5.80131 25.2526 5.31748C25.5919 4.83367 26.0695 4.45172 26.6853 4.17162C27.3136 3.89152 28.0488 3.75146 28.8909 3.75146C30.135 3.75146 31.1279 4.06976 31.8694 4.70635C32.6109 5.33021 33.0193 6.17687 33.0947 7.24634H30.5686C30.5309 6.8262 30.355 6.49516 30.0408 6.25327C29.7392 5.99862 29.3307 5.8713 28.8155 5.8713C28.3379 5.8713 27.9672 5.96045 27.7032 6.1387C27.4519 6.31696 27.3262 6.5652 27.3262 6.88348C27.3262 7.23999 27.5022 7.51375 27.854 7.7047C28.2059 7.88296 28.7526 8.06756 29.4941 8.25852C30.2482 8.44953 30.8702 8.64685 31.3604 8.85056C31.8505 9.05428 32.2715 9.37256 32.6234 9.80546C32.9879 10.2256 33.1764 10.7858 33.189 11.4861C33.189 12.0972 33.0193 12.6446 32.68 13.1285C32.3532 13.6123 31.8756 13.9942 31.2473 14.2743C30.6315 14.5417 29.9089 14.6754 29.0794 14.6754Z" fill="white"/>
<path d="M44.309 8.98436C44.309 9.36633 44.2839 9.71008 44.2336 10.0157H36.5988C36.6616 10.7796 36.9255 11.378 37.3906 11.8108C37.8555 12.2437 38.4274 12.4602 39.106 12.4602C40.0863 12.4602 40.7838 12.0337 41.1985 11.1806H44.045C43.7435 12.1992 43.1653 13.0395 42.3108 13.7015C41.4561 14.3508 40.4067 14.6755 39.1626 14.6755C38.1572 14.6755 37.2523 14.4527 36.448 14.0071C35.6562 13.5487 35.0341 12.9058 34.5817 12.0782C34.1418 11.2507 33.9219 10.2958 33.9219 9.21354C33.9219 8.11861 34.1418 7.15736 34.5817 6.32978C35.0215 5.50221 35.6373 4.86562 36.4291 4.42001C37.2209 3.9744 38.132 3.75159 39.1626 3.75159C40.1554 3.75159 41.0414 3.96803 41.8206 4.40091C42.6124 4.83379 43.2219 5.45129 43.6492 6.25339C44.089 7.0428 44.309 7.95312 44.309 8.98436ZM41.5755 8.22047C41.563 7.53293 41.3179 6.98546 40.8403 6.57808C40.3628 6.15788 39.7784 5.94781 39.0872 5.94781C38.4336 5.94781 37.8807 6.15153 37.4282 6.55897C36.9884 6.95364 36.7182 7.50746 36.6176 8.22047H41.5755Z" fill="white"/>
<path d="M51.2698 3.77063C52.5138 3.77063 53.5193 4.17169 54.2859 4.97379C55.0525 5.76316 55.4361 6.87084 55.4361 8.29681V14.5036H52.7966V8.65967C52.7966 7.81934 52.5896 7.17642 52.1746 6.73076C51.7599 6.27245 51.1944 6.04327 50.478 6.04327C49.7491 6.04327 49.171 6.27245 48.7437 6.73076C48.329 7.17642 48.1216 7.81934 48.1216 8.65967V14.5036H45.4824V3.92341H48.1216V5.24116C48.4735 4.78281 48.9196 4.42632 49.46 4.17169C50.013 3.90432 50.6163 3.77063 51.2698 3.77063Z" fill="white"/>
<path d="M60.2634 6.11965V11.2378C60.2634 11.5943 60.3455 11.8553 60.5085 12.0208C60.6846 12.1736 60.9736 12.25 61.376 12.25H62.6009V14.5036H60.9423C58.7176 14.5036 57.6056 13.4086 57.6056 11.2187V6.11965H56.3613V3.9234H57.6056V1.30701H60.2634V3.9234H62.6009V6.11965H60.2634Z" fill="white"/>
<path d="M66.385 5.56582C66.7247 5.00562 67.1642 4.56637 67.7045 4.24807C68.2579 3.92978 68.8861 3.77063 69.59 3.77063V6.57803H68.8923C68.063 6.57803 67.4343 6.77534 67.0074 7.17001C66.5925 7.56474 66.385 8.25224 66.385 9.2326V14.5036H63.746V3.92341H66.385V5.56582Z" fill="white"/>
<path d="M69.9355 9.17537C69.9355 8.10586 70.143 7.15736 70.5574 6.32978C70.9849 5.50221 71.5566 4.86562 72.273 4.42001C73.002 3.9744 73.8126 3.75159 74.7046 3.75159C75.4838 3.75159 76.1626 3.91073 76.7406 4.22903C77.3316 4.54733 77.8025 4.94838 78.1547 5.43219V3.92347H80.8125V14.5036H78.1547V12.9567C77.8155 13.4533 77.3442 13.867 76.7406 14.1981C76.1501 14.5164 75.465 14.6755 74.6858 14.6755C73.8063 14.6755 73.002 14.4464 72.273 13.988C71.5566 13.5297 70.9849 12.8867 70.5574 12.0591C70.143 11.2188 69.9355 10.2575 69.9355 9.17537ZM78.1547 9.21354C78.1547 8.56422 78.0288 8.0104 77.7774 7.55204C77.526 7.08097 77.1869 6.72446 76.7594 6.48257C76.3325 6.22793 75.8736 6.1006 75.3835 6.1006C74.8933 6.1006 74.4407 6.22157 74.0263 6.46346C73.6114 6.7054 73.2722 7.06186 73.0083 7.53293C72.757 7.99129 72.631 8.53876 72.631 9.17537C72.631 9.81194 72.757 10.3722 73.0083 10.8559C73.2722 11.3271 73.6114 11.6899 74.0263 11.9445C74.4533 12.1992 74.9058 12.3265 75.3835 12.3265C75.8736 12.3265 76.3325 12.2055 76.7594 11.9636C77.1869 11.709 77.526 11.3525 77.7774 10.8942C78.0288 10.4231 78.1547 9.86287 78.1547 9.21354Z" fill="white"/>
</g>
<defs>
<clipPath id="clip0_5202_14">
<rect width="81" height="18" fill="white" transform="translate(0 0.400269)"/>
</clipPath>
</defs>
</svg>
