<svg width="63" height="25" viewBox="0 0 63 25" fill="none" xmlns="http://www.w3.org/2000/svg">
<path d="M7.0442 11.1794C7.4475 10.8346 7.8392 10.4772 8.22561 10.125C9.84029 8.6433 11.3784 7.08048 12.834 5.44262C14.6859 3.3223 15.1567 2.36599 14.7133 1.64691C14.4145 1.16929 13.0104 0 12.1288 0C11.6917 0 11.0371 1.03222 11.0371 1.03222C9.9444 2.98806 7.75578 5.6925 5.54711 7.87714C6.094 5.87385 6.63983 4.32289 7.07692 3.55426L7.10121 3.51314L7.12021 3.46885C7.13077 3.44355 7.47917 2.80355 7.47917 2.55261C7.47917 1.25996 4.88303 0.723291 4.52301 0.723291C3.71218 0.723291 3.25609 1.56678 2.7282 3.03656C2.24836 4.44079 1.84309 5.86933 1.51406 7.31622C0.858429 10.0871 0.0940552 14.1875 0.0940552 16.6231C0.0940552 17.8261 1.70833 18.5631 2.58779 18.5631C3.26982 18.5631 3.72801 18.1055 3.72801 17.4244C3.72801 16.7433 3.91595 15.3652 4.23479 13.6477C5.43203 15.2861 6.46668 17.2325 7.8698 18.1983C11.0371 20.3829 13.9648 18.2183 13.9648 18.2183C13.8444 17.9727 10.8714 17.6047 7.0442 11.1794Z" fill="white"/>
<path d="M60.686 5.34758C60.3292 5.29027 59.9692 5.25506 59.608 5.24214C59.1276 5.23975 58.6502 5.31926 58.1965 5.47726C57.5299 5.71274 57.1182 6.12394 56.9612 6.71087C56.8697 7.28585 56.7585 7.87313 56.6276 8.47271C56.4446 9.28246 56.0691 10.3491 55.5011 11.6727C54.9852 12.8958 54.3756 14.0774 53.6778 15.2069C53.0302 16.2381 52.4781 16.7537 52.0213 16.7537C51.7855 16.7537 51.6679 16.5185 51.6686 16.0483C51.674 15.7859 51.7001 15.5243 51.7468 15.266C51.9533 14.1767 52.2384 13.1037 52.5998 12.0554C53.0116 10.8155 53.4656 9.64059 53.9618 8.5307C54.458 7.4208 54.8958 6.59875 55.2752 6.06454C54.8086 5.74008 54.2827 5.51044 53.7274 5.3887C53.2709 5.27869 52.8042 5.21649 52.3348 5.20313C51.9991 5.20274 51.6642 5.23559 51.335 5.30119C51.0211 5.35618 50.7246 5.48407 50.4693 5.67454C50.214 5.86501 50.0072 6.11273 49.8654 6.39772C49.3554 7.59211 48.9231 8.81806 48.571 10.068C48.1797 11.4323 47.9576 12.4962 47.9048 13.2595C47.852 14.0229 47.826 14.5219 47.8267 14.7567C47.8267 15.7485 47.99 16.6032 48.3166 17.3209C48.722 18.1644 49.4251 18.7253 50.482 18.8529C50.5136 18.8529 51.9822 19.0986 53.342 18.2203C53.7399 17.9528 54.1071 17.6423 54.4369 17.2946C54.3028 17.6826 53.607 19.5203 53.3389 20.0359C51.3002 23.9708 47.4624 22.2037 46.5281 21.0776C46.3275 21.8505 47.6493 24.2407 50.0449 24.7036C51.3561 24.9587 52.9176 24.6899 53.8699 24.1416C55.0313 23.4721 56.0226 22.0961 56.5009 21.3676C57.5264 19.8008 58.402 17.9507 59.1277 15.8174C59.8533 13.6841 60.4773 11.6579 60.9995 9.739C61.4036 8.23759 61.7696 7.01066 62.0976 6.05822C61.7102 5.68371 61.2178 5.43585 60.686 5.34758Z" fill="white"/>
<path d="M26.8534 19.4281C26.7643 19.4284 26.6785 19.4619 26.6127 19.522C25.8811 20.1767 24.4188 21.2743 22.8447 21.2743C21.7108 21.2743 20.7331 20.6871 19.9286 19.5294C19.8992 19.4843 19.859 19.4473 19.8116 19.4217C19.7642 19.3961 19.7112 19.3827 19.6573 19.3828C19.5877 19.3859 19.52 19.406 19.4601 19.4415C19.4003 19.477 19.3501 19.5268 19.3142 19.5863C19.2771 19.6427 19.2553 19.7077 19.2511 19.775C19.2468 19.8423 19.2602 19.9095 19.2899 19.9701C19.8463 21.0983 21.1005 22.9993 23.2448 23.0509H23.3356C25.331 23.0509 26.6771 21.3924 27.223 19.9733C27.2464 19.9128 27.2545 19.8474 27.2465 19.7831C27.2386 19.7187 27.2149 19.6573 27.1776 19.6042C27.1414 19.5513 27.0931 19.5077 27.0368 19.4771C26.9804 19.4465 26.9176 19.4297 26.8534 19.4281Z" fill="white"/>
<path d="M47.7421 8.84365C47.7421 6.42916 46.7422 5.18255 44.7426 5.10383C44.233 5.10383 43.6907 5.32243 43.1157 5.75964C42.4853 6.25293 41.9249 6.82929 41.4497 7.47298C41.6059 6.93877 41.7629 6.46888 41.9205 6.0633C41.4623 5.65842 40.9851 5.42014 40.4889 5.34844C40.1255 5.29025 39.7588 5.25503 39.3909 5.24301C38.9109 5.24274 38.4342 5.3222 37.9804 5.47813C37.3258 5.7136 36.9204 6.1248 36.7641 6.71173C36.3714 8.64895 36.0195 10.3061 35.7084 11.6831C35.7055 11.6863 35.7031 11.6898 35.701 11.6936L35.4075 12.1923C35.0464 12.8892 33.695 15.5304 31.7788 16.3845C28.2947 17.9386 28.6326 13.816 28.6495 13.6231C28.6929 13.1459 28.7765 12.6733 28.8997 12.2102C29.0961 12.4717 29.3991 12.593 29.8024 12.6415C30.7619 12.7342 31.7268 12.5291 32.5653 12.0542C33.3572 11.5966 33.9115 10.6962 34.2546 9.39087C34.3189 9.10177 34.3518 8.80661 34.3528 8.51047C34.3536 8.09023 34.2822 7.67297 34.1416 7.27687C33.9058 6.59634 33.4629 6.00648 32.8747 5.58989C32.268 5.14706 31.5067 4.92529 30.591 4.92459C29.5943 4.90797 28.6179 5.20694 27.8017 5.77862C26.9785 6.36008 26.2897 7.11117 25.782 7.98119C25.2684 8.82831 24.8884 9.74936 24.6555 10.712C24.5767 11.0487 24.5123 11.3745 24.4623 11.6894L24.1688 12.1881C23.8077 12.885 22.4563 15.5262 20.5401 16.3802C17.056 17.9344 17.3939 13.8118 17.4108 13.6189C17.4539 13.1424 17.5373 12.6705 17.6599 12.2081C17.8563 12.4696 18.1593 12.5909 18.5626 12.6394C19.5222 12.732 20.487 12.527 21.3256 12.0521C22.1174 11.5945 22.6717 10.6941 23.0148 9.38876C23.0791 9.09966 23.112 8.8045 23.113 8.50837C23.1139 8.08813 23.0425 7.67086 22.9019 7.27476C22.6661 6.59423 22.2231 6.00437 21.6349 5.58778C21.0282 5.14495 20.267 4.92318 19.3513 4.92248C18.3569 4.90659 17.3829 5.20474 16.5683 5.7744C15.7451 6.35586 15.0563 7.10696 14.5486 7.97697C14.035 8.82409 13.655 9.74515 13.4221 10.7078C13.2179 11.5312 13.1091 12.3753 13.098 13.2235C13.098 14.5288 13.3594 15.638 13.8824 16.551C14.4455 17.4388 15.1219 17.9902 15.9116 18.2053C16.5773 18.4016 17.2659 18.5101 17.9598 18.528C18.4409 18.527 18.9204 18.4746 19.3904 18.3719C20.408 18.1522 21.3486 17.6656 22.1153 16.9622C22.7283 16.3552 23.25 15.6627 23.6641 14.9062C23.9339 14.4459 24.1604 13.9616 24.3409 13.4596C24.3704 14.6623 24.6309 15.6928 25.1222 16.551C25.6852 17.4388 26.3616 17.9902 27.1514 18.2053C27.8171 18.4016 28.5056 18.5101 29.1995 18.528C29.6806 18.527 30.1602 18.4746 30.6301 18.3719C31.6477 18.1522 32.5883 17.6656 33.3551 16.9622C33.9681 16.3552 34.4897 15.6627 34.9039 14.9062C34.9757 14.7829 35.0432 14.6595 35.1076 14.5362C34.7909 16.182 34.5122 17.772 34.5122 17.772C34.3148 19.3788 33.7985 21.9251 35.7316 23.7882C37.1157 25.122 39.0816 24.3734 39.2526 24.2574C38.9285 24.2068 38.4312 23.8789 37.9973 23.299C37.5159 22.6547 37.4398 21.7744 37.5116 21.0721C37.7154 19.1089 38.6318 16.6881 38.6318 16.6881C38.9063 17.7066 39.8083 18.2155 41.3377 18.2148C42.3565 18.2316 43.3534 17.9191 44.1799 17.3239C45.0192 16.7122 45.7176 15.9281 46.2281 15.0243C46.7758 14.0706 47.1695 13.0366 47.3947 11.9603C47.6192 10.9364 47.7357 9.89182 47.7421 8.84365ZM29.5268 10.4684C29.7932 9.81675 30.157 9.2092 30.6058 8.66652C31.0098 8.19768 31.4019 7.9369 31.7819 7.88418C31.9082 7.88473 32.0309 7.92613 32.1315 8.00216C32.2322 8.0782 32.3055 8.18478 32.3405 8.30593C32.4306 8.53389 32.4803 8.77579 32.4872 9.02079C32.5 9.37571 32.4155 9.72737 32.2428 10.0379C32.0702 10.3483 31.8159 10.6059 31.5075 10.7826C31.0493 11.0828 30.4482 11.2328 29.7042 11.2328L29.2333 11.2128C29.3095 10.9567 29.4077 10.7076 29.5268 10.4684ZM18.2871 10.4684C18.5534 9.81675 18.9172 9.2092 19.3661 8.66652C19.7701 8.19768 20.1621 7.9369 20.5422 7.88418C20.6684 7.88473 20.7911 7.92613 20.8918 8.00216C20.9925 8.0782 21.0658 8.18478 21.1007 8.30593C21.1909 8.53389 21.2405 8.77579 21.2475 9.02079C21.2602 9.37571 21.1757 9.72737 21.0031 10.0379C20.8304 10.3483 20.5761 10.6059 20.2677 10.7826C19.8095 11.0828 19.2084 11.2328 18.4645 11.2328L17.9936 11.2128C18.0698 10.9567 18.168 10.7076 18.2871 10.4684ZM42.6881 12.9156C42.4153 13.8398 42.0302 14.7271 41.5415 15.5578C41.0896 16.3022 40.629 16.7004 40.1595 16.7524C39.7013 16.7524 39.4726 16.3869 39.4733 15.6559C39.4733 14.8475 39.6492 13.797 40.0011 12.5044V12.4654C40.0733 12.2739 40.1322 12.0777 40.1774 11.8781C40.473 10.9314 40.8665 10.0179 41.3515 9.15258C41.7963 8.37938 42.2211 7.99278 42.6258 7.99278C42.9777 7.99278 43.1804 8.1657 43.2339 8.51153C43.2808 8.79959 43.3069 9.09063 43.312 9.38243C43.312 10.3018 43.1041 11.4796 42.6881 12.9156Z" fill="white"/>
</svg>
