<svg width="110" height="40" viewBox="0 0 110 40" fill="none" xmlns="http://www.w3.org/2000/svg">
<path d="M84.2308 20.0284C84.2117 18.1285 84.9917 16.3293 86.5448 15.3724C88.3527 14.2261 91.1347 14.6066 92.3672 16.3634V14.8862H94.9984V25.2453H92.3672V23.7307C90.4837 26.3735 86.2266 25.7791 84.8466 22.8518C84.4361 22.0291 84.2308 21.0879 84.2308 20.0284ZM92.3672 20.0658C92.3743 18.9243 91.9207 17.9292 90.9862 17.3919C89.7125 16.6194 87.9751 17.0807 87.2726 18.4203C86.7666 19.2959 86.7833 20.7842 87.2726 21.6738C87.9744 23.0228 89.6984 23.5126 90.9862 22.7583C91.9285 22.1979 92.3755 21.2135 92.3672 20.0658Z" fill="#B4B4B4"/>
<path d="M32.8003 11.4375H21.8906V15.7526H32.8003V11.4375Z" fill="#B4B4B4"/>
<path d="M25.9097 24.6641H15V28.9791H25.9097V24.6641Z" fill="#B4B4B4"/>
<path d="M19.3065 11.4375H15V15.7526H19.3065V11.4375Z" fill="#B4B4B4"/>
<path d="M32.8065 24.6641H28.5V28.9791H32.8065V24.6641Z" fill="#B4B4B4"/>
<path d="M23.8466 22.656C25.1943 22.656 26.2869 21.5613 26.2869 20.2108C26.2869 18.8604 25.1943 17.7656 23.8466 17.7656C22.4988 17.7656 21.4062 18.8604 21.4062 20.2108C21.4062 21.5613 22.4988 22.656 23.8466 22.656Z" fill="#B4B4B4"/>
<path d="M19.3065 18.0547H15V22.3697H19.3065V18.0547Z" fill="#B4B4B4"/>
<path d="M32.8065 18.0547H28.5V22.3697H32.8065V18.0547Z" fill="#B4B4B4"/>
<path d="M43.7894 25.4143C42.9435 25.4143 42.1846 25.2647 41.5128 24.9656C40.841 24.6539 40.306 24.2363 39.9079 23.7128C39.5222 23.1892 39.3108 22.6096 39.2734 21.9738H41.9047C41.9544 22.3727 42.1473 22.703 42.4832 22.9648C42.8315 23.2266 43.2607 23.3575 43.7708 23.3575C44.2683 23.3575 44.6542 23.2578 44.9278 23.0583C45.214 22.8588 45.357 22.6033 45.357 22.2917C45.357 21.9551 45.1827 21.7058 44.8345 21.5437C44.4986 21.3692 43.9574 21.1822 43.211 20.9828C42.4396 20.7958 41.8051 20.6026 41.3075 20.4031C40.8223 20.2036 40.3993 19.8983 40.0386 19.4869C39.6902 19.0755 39.516 18.5208 39.516 17.8227C39.516 17.2493 39.6778 16.7257 40.0012 16.252C40.3371 15.7783 40.8099 15.4044 41.4195 15.1301C42.0415 14.8559 42.7693 14.7188 43.6029 14.7188C44.8345 14.7188 45.8172 15.0304 46.5513 15.6537C47.2854 16.2645 47.6896 17.0935 47.7643 18.1406H45.2637C45.2263 17.7292 45.0521 17.4051 44.7411 17.1683C44.4426 16.9189 44.0383 16.7943 43.5282 16.7943C43.0555 16.7943 42.6885 16.8815 42.4272 17.0561C42.1784 17.2306 42.054 17.4737 42.054 17.7853C42.054 18.1343 42.2281 18.4024 42.5765 18.5894C42.9248 18.7639 43.466 18.9446 44.2 19.1316C44.9464 19.3186 45.5622 19.5118 46.0474 19.7113C46.5326 19.9107 46.9495 20.2223 47.2978 20.6462C47.6586 21.0576 47.8452 21.606 47.8576 22.2917C47.8576 22.89 47.6896 23.426 47.3537 23.8998C47.0302 24.3734 46.5576 24.7474 45.9355 25.0217C45.326 25.2834 44.6105 25.4143 43.7894 25.4143Z" fill="#B4B4B4"/>
<path d="M58.8644 19.8422C58.8644 20.2161 58.8394 20.5527 58.7898 20.8519H51.2319C51.2942 21.5998 51.5555 22.1857 52.0157 22.6096C52.4759 23.0334 53.0421 23.2453 53.7139 23.2453C54.6843 23.2453 55.3748 22.8277 55.7853 21.9925H58.6032C58.3046 22.9897 57.7324 23.8125 56.8863 24.4607C56.0402 25.0965 55.0015 25.4143 53.7699 25.4143C52.7745 25.4143 51.8788 25.1962 51.0827 24.7599C50.2989 24.3111 49.6831 23.6816 49.2352 22.8713C48.7997 22.061 48.582 21.1261 48.582 20.0665C48.582 18.9945 48.7997 18.0533 49.2352 17.2431C49.6707 16.4328 50.2802 15.8095 51.064 15.3732C51.8478 14.9369 52.7498 14.7188 53.7699 14.7188C54.7526 14.7188 55.6297 14.9306 56.4011 15.3545C57.1849 15.7783 57.7884 16.3829 58.2113 17.1683C58.6468 17.9411 58.8644 18.8324 58.8644 19.8422ZM56.1585 19.0942C56.1462 18.4211 55.9036 17.885 55.4307 17.4861C54.9579 17.0748 54.3794 16.8691 53.6952 16.8691C53.0484 16.8691 52.5009 17.0685 52.053 17.4674C51.6175 17.8539 51.3502 18.3961 51.2506 19.0942H56.1585Z" fill="#B4B4B4"/>
<path d="M65.7564 14.7344C66.988 14.7344 67.9834 15.127 68.7422 15.9124C69.5013 16.6852 69.8805 17.7698 69.8805 19.1659V25.243H67.2679V19.5212C67.2679 18.6985 67.0627 18.0689 66.6521 17.6327C66.2416 17.1839 65.6817 16.9595 64.9726 16.9595C64.2511 16.9595 63.6789 17.1839 63.2558 17.6327C62.8452 18.0689 62.6399 18.6985 62.6399 19.5212V25.243H60.0273V14.884H62.6399V16.1742C62.9885 15.7254 63.43 15.3763 63.9649 15.127C64.5124 14.8653 65.1095 14.7344 65.7564 14.7344Z" fill="#B4B4B4"/>
<path d="M74.6598 17.0324V22.0436C74.6598 22.3926 74.7407 22.6482 74.9024 22.8102C75.0766 22.9598 75.3626 23.0346 75.7608 23.0346H76.9738V25.241H75.3316C73.1295 25.241 72.0285 24.169 72.0285 22.0249V17.0324H70.7969V14.882H72.0285V12.3203H74.6598V14.882H76.9738V17.0324H74.6598Z" fill="#B4B4B4"/>
<path d="M80.722 16.492C81.0579 15.9435 81.4934 15.5135 82.0283 15.2018C82.5757 14.8902 83.1976 14.7344 83.8944 14.7344V17.4831H83.2039C82.3828 17.4831 81.7607 17.6763 81.3378 18.0627C80.9272 18.4491 80.722 19.1223 80.722 20.0822V25.243H78.1094V14.884H80.722V16.492Z" fill="#B4B4B4"/>
</svg>
