<svg width="110" height="40" viewBox="0 0 110 40" fill="none" xmlns="http://www.w3.org/2000/svg">
<path d="M9.33821 9.37442C8.88726 9.82546 8.88726 10.6604 9.33821 11.1114C9.82754 11.6105 10.6527 11.6105 11.1036 11.1114C11.5546 10.6508 11.5546 9.82546 11.1036 9.37442C10.6335 8.88498 9.85632 8.87539 9.367 9.34563C9.3574 9.35522 9.34781 9.36482 9.33821 9.37442Z" fill="#B4B4B4"/>
<path d="M29.8822 29.1609C29.3353 28.6235 28.4622 28.6235 27.9153 29.1609C27.3876 29.7175 27.3876 30.5908 27.9153 31.1474C28.491 31.6848 29.3545 31.6848 29.8822 31.1474C30.4483 30.6484 30.4483 29.7367 29.8822 29.1609Z" fill="#B4B4B4"/>
<path d="M25.8582 24.8539C25.9829 24.8539 26.1076 24.8443 26.2324 24.8347C27.2974 24.7292 28.2664 24.1534 28.8709 23.2705C29.2067 22.7714 29.4178 22.2052 29.485 21.6006C29.5137 21.3799 29.5137 21.1496 29.5041 20.9288C29.485 20.5546 29.3986 20.1995 29.2547 19.854C28.7845 18.6448 27.7099 17.7811 26.4243 17.5796C26.2228 17.5412 26.0117 17.5316 25.8102 17.5412C25.2825 17.5412 24.7644 17.6468 24.2942 17.8675C24.2942 14.8829 21.838 12.4453 18.8828 12.4453H11.1016V28.5871C11.1016 29.7291 12.0322 30.66 13.174 30.66C13.1836 30.66 13.1836 30.66 13.1932 30.66C14.2774 30.66 15.2273 29.873 15.2465 28.875C15.2752 27.4259 15.2081 25.6025 16.2731 24.4892C16.6857 24.115 17.175 23.8271 17.5396 23.4144C17.9234 22.925 18.0769 22.33 18.0769 21.7158C18.0961 21.0536 17.7507 20.4394 17.175 20.1035C16.7624 19.8156 16.4362 19.5277 16.2347 18.9039C15.9948 18.1938 16.1004 17.4164 16.5226 16.7926C17.3861 15.593 19.1035 15.5547 20.0918 16.6679C20.677 17.3397 20.8114 18.2993 20.418 19.1151C20.1877 19.4989 19.8903 19.8348 19.5257 20.0939C19.1227 20.4298 18.8541 20.9001 18.7965 21.4183V21.4375C18.7197 21.9653 18.7869 22.6755 19.1035 23.1073C19.708 23.9518 20.821 24.2589 21.7708 23.8367C22.3849 23.5104 22.999 23.2129 23.4115 22.6371C23.565 22.4067 23.6898 22.1668 23.7857 21.9077C23.8913 21.6294 23.9009 21.3415 23.9392 21.0536C23.9968 20.3626 24.3518 19.7293 24.9083 19.3166C25.1098 19.1726 25.3401 19.0575 25.5799 18.9807C26.8464 18.6064 28.1225 19.4413 28.4104 20.7177C28.6598 21.8789 28.0841 22.7426 27.0191 23.2417C26.6833 23.4144 26.3091 23.4912 25.9349 23.472C25.532 23.4336 25.1482 23.2992 24.7356 23.2896C24.3422 23.2896 23.9488 23.3472 23.5746 23.472C23.2484 23.5871 22.9318 23.7407 22.644 23.9326C22.3273 24.1534 22.0299 24.4029 21.7708 24.6908C21.3199 25.1898 21.1952 25.7656 21.1952 26.4278V28.5007C21.1952 29.7003 22.0971 30.8231 23.3636 30.8231C24.5917 30.8615 25.6567 29.873 25.6567 28.6254V27.0132C25.6567 26.4086 25.7814 25.6984 25.5032 25.1322C25.4552 25.0363 25.3784 24.9307 25.3305 24.8443L25.5224 24.8539C25.5991 24.8539 25.6759 24.8635 25.7622 24.8635L25.8582 24.8539Z" fill="#B4B4B4"/>
<path d="M40.5993 26.5036C40.3402 26.5036 40.1003 26.3788 39.9564 26.1677L38.5172 24.0852H36.675V25.4959C36.675 26.0525 36.2241 26.5036 35.6676 26.5036C35.1111 26.5036 34.6602 26.0525 34.6602 25.4959V17.8281H38.4117C39.1792 17.8281 39.8509 17.9529 40.417 18.212C40.9447 18.4423 41.4052 18.8166 41.7218 19.306C42.0385 19.8051 42.192 20.3905 42.1824 20.9759C42.2304 22.1755 41.5108 23.2695 40.3978 23.7109L41.482 25.2752C41.7314 25.6303 41.6451 26.1101 41.2901 26.3596C41.1557 26.4556 41.0022 26.5036 40.8391 26.5036H40.5993V26.5036ZM39.6782 19.853C39.3615 19.5939 38.9106 19.4596 38.3061 19.4596H36.675V22.4826H38.3061C38.9106 22.4826 39.3711 22.3482 39.6782 22.0891C39.9852 21.83 40.1483 21.4557 40.1483 20.9759C40.1579 20.4864 39.9948 20.1122 39.6782 19.853Z" fill="#B4B4B4"/>
<path d="M51.228 25.6975C51.228 26.1389 50.8634 26.5036 50.422 26.5036H44.5117V17.8281H50.2589C50.7003 17.8281 51.0649 18.1928 51.0649 18.6343C51.0649 19.0757 50.7003 19.4404 50.2589 19.4404H46.5074V21.3213H49.7504C50.1822 21.3213 50.5276 21.6668 50.5276 22.0987C50.5276 22.5305 50.1822 22.876 49.7504 22.876H46.5074V24.8817H50.422C50.873 24.8913 51.228 25.256 51.228 25.6975Z" fill="#B4B4B4"/>
<path d="M54.435 26.3726C54.1567 26.2958 53.8785 26.1902 53.6098 26.0751C53.1973 25.8831 53.015 25.4033 53.1973 24.981C53.3892 24.5588 53.8785 24.3764 54.2911 24.5588C54.2911 24.5588 54.2911 24.5588 54.3007 24.5588C54.4926 24.6451 54.694 24.7219 54.8955 24.7891C55.3945 24.9522 55.9126 25.0386 56.4307 25.0386C56.9968 25.0386 57.4189 24.9522 57.6972 24.7891C57.9658 24.6164 58.1097 24.3956 58.1097 24.1173C58.1097 23.9158 58.0234 23.7239 57.8699 23.5991C57.6876 23.4552 57.4765 23.34 57.2462 23.2728C56.9968 23.1864 56.6514 23.1001 56.2196 23.0041C55.6727 22.8793 55.1258 22.7258 54.5981 22.5339C54.1759 22.3803 53.8017 22.1212 53.5139 21.7757C53.2165 21.4302 53.063 20.9696 53.063 20.3842C53.0534 19.8948 53.1973 19.4245 53.4755 19.0119C53.7442 18.5992 54.1567 18.2825 54.7036 18.0426C55.2505 17.8027 55.9222 17.6875 56.7185 17.6875C57.2654 17.6875 57.8123 17.7451 58.34 17.8794C58.5511 17.9274 58.7622 17.9946 58.9637 18.0714C59.3954 18.2345 59.6161 18.7144 59.453 19.1366C59.453 19.1462 59.4434 19.1462 59.4434 19.1558C59.2707 19.5781 58.8006 19.7796 58.3784 19.6164C57.8507 19.4053 57.2846 19.2902 56.7089 19.2902C56.1524 19.2902 55.7303 19.3765 55.4616 19.5589C55.2122 19.7124 55.0586 19.9811 55.0586 20.2786C55.0586 20.5761 55.2122 20.7968 55.5192 20.9408C55.9797 21.1327 56.4499 21.2767 56.9392 21.3727C57.4861 21.4974 58.033 21.651 58.5607 21.8429C58.9733 21.9964 59.3475 22.2556 59.6449 22.5818C59.9423 22.9177 60.0958 23.3784 60.0958 23.9542C60.0958 24.434 59.9519 24.9139 59.6833 25.3073C59.405 25.72 58.9925 26.0367 58.436 26.2766C57.8795 26.5165 57.2078 26.6317 56.4211 26.6413C55.7495 26.6509 55.0778 26.5645 54.435 26.3726Z" fill="#B4B4B4"/>
<path d="M63.0206 25.6207C62.3298 24.9393 61.9844 23.9605 61.9844 22.6841V18.8358C61.9844 18.2792 62.4353 17.8377 62.9918 17.8377C63.5483 17.8377 63.9897 18.2888 63.9897 18.8358V22.6169C63.9897 24.1716 64.6325 24.9489 65.9182 24.9489C66.5418 24.9489 67.0216 24.757 67.3574 24.3827C67.6932 24.0084 67.8563 23.423 67.8563 22.6169V18.8166C67.8563 18.2696 68.2977 17.8281 68.8446 17.8281C69.3915 17.8281 69.8328 18.2696 69.8328 18.8166V22.6841C69.8328 23.9605 69.4874 24.9393 68.7966 25.6207C68.1058 26.3021 67.1463 26.6475 65.899 26.6475C64.6709 26.6475 63.7018 26.3117 63.0206 25.6207Z" fill="#B4B4B4"/>
<path d="M79.0801 22.0317C79.5886 22.0317 79.9915 22.4444 79.9915 22.953V25.4578C79.9915 25.525 79.9628 25.5825 79.9148 25.6209C79.4446 25.9568 78.9169 26.2159 78.3605 26.3791C77.756 26.571 77.1227 26.667 76.4895 26.667C75.6452 26.6766 74.8104 26.4846 74.062 26.0912C73.3616 25.7265 72.7764 25.1699 72.3734 24.4981C71.5578 23.0682 71.5578 21.312 72.3734 19.8725C72.7859 19.1911 73.3712 18.6345 74.0812 18.2794C74.8392 17.8859 75.6835 17.694 76.5375 17.7036C77.2475 17.694 77.9479 17.8284 78.6099 18.0875C78.9169 18.2122 79.2144 18.3754 79.4926 18.5769C79.838 18.836 79.9148 19.3159 79.6557 19.6613C79.627 19.6997 79.5886 19.7381 79.5598 19.7765L79.4063 19.9109C79.1376 20.1604 78.725 20.1892 78.4276 19.9684C77.9095 19.5942 77.2954 19.3926 76.6526 19.4022C76.1441 19.3926 75.6356 19.5078 75.175 19.7477C74.7529 19.9684 74.4075 20.3139 74.1676 20.7266C73.6878 21.6287 73.6878 22.7131 74.1676 23.6152C74.3979 24.0279 74.7433 24.3734 75.1654 24.6037C75.6164 24.8436 76.1153 24.9684 76.6238 24.9588C76.9692 24.9588 77.305 24.9108 77.6313 24.8148C77.9575 24.7188 78.1877 24.4117 78.1877 24.0663V22.9626C78.159 22.4348 78.5715 22.0317 79.0801 22.0317Z" fill="#B4B4B4"/>
<path d="M88.0257 24.6418H84.0055L83.4778 25.9278C83.3339 26.2733 82.9885 26.5036 82.6143 26.5036C82.0962 26.5036 81.6836 26.0909 81.6836 25.5727C81.6836 25.4384 81.7124 25.3136 81.7603 25.1888L84.7251 18.5287C84.917 18.0968 85.3392 17.8281 85.8093 17.8281H86.2507C86.7208 17.8281 87.143 18.1064 87.3349 18.5287L90.2996 25.16C90.5107 25.6399 90.2996 26.2061 89.8199 26.4172C89.6951 26.4748 89.5608 26.5036 89.4265 26.5036C89.0427 26.5036 88.6973 26.2733 88.5438 25.9182L88.0257 24.6418ZM87.402 23.1159L86.03 19.7955L84.6579 23.1159H87.402Z" fill="#B4B4B4"/>
<path d="M98.4253 26.5036C98.1662 26.5036 97.9263 26.3788 97.7824 26.1677L96.3432 24.0852H94.4914V25.4959C94.4914 26.0525 94.0405 26.5036 93.484 26.5036C92.9275 26.5036 92.4766 26.0525 92.4766 25.5055V17.8281H96.2281C96.9957 17.8281 97.6673 17.9529 98.2238 18.212C98.7611 18.4423 99.212 18.8166 99.5382 19.306C99.8549 19.8051 100.008 20.3905 99.9988 20.9759C100.047 22.1755 99.3272 23.2695 98.2142 23.7109L99.2984 25.2752C99.5478 25.6303 99.4615 26.1197 99.1065 26.3596C98.9722 26.446 98.8186 26.5036 98.6651 26.5036H98.4253V26.5036ZM97.5042 19.853C97.1876 19.5939 96.7366 19.4596 96.1321 19.4596H94.501V22.4826H96.1321C96.7366 22.4826 97.1971 22.3482 97.5042 22.0891C97.8208 21.8204 97.9743 21.4557 97.9743 20.9759C97.9743 20.4864 97.8208 20.1122 97.5042 19.853Z" fill="#B4B4B4"/>
</svg>
