<svg width="110" height="40" viewBox="0 0 110 40" fill="none" xmlns="http://www.w3.org/2000/svg">
<g clip-path="url(#clip0_7010_287)">
<path d="M110.001 20.0062H101.571C101.706 21.8823 102.888 22.8203 105.117 22.8203C106.539 22.8203 107.788 22.4838 108.865 21.8108V24.688C107.67 25.3274 106.118 25.6471 104.208 25.6471C102.122 25.6471 100.503 25.0708 99.35 23.9182C98.1974 22.7572 97.6211 21.1419 97.6211 19.0723C97.6211 16.927 98.2437 15.2276 99.4888 13.9741C100.734 12.7205 102.265 12.0938 104.082 12.0938C105.967 12.0938 107.422 12.6532 108.449 13.7721C109.483 14.8911 110.001 16.4096 110.001 18.3278V20.0062ZM106.303 17.558C106.303 15.7071 105.555 14.7817 104.057 14.7817C103.418 14.7817 102.862 15.0467 102.391 15.5767C101.929 16.1068 101.647 16.7672 101.546 17.558H106.303Z" fill="#B4B4B4"/>
<path d="M95.3553 25.1878C94.7664 25.4991 93.8788 25.6547 92.6926 25.6547C89.8826 25.6547 88.4776 24.1951 88.4776 21.2757V15.3572H86.3828V12.4169H88.4776V9.62794L92.4528 8.49219V12.4169H95.3553V15.3572H92.4528V20.5817C92.4528 21.9277 92.987 22.6008 94.0555 22.6008C94.4761 22.6008 94.9094 22.4788 95.3553 22.2348V25.1878Z" fill="#B4B4B4"/>
<path d="M84.4032 20.0062H75.9733C76.1079 21.8823 77.29 22.8203 79.5194 22.8203C80.9412 22.8203 82.1905 22.4838 83.2674 21.8108V24.688C82.0728 25.3274 80.5206 25.6471 78.6108 25.6471C76.5244 25.6471 74.9049 25.0708 73.7523 23.9182C72.5997 22.7572 72.0234 21.1419 72.0234 19.0723C72.0234 16.927 72.646 15.2276 73.8911 13.9741C75.1362 12.7205 76.6674 12.0938 78.4846 12.0938C80.3691 12.0938 81.8246 12.6532 82.851 13.7721C83.8858 14.8911 84.4032 16.4096 84.4032 18.3278V20.0062ZM80.7057 17.558C80.7057 15.7071 79.9569 14.7817 78.4594 14.7817C77.82 14.7817 77.2647 15.0467 76.7936 15.5767C76.3309 16.1068 76.0491 16.7672 75.9481 17.558H80.7057Z" fill="#B4B4B4"/>
<path d="M60.0304 23.8299H59.98V31.2754H55.9922V12.4092H59.98V14.3526H60.0304C61.0147 12.8467 62.3987 12.0938 64.1822 12.0938C65.8564 12.0938 67.1478 12.67 68.0564 13.8226C68.9734 14.9668 69.432 16.5274 69.432 18.5045C69.432 20.6582 68.8977 22.3871 67.8293 23.6911C66.7692 24.9951 65.3559 25.6471 63.5891 25.6471C62.0327 25.6471 60.8465 25.0414 60.0304 23.8299ZM59.9169 18.5297V19.5645C59.9169 20.4563 60.1524 21.184 60.6235 21.7477C61.0947 22.3113 61.713 22.5932 62.4786 22.5932C63.3872 22.5932 64.0897 22.244 64.5861 21.5458C65.0908 20.8391 65.3432 19.8421 65.3432 18.5549C65.3432 16.2834 64.4599 15.1477 62.6931 15.1477C61.8771 15.1477 61.2082 15.459 60.6866 16.0815C60.1734 16.6957 59.9169 17.5117 59.9169 18.5297Z" fill="#B4B4B4"/>
<path d="M52.0584 25.3316H48.0832V17.9618C48.0832 16.0857 47.3934 15.1477 46.0136 15.1477C45.3574 15.1477 44.8232 15.4295 44.411 15.9932C43.9987 16.5568 43.7926 17.2593 43.7926 18.1006V25.3316H39.8048V17.8861C39.8048 16.0605 39.1276 15.1477 37.7731 15.1477C37.0916 15.1477 36.5448 15.4169 36.1326 15.9553C35.7287 16.4937 35.5268 17.2257 35.5268 18.1511V25.3316H31.5391V12.4092H35.5268V14.4284H35.5773C35.9895 13.7385 36.5658 13.179 37.3062 12.75C38.0549 12.3125 38.871 12.0938 39.7544 12.0938C41.58 12.0938 42.8293 12.8972 43.5024 14.5041C44.4867 12.8972 45.9337 12.0938 47.8435 12.0938C50.6534 12.0938 52.0584 13.8268 52.0584 17.293V25.3316Z" fill="#B4B4B4"/>
<path d="M21.1273 25.6471C18.9736 25.6471 17.2784 25.0456 16.0417 23.8425C14.8134 22.631 14.1992 20.9905 14.1992 18.9209C14.1992 16.784 14.8386 15.114 16.1174 13.911C17.3962 12.6995 19.125 12.0938 21.304 12.0938C23.4493 12.0938 25.1319 12.6995 26.3518 13.911C27.5717 15.114 28.1816 16.7083 28.1816 18.6937C28.1816 20.8391 27.5507 22.5343 26.2887 23.7794C25.0352 25.0245 23.3147 25.6471 21.1273 25.6471ZM21.2283 15.1477C20.286 15.1477 19.5541 15.4716 19.0325 16.1194C18.5109 16.7672 18.2501 17.6842 18.2501 18.8704C18.2501 21.3523 19.2512 22.5932 21.2535 22.5932C23.1633 22.5932 24.1181 21.3186 24.1181 18.7695C24.1181 16.3549 23.1549 15.1477 21.2283 15.1477Z" fill="#B4B4B4"/>
<path d="M11.5625 24.8647C10.6623 25.3863 9.36252 25.6471 7.6631 25.6471C5.67763 25.6471 4.07075 25.0456 2.84245 23.8425C1.61415 22.6394 1 21.0872 1 19.1859C1 16.9901 1.65621 15.2612 2.96864 13.9993C4.28948 12.7289 6.05201 12.0938 8.25621 12.0938C9.77897 12.0938 10.8811 12.2957 11.5625 12.6995V16.0815C10.7296 15.459 9.8 15.1477 8.77361 15.1477C7.62945 15.1477 6.72084 15.4842 6.0478 16.1572C5.38317 16.8219 5.05086 17.7431 5.05086 18.9209C5.05086 20.0651 5.37055 20.9653 6.00994 21.6215C6.64933 22.2693 7.52849 22.5932 8.64742 22.5932C9.64015 22.5932 10.6119 22.2819 11.5625 21.6593V24.8647Z" fill="#B4B4B4"/>
</g>
<defs>
<clipPath id="clip0_7010_287">
<rect width="110" height="40" fill="white"/>
</clipPath>
</defs>
</svg>
