<svg width="110" height="40" viewBox="0 0 110 40" fill="none" xmlns="http://www.w3.org/2000/svg">
<path fill-rule="evenodd" clip-rule="evenodd" d="M29.0507 9.99991V17.2687H21.644V9.99991H17.9999V27.9699H21.644V20.3107H29.0507V27.9699H32.6949V9.99991H29.0507Z" fill="#B4B4B4"/>
<path fill-rule="evenodd" clip-rule="evenodd" d="M51.8127 18.477H48.3629V13.0206H51.7739C53.2541 13.0594 54.5808 14.1123 54.5808 15.8663C54.5808 17.5233 53.3143 18.4576 51.8127 18.477ZM58.2055 16.0023C58.2055 12.4747 55.6142 10.2525 52.6907 10.0194V10H44.7188V27.97H48.3629V21.4996H52.6888C55.6899 21.3636 58.2035 19.3356 58.2035 16.0042L58.2055 16.0023Z" fill="#B4B4B4"/>
<path fill-rule="evenodd" clip-rule="evenodd" d="M63.1968 13.0206H66.6079C68.088 13.0594 69.4148 14.1123 69.4148 15.8663C69.4148 17.5038 68.1483 18.4576 66.6467 18.4576H63.1968V13.0206ZM69.6673 27.9681H73.7601L69.9994 20.8935C71.7924 20.0563 73.0394 18.3411 73.0394 16.0023C73.0375 12.2805 70.1529 10 67.0158 10H59.5508V27.9681H63.1949V21.4976H66.4117L69.6673 27.9681Z" fill="#B4B4B4"/>
<path fill-rule="evenodd" clip-rule="evenodd" d="M88.3554 18.9646C88.3554 21.9075 85.9778 24.2851 83.0349 24.2851C80.092 24.2851 77.7144 21.9075 77.7144 18.9646V13.6635H83.0349C85.9778 13.6635 88.3554 16.0412 88.3554 18.9646ZM83.0349 10H74.0703V18.9646C74.0703 23.9141 78.0854 27.9292 83.0349 27.9292C87.9844 27.9292 91.9995 23.9141 91.9995 18.9646C92.0189 14.0151 87.9844 10 83.0349 10Z" fill="#B4B4B4"/>
<path fill-rule="evenodd" clip-rule="evenodd" d="M39.7891 29.2089C40.1213 28.7602 40.5875 28.1755 40.9974 27.6491C41.7763 26.6546 42.596 25.7397 42.596 24.1604C42.596 24.1604 42.6932 20.2812 38.4838 20.2812C34.0199 20.2812 34.2161 24.4712 34.2161 24.4712H36.9259C36.9259 23.6923 37.1201 22.6006 38.3867 22.6006C39.6532 22.6006 39.8299 23.5369 39.8299 24.1216C39.8299 24.2964 39.9465 24.8228 38.5051 26.6351C36.9842 28.564 34.2375 31.4875 34.2375 31.4875H42.5786V29.207H39.7911L39.7891 29.2089Z" fill="#B4B4B4"/>
<path fill-rule="evenodd" clip-rule="evenodd" d="M85.566 18.9627C85.566 20.3652 84.4355 21.4957 83.033 21.4957C81.6305 21.4957 80.5 20.3652 80.5 18.9627V16.4297H83.033C84.4355 16.4491 85.566 17.5796 85.566 18.9627Z" fill="#B4B4B4"/>
</svg>
