<svg width="349" height="210" viewBox="0 0 349 210" fill="none" xmlns="http://www.w3.org/2000/svg">
<path d="M238 191.5C238 183.161 236.358 174.904 233.166 167.2C229.975 159.495 225.298 152.495 219.401 146.599C213.505 140.702 206.505 136.025 198.8 132.834C191.096 129.642 182.839 128 174.5 128C166.161 128 157.904 129.642 150.2 132.834C142.495 136.025 135.495 140.702 129.599 146.599C123.702 152.495 119.025 159.495 115.834 167.2C112.642 174.904 111 183.161 111 191.5" stroke="#49B97A"/>
<path d="M278 191.5C278 164.05 267.096 137.724 247.686 118.314C228.276 98.9044 201.95 88 174.5 88C147.05 88 120.724 98.9044 101.314 118.314C81.9044 137.724 71 164.05 71 191.5" stroke="#606060"/>
<path d="M316 191.5C316 172.918 312.34 154.518 305.229 137.35C298.118 120.183 287.695 104.584 274.556 91.4444C261.416 78.3049 245.817 67.8821 228.65 60.771C211.482 53.66 193.082 50 174.5 50C155.918 50 137.518 53.66 120.35 60.771C103.183 67.8821 87.5839 78.3049 74.4444 91.4444C61.3049 104.584 50.8821 120.183 43.771 137.35C36.66 154.518 33 172.918 33 191.5" stroke="#606060" stroke-dasharray="6 6"/>
<path d="M348 191.5C348 145.485 329.721 101.355 297.183 68.817C264.645 36.2794 220.515 18 174.5 18C128.485 18 84.3545 36.2794 51.817 68.817C19.2794 101.355 1.00001 145.485 1 191.5" stroke="#606060"/>
</svg>
