<svg width="110" height="40" viewBox="0 0 110 40" fill="none" xmlns="http://www.w3.org/2000/svg">
<path d="M57.1075 13.6971C57.5319 13.6971 57.929 13.9093 57.929 14.3916V21.8719C57.929 22.4395 57.4466 22.7224 56.9806 22.7224C56.6542 22.7224 56.3151 22.5519 56.1301 22.3107L51.7943 16.7291L51.8505 17.5234V21.9716C51.8505 22.4957 51.4262 22.7224 51.0145 22.7224C50.5757 22.7224 50.1641 22.4957 50.1641 21.9716V14.5621C50.1641 13.9963 50.5757 13.6971 51.029 13.6971C51.3827 13.6971 51.6238 13.8386 51.8505 14.1215L56.2988 19.9026L56.2426 18.9523V14.3898C56.2426 13.9365 56.6814 13.6953 57.1075 13.6953" fill="#B4B4B4"/>
<path d="M67 16.3003V21.9961C67 22.464 66.5756 22.7179 66.193 22.7179C65.7814 22.7179 65.386 22.4622 65.386 21.9816V21.9254C64.6063 22.6762 63.7431 22.8611 63.0196 22.8611C61.0502 22.8611 59.9023 21.5301 59.9023 19.4193V16.3021C59.9023 15.8632 60.1997 15.5078 60.7093 15.5078C61.1917 15.5078 61.5163 15.8614 61.5163 16.3021V19.4483C61.5163 20.6814 62.0548 21.4467 63.2589 21.4467C63.9807 21.4467 65.3842 20.6669 65.3842 19.0095V16.3039C65.3842 15.8505 65.6526 15.5096 66.1785 15.5096C66.6736 15.5096 67 15.8505 67 16.3039" fill="#B4B4B4"/>
<path d="M72.8871 16.2005C72.8871 16.6539 72.5607 16.9386 72.0511 16.9386C70.8615 16.9386 70.4372 17.8453 70.4372 19.305V21.9979C70.4372 22.4223 70.0836 22.7197 69.6574 22.7197C69.1605 22.7197 68.8359 22.4223 68.8359 21.9979V16.2314C68.8359 15.778 69.2603 15.5078 69.6574 15.5078C70.0545 15.5078 70.4372 15.7635 70.4372 16.2314V16.3166C70.8488 15.7635 71.4001 15.5096 72.0511 15.5096C72.5625 15.5096 72.8871 15.7218 72.8871 16.2041" fill="#B4B4B4"/>
<path d="M80.3405 16.2389V21.9764C80.3405 22.4153 80.0141 22.7127 79.5335 22.7127C79.053 22.7127 78.7973 22.4715 78.7393 22.1179C78.0883 22.6275 77.2378 22.8541 76.5287 22.8541C74.4742 22.8541 73.2266 21.3671 73.2266 19.0859C73.2266 16.8046 74.6301 15.3594 76.7119 15.3594C77.3212 15.3594 78.1137 15.5861 78.7375 16.0684C78.8082 15.7275 79.0784 15.5026 79.5317 15.5026C80.0141 15.5026 80.3387 15.8 80.3387 16.2389M78.723 20.3335V17.8836C78.3693 17.1891 77.5606 16.792 76.8243 16.792C75.6347 16.792 74.8405 17.7549 74.8405 19.1004C74.8405 20.4459 75.5785 21.4234 76.6956 21.4234C77.5316 21.4234 78.3965 21.0552 78.7211 20.3317" fill="#B4B4B4"/>
<path d="M94.6024 18.7921V21.9801C94.6024 22.4189 94.3195 22.7163 93.7954 22.7163C93.3149 22.7163 92.9885 22.4189 92.9885 21.9801V18.7631C92.9885 17.588 92.4499 16.7793 91.2603 16.7793C90.3536 16.7793 89.106 17.6569 89.106 19.202V21.9783C89.106 22.4171 88.8231 22.7145 88.3135 22.7145C87.8312 22.7145 87.4921 22.4171 87.4921 21.9783V18.7613C87.4921 17.5862 86.9535 16.7775 85.7639 16.7775C85.0422 16.7775 83.6676 17.5427 83.6676 19.2002V22.0055C83.6676 22.4878 83.2578 22.7145 82.8607 22.7145C82.4635 22.7145 82.0664 22.4878 82.0664 22.0055V16.2244C82.0664 15.8272 82.42 15.5026 82.8607 15.5026C83.343 15.5026 83.6676 15.829 83.6676 16.2244V16.2661C84.4329 15.5298 85.2834 15.3594 86.0051 15.3594C87.1947 15.3594 88.0742 15.8689 88.5837 16.7049C89.4487 15.6278 90.6238 15.3594 91.4888 15.3594C93.4581 15.3594 94.606 16.7611 94.606 18.7885" fill="#B4B4B4"/>
<path d="M97.1769 14.6733C96.7526 14.6733 96.3555 14.4467 96.3555 13.9643V13.7793C96.3555 13.297 96.7526 13.0703 97.1769 13.0703C97.5741 13.0703 97.9984 13.297 97.9984 13.7793V13.9643C97.9984 14.4467 97.5741 14.6733 97.1769 14.6733ZM97.1769 15.5003C97.5741 15.5003 97.9839 15.7414 97.9839 16.1803V22.0176C97.9839 22.4854 97.5741 22.7121 97.1769 22.7121C96.7798 22.7121 96.37 22.4854 96.37 22.0176V16.1948C96.37 15.7414 96.7943 15.5003 97.1769 15.5003Z" fill="#B4B4B4"/>
<mask id="mask0_7104_93" style="mask-type:luminance" maskUnits="userSpaceOnUse" x="13" y="8" width="30" height="24">
<path d="M36.4582 8.23646C33.6747 8.60458 31.6437 11.127 31.874 13.9251C31.9157 14.4401 32.0299 14.9333 32.2058 15.3903C32.7807 16.89 32.6175 18.5728 31.7053 19.8948L31.6165 20.0217C30.6917 21.36 29.2137 22.1923 27.5944 22.3447C27.5871 22.3447 27.5781 22.3465 27.5708 22.3483C27.5635 22.3483 27.5563 22.3483 27.5472 22.3501C25.9297 22.5224 24.3157 22.0019 23.1425 20.874L23.0754 20.8087C23.0754 20.8087 23.0826 20.8033 23.0845 20.7996C23.0663 20.7815 23.0446 20.767 23.0264 20.7489L22.9448 20.6709C22.9321 20.6564 22.9194 20.6419 22.9067 20.6292C21.9837 19.7298 21.3527 18.6417 21.5648 17.3687C21.6301 16.9752 21.641 16.5654 21.592 16.1483C21.3218 13.8834 19.2945 12.2024 17.0187 12.3601C14.5325 12.5324 12.71 14.7629 13.0383 17.2327C13.3429 19.5266 15.4446 21.1823 17.7476 20.9483C17.9036 20.932 18.0559 20.9085 18.2046 20.8776C19.4686 20.6111 20.7833 20.9556 21.7153 21.8514L21.7317 21.8677C21.7317 21.8677 21.7262 21.875 21.7226 21.8786C21.7571 21.9094 21.7951 21.9348 21.8278 21.9675L21.9656 22.098C23.1298 23.2169 23.7337 24.7982 23.6158 26.4085C23.594 26.7131 23.6031 27.0268 23.6466 27.3442C23.9603 29.6109 26.0022 31.2793 28.2871 31.1342C30.7968 30.9764 32.6519 28.7695 32.4017 26.2906C32.3745 26.0295 32.3273 25.7756 32.2566 25.5308C31.8178 23.9785 32.1007 22.312 33.0164 20.9864L33.1234 20.8305C34.0265 19.523 35.528 18.785 37.1183 18.7958C37.3051 18.7958 37.4955 18.7886 37.6859 18.7687C40.5184 18.4858 42.6455 15.9724 42.4515 13.1326C42.2575 10.3128 39.9128 8.1875 37.1655 8.1875C36.9315 8.1875 36.6958 8.202 36.4582 8.23464" fill="white"/>
</mask>
<g mask="url(#mask0_7104_93)">
<path d="M20.6084 -5.00527L2.53125 25.1875L34.7451 44.4747L52.8222 14.2819L20.6084 -5.00527Z" fill="#B4B4B4"/>
</g>
<circle cx="38.5847" cy="24.9558" r="3.07299" fill="#B4B4B4"/>
</svg>
