<svg width="110" height="40" viewBox="0 0 110 40" fill="none" xmlns="http://www.w3.org/2000/svg">
<path d="M30.9423 18.9763C31.3456 18.6315 31.7373 18.2741 32.1237 17.9219C33.7384 16.4402 35.2765 14.8774 36.7322 13.2395C38.584 11.1192 39.0549 10.1629 38.6115 9.44379C38.3127 8.96616 36.9085 7.79688 36.0269 7.79688C35.5898 7.79688 34.9353 8.8291 34.9353 8.8291C33.8425 10.7849 31.6539 13.4894 29.4452 15.674C29.9921 13.6707 30.538 12.1198 30.9751 11.3511L30.9993 11.31L31.0183 11.2657C31.0289 11.2404 31.3773 10.6004 31.3773 10.3495C31.3773 9.05684 28.7812 8.52017 28.4211 8.52017C27.6103 8.52017 27.1542 9.36366 26.6263 10.8334C26.1465 12.2377 25.7412 13.6662 25.4122 15.1131C24.7566 17.884 23.9922 21.9844 23.9922 24.42C23.9922 25.623 25.6065 26.36 26.4859 26.36C27.1679 26.36 27.6261 25.9024 27.6261 25.2213C27.6261 24.5402 27.8141 23.1621 28.1329 21.4445C29.3302 23.083 30.3648 25.0294 31.7679 25.9952C34.9353 28.1798 37.8629 26.0152 37.8629 26.0152C37.7425 25.7695 34.7695 25.4016 30.9423 18.9763Z" fill="#B4B4B4"/>
<path d="M84.5841 13.1445C84.2273 13.0871 83.8673 13.0519 83.5062 13.039C83.0257 13.0366 82.5483 13.1161 82.0946 13.2741C81.4281 13.5096 81.0163 13.9208 80.8593 14.5077C80.7678 15.0827 80.6566 15.67 80.5257 16.2696C80.3427 17.0793 79.9672 18.146 79.3992 19.4696C78.8833 20.6927 78.2738 21.8743 77.5759 23.0038C76.9284 24.035 76.3762 24.5505 75.9194 24.5505C75.6836 24.5505 75.5661 24.3154 75.5668 23.8452C75.5721 23.5827 75.5982 23.3212 75.6449 23.0628C75.8514 21.9735 76.1365 20.9006 76.4979 19.8523C76.9097 18.6124 77.3637 17.4375 77.8599 16.3276C78.3561 15.2177 78.7939 14.3956 79.1733 13.8614C78.7067 13.537 78.1808 13.3073 77.6255 13.1856C77.1691 13.0756 76.7023 13.0134 76.2329 13C75.8973 12.9996 75.5623 13.0325 75.2331 13.0981C74.9193 13.1531 74.6227 13.2809 74.3675 13.4714C74.1122 13.6619 73.9053 13.9096 73.7635 14.1946C73.2536 15.389 72.8212 16.6149 72.4691 17.8648C72.0778 19.2292 71.8557 20.293 71.8029 21.0564C71.7501 21.8197 71.7241 22.3188 71.7248 22.5536C71.7248 23.5454 71.8881 24.4001 72.2147 25.1178C72.6201 25.9613 73.3233 26.5222 74.3801 26.6498C74.4118 26.6498 75.8803 26.8954 77.2402 26.0172C77.638 25.7497 78.0052 25.4392 78.335 25.0914C78.2009 25.4794 77.5052 27.3172 77.237 27.8328C75.1983 31.7677 71.3606 30.0005 70.4262 28.8745C70.2256 29.6473 71.5474 32.0376 73.943 32.5004C75.2543 32.7556 76.8157 32.4867 77.768 31.9385C78.9294 31.2689 79.9208 29.893 80.399 29.1644C81.4246 27.5977 82.3001 25.7476 83.0258 23.6143C83.7515 21.4809 84.3754 19.4548 84.8977 17.5359C85.3017 16.0345 85.6677 14.8075 85.9957 13.8551C85.6083 13.4806 85.116 13.2327 84.5841 13.1445V13.1445Z" fill="#B4B4B4"/>
<path d="M50.7516 27.225C50.6624 27.2253 50.5766 27.2587 50.5108 27.3189C49.7792 27.9736 48.317 29.0712 46.7428 29.0712C45.6089 29.0712 44.6312 28.4839 43.8268 27.3262C43.7973 27.2812 43.7571 27.2441 43.7097 27.2185C43.6623 27.1929 43.6093 27.1796 43.5554 27.1797C43.4859 27.1827 43.4181 27.2029 43.3583 27.2384C43.2984 27.2739 43.2483 27.3236 43.2123 27.3832C43.1752 27.4395 43.1535 27.5046 43.1492 27.5719C43.145 27.6392 43.1583 27.7064 43.188 27.767C43.7444 28.8951 44.9987 30.7961 47.1429 30.8478H47.2337C49.2291 30.8478 50.5753 29.1893 51.1211 27.7701C51.1445 27.7096 51.1526 27.6443 51.1447 27.5799C51.1368 27.5156 51.1131 27.4541 51.0757 27.4011C51.0395 27.3482 50.9913 27.3046 50.9349 27.274C50.8786 27.2434 50.8157 27.2266 50.7516 27.225V27.225Z" fill="#B4B4B4"/>
<path d="M71.6402 16.6405C71.6402 14.226 70.6404 12.9794 68.6407 12.9007C68.1312 12.9007 67.5888 13.1193 67.0138 13.5565C66.3835 14.0498 65.823 14.6262 65.3478 15.2699C65.504 14.7356 65.661 14.2658 65.8187 13.8602C65.3605 13.4553 64.8832 13.217 64.387 13.1453C64.0236 13.0871 63.6569 13.0519 63.289 13.0399C62.8091 13.0396 62.3324 13.1191 61.8785 13.275C61.2239 13.5105 60.8185 13.9217 60.6623 14.5086C60.2695 16.4458 59.9176 18.1029 59.6065 19.4799C59.6037 19.4832 59.6012 19.4867 59.5991 19.4905L59.3056 19.9892C58.9445 20.6861 57.5931 23.3273 55.6769 24.1813C52.1929 25.7355 52.5307 21.6129 52.5476 21.42C52.591 20.9428 52.6747 20.4702 52.7978 20.0071C52.9942 20.2686 53.2972 20.3898 53.7005 20.4383C54.6601 20.531 55.6249 20.326 56.4635 19.8511C57.2553 19.3935 57.8096 18.493 58.1527 17.1877C58.217 16.8986 58.2499 16.6035 58.2509 16.3073C58.2517 15.8871 58.1803 15.4698 58.0397 15.0737C57.804 14.3932 57.361 13.8034 56.7728 13.3868C56.1661 12.9439 55.4049 12.7222 54.4892 12.7215C53.4924 12.7048 52.516 13.0038 51.6998 13.5755C50.8766 14.157 50.1879 14.908 49.6801 15.7781C49.1665 16.6252 48.7865 17.5462 48.5536 18.5089C48.4748 18.8455 48.4104 19.1713 48.3604 19.4863L48.0669 19.985C47.7059 20.6819 46.3545 23.3231 44.4382 24.1771C40.9542 25.7312 41.292 21.6087 41.3089 21.4157C41.3521 20.9393 41.4354 20.4674 41.5581 20.005C41.7545 20.2665 42.0575 20.3877 42.4608 20.4362C43.4203 20.5289 44.3851 20.3238 45.2237 19.849C46.0155 19.3914 46.5698 18.4909 46.913 17.1856C46.9772 16.8965 47.0102 16.6014 47.0112 16.3052C47.012 15.885 46.9406 15.4677 46.8 15.0716C46.5642 14.3911 46.1212 13.8012 45.5331 13.3847C44.9264 12.9418 44.1651 12.7201 43.2494 12.7194C42.2551 12.7035 41.2811 13.0016 40.4664 13.5713C39.6432 14.1527 38.9544 14.9038 38.4467 15.7738C37.9331 16.621 37.5531 17.542 37.3202 18.5046C37.116 19.328 37.0073 20.1721 36.9961 21.0203C36.9961 22.3256 37.2576 23.4348 37.7805 24.3479C38.3436 25.2357 39.02 25.7871 39.8097 26.0022C40.4754 26.1985 41.164 26.3069 41.8579 26.3248C42.339 26.3238 42.8186 26.2715 43.2885 26.1688C44.3061 25.9491 45.2467 25.4625 46.0134 24.7591C46.6264 24.1521 47.1481 23.4596 47.5623 22.7031C47.832 22.2428 48.0586 21.7585 48.239 21.2565C48.2686 22.4592 48.529 23.4897 49.0203 24.3479C49.5834 25.2357 50.2598 25.7871 51.0495 26.0022C51.7152 26.1985 52.4038 26.3069 53.0977 26.3248C53.5787 26.3238 54.0583 26.2715 54.5282 26.1688C55.5459 25.9491 56.4865 25.4625 57.2532 24.7591C57.8662 24.1521 58.3879 23.4596 58.802 22.7031C58.8738 22.5798 58.9414 22.4564 59.0058 22.333C58.689 23.9789 58.4103 25.5689 58.4103 25.5689C58.2129 27.1757 57.6966 29.722 59.6297 31.5851C61.0139 32.9188 62.9797 32.1702 63.1507 32.0543C62.8266 32.0036 62.3293 31.6757 61.8954 31.0958C61.414 30.4516 61.338 29.5712 61.4098 28.869C61.6135 26.9058 62.5299 24.485 62.5299 24.485C62.8044 25.5035 63.7064 26.0124 65.2359 26.0117C66.2547 26.0285 67.2516 25.716 68.078 25.1208C68.9173 24.5091 69.6157 23.725 70.1262 22.8212C70.6739 21.8675 71.0676 20.8334 71.2928 19.7572C71.5174 18.7333 71.6338 17.6887 71.6402 16.6405V16.6405ZM53.425 18.2653C53.6913 17.6136 54.0551 17.0061 54.504 16.4634C54.908 15.9946 55.3 15.7338 55.6801 15.6811C55.8063 15.6816 55.929 15.723 56.0297 15.799C56.1304 15.8751 56.2037 15.9817 56.2386 16.1028C56.3287 16.3308 56.3784 16.5727 56.3853 16.8177C56.3981 17.1726 56.3136 17.5242 56.141 17.8347C55.9683 18.1452 55.714 18.4027 55.4056 18.5795C54.9474 18.8796 54.3463 19.0297 53.6023 19.0297L53.1315 19.0097C53.2077 18.7536 53.3059 18.5045 53.425 18.2653V18.2653ZM42.1852 18.2653C42.4515 17.6136 42.8154 17.0061 43.2642 16.4634C43.6682 15.9946 44.0603 15.7338 44.4403 15.6811C44.5666 15.6816 44.6892 15.723 44.7899 15.799C44.8906 15.8751 44.9639 15.9817 44.9988 16.1028C45.089 16.3308 45.1386 16.5727 45.1456 16.8177C45.1584 17.1726 45.0739 17.5242 44.9012 17.8347C44.7286 18.1452 44.4743 18.4027 44.1658 18.5795C43.7076 18.8796 43.1066 19.0297 42.3626 19.0297L41.8917 19.0097C41.9679 18.7536 42.0661 18.5045 42.1852 18.2653ZM66.5862 20.7125C66.3134 21.6366 65.9283 22.524 65.4396 23.3547C64.9878 24.0991 64.5271 24.4973 64.0576 24.5493C63.5994 24.5493 63.3707 24.1838 63.3714 23.4528C63.3714 22.6444 63.5474 21.5939 63.8993 20.3013V20.2623C63.9714 20.0708 64.0303 19.8745 64.0756 19.675C64.3712 18.7283 64.7646 17.8148 65.2496 16.9495C65.6944 16.1763 66.1192 15.7897 66.5239 15.7897C66.8758 15.7897 67.0785 15.9626 67.132 16.3084C67.1789 16.5965 67.205 16.8875 67.2102 17.1793C67.2102 18.0987 67.0022 19.2764 66.5862 20.7125Z" fill="#B4B4B4"/>
</svg>
