<svg width="110" height="40" viewBox="0 0 110 40" fill="none" xmlns="http://www.w3.org/2000/svg">
<path d="M1.45387 26.5553C1.19451 26.4688 1.08645 26.3175 1.08645 26.1014C1.08645 25.9718 1.10806 25.8853 1.1729 25.7989C1.23774 25.734 1.32419 25.6692 1.47548 25.6044C1.75645 25.4963 1.95098 25.3666 2.08065 25.2153C2.21033 25.0641 2.27517 24.8912 2.31839 24.6751C2.34001 24.4806 2.36162 24.1564 2.36162 23.7458V20.2663C2.36162 19.9637 2.34001 19.726 2.27517 19.5963C2.21033 19.4667 2.08065 19.3802 1.86452 19.3586C1.58355 19.337 1.36742 19.3154 1.21613 19.2722C1.06484 19.2289 1 19.1209 1 18.948C1 18.7751 1.06484 18.6454 1.1729 18.559C1.28097 18.4725 1.45387 18.3645 1.71323 18.278C2.36162 18.0619 2.90195 17.889 3.3126 17.781C3.72324 17.6729 4.06906 17.6081 4.35003 17.6081C4.60938 17.6081 4.8039 17.6513 4.91196 17.7593C5.02003 17.8674 5.08487 18.0187 5.08487 18.2564V18.9264C5.08487 19.0776 5.08487 19.2073 5.10648 19.2722C5.1281 19.337 5.14971 19.3802 5.17132 19.3802C5.19293 19.3802 5.27938 19.2073 5.4739 18.8831C5.66842 18.559 5.971 18.2348 6.44649 17.9538C6.90037 17.6513 7.48392 17.5 8.17554 17.5C8.73748 17.5 9.21297 17.6513 9.62362 17.9322C10.0343 18.2132 10.3585 18.6238 10.5962 19.1425C10.6394 19.2505 10.6827 19.3154 10.7043 19.337C10.7259 19.3586 10.7691 19.3802 10.7907 19.3802C10.8339 19.3802 10.942 19.2073 11.1149 18.8615C11.3094 18.5157 11.5904 18.2132 12.0011 17.9322C12.4117 17.6513 12.952 17.5 13.622 17.5C14.4001 17.5 15.0485 17.7593 15.5456 18.2564C16.0643 18.7751 16.3885 19.5963 16.5182 20.7417L16.8424 23.6809C16.8856 24.1996 16.9504 24.5454 16.9937 24.7615C17.0369 24.9776 17.1233 25.1073 17.2314 25.2153C17.3395 25.3234 17.5124 25.4098 17.7717 25.5179C17.9014 25.6044 18.0095 25.6908 18.0743 25.7772C18.1392 25.8637 18.1824 25.9718 18.1824 26.1014C18.1824 26.2959 18.0959 26.4256 17.923 26.5337C17.7501 26.6417 17.4043 26.6849 16.9288 26.6849L15.8266 26.6633L14.7243 26.6849C14.1191 26.6849 13.6869 26.6417 13.4707 26.5553C13.233 26.4688 13.1249 26.3175 13.1249 26.1014C13.1249 25.8637 13.2546 25.6692 13.514 25.5395C13.8166 25.4315 14.0111 25.3234 14.0975 25.2153C14.2056 25.0857 14.2488 24.8696 14.2488 24.5238C14.2488 24.4157 14.2272 24.1132 14.184 23.5729L13.9246 21.1956C13.7949 19.9637 13.3411 19.3586 12.5414 19.3586C12.282 19.3586 12.0227 19.445 11.7849 19.6179C11.5256 19.7908 11.331 20.0718 11.1581 20.4392C11.0069 20.8066 10.9204 21.2604 10.9204 21.8007V23.7241C10.9204 24.1348 10.942 24.4589 10.9636 24.6751C10.9852 24.8912 11.0501 25.0857 11.1798 25.2586C11.2878 25.4315 11.4823 25.5827 11.7417 25.6908C11.8714 25.7772 11.9362 25.9069 11.9362 26.1014C11.9362 26.2959 11.8714 26.4472 11.7201 26.5337C11.5688 26.6201 11.3527 26.6633 11.0285 26.6633L9.58039 26.6417L8.17554 26.6633C7.82973 26.6633 7.57037 26.6201 7.44069 26.512C7.2894 26.404 7.22456 26.2743 7.22456 26.0798C7.22456 25.8421 7.33263 25.6692 7.52714 25.5611C7.82973 25.4315 8.02425 25.2153 8.1107 24.956C8.19715 24.6967 8.24038 24.2644 8.24038 23.7241V21.3901C8.24038 20.0069 7.76489 19.337 6.81392 19.337C6.57617 19.337 6.31682 19.4234 6.05746 19.5963C5.7981 19.7692 5.58197 20.0502 5.38745 20.4392C5.21455 20.8282 5.12809 21.3253 5.12809 21.9304V23.7458C5.12809 24.3293 5.17132 24.7615 5.25777 24.9992C5.34422 25.2586 5.53875 25.4315 5.86294 25.5611C5.97101 25.6044 6.03584 25.6908 6.10068 25.7989C6.16552 25.9069 6.18714 26.015 6.18714 26.123C6.18714 26.3175 6.07907 26.4688 5.88455 26.5553C5.69003 26.6417 5.25777 26.6849 4.58777 26.6849L3.78809 26.6633L3.03163 26.6849C2.21033 26.7065 1.71323 26.6417 1.45387 26.5553Z" fill="#B4B4B4"/>
<path d="M21.1418 26.2035C20.4502 25.7713 19.9098 25.1877 19.5424 24.4746C19.175 23.7614 18.9805 22.9618 18.9805 22.0973C18.9805 21.2112 19.1966 20.4116 19.6289 19.6984C20.0611 19.0068 20.6231 18.4665 21.3363 18.0775C22.0495 17.6885 22.8276 17.5156 23.6489 17.5156C24.427 17.5156 25.097 17.6885 25.6805 18.0127C26.2641 18.3369 26.6963 18.7475 26.9989 19.2229C27.3015 19.6984 27.4528 20.1955 27.4528 20.6709C27.4528 21.1464 27.3447 21.4706 27.1286 21.6651C26.9125 21.8596 26.5234 21.9892 26.0047 22.0757L22.3305 22.616C22.2008 22.6376 22.1144 22.6808 22.0711 22.724C22.0279 22.7672 22.0063 22.8321 22.0063 22.9185C22.0063 23.2427 22.1144 23.5669 22.3089 23.891C22.5034 24.2152 22.7844 24.4962 23.1518 24.7339C23.5192 24.9716 23.9515 25.0797 24.4486 25.0797C24.9889 25.0797 25.4644 24.9716 25.875 24.7555C26.2857 24.5394 26.6099 24.2801 26.8692 23.9559C26.9773 23.8478 27.0637 23.783 27.1718 23.783C27.3231 23.783 27.4312 23.8262 27.496 23.9127C27.5609 23.9991 27.6041 24.1072 27.6041 24.2152C27.6041 24.2584 27.5825 24.3233 27.5608 24.4097C27.3231 25.1013 26.8692 25.6848 26.1992 26.1603C25.5292 26.6357 24.6647 26.8951 23.6057 26.8951C22.6547 26.8302 21.855 26.6141 21.1418 26.2035ZM24.4053 21.0167C24.6215 20.9735 24.7512 20.9086 24.8376 20.8222C24.9241 20.7358 24.9673 20.6061 24.9673 20.4548C24.9673 20.1955 24.9024 19.9361 24.7728 19.6552C24.6431 19.3742 24.4486 19.1365 24.1892 18.9636C23.9299 18.7691 23.6489 18.6827 23.3247 18.6827C22.8492 18.6827 22.4818 18.8772 22.1576 19.2446C21.855 19.6336 21.7037 20.1306 21.7037 20.8006C21.7037 21.0383 21.7253 21.1896 21.7685 21.2977C21.8118 21.3841 21.8766 21.4273 21.9847 21.4273C22.0279 21.4273 22.0927 21.4057 22.1792 21.3841L24.4053 21.0167Z" fill="#B4B4B4"/>
<path d="M29.8549 23.76V19.308C29.8549 19.0271 29.7252 18.8758 29.4442 18.8758H29.1416C28.9904 18.8758 28.8607 18.8326 28.7742 18.7245C28.6878 18.6164 28.6445 18.4868 28.6445 18.3571C28.6445 18.141 28.7526 17.86 28.9903 17.5575L29.2713 17.1685C29.7036 16.5417 30.1358 16.0447 30.5681 15.6773C31.1084 15.2883 31.6055 15.0938 32.0594 15.0938C32.2323 15.0938 32.3404 15.137 32.4268 15.245C32.4917 15.3531 32.5349 15.526 32.5349 15.7637V16.8659C32.5349 17.082 32.5349 17.2549 32.5565 17.3846C32.5781 17.5142 32.5997 17.6007 32.6429 17.6439C32.6862 17.6871 32.7726 17.7088 32.8807 17.7088H35.1068C35.2798 17.7088 35.3878 17.7304 35.4526 17.7736C35.5175 17.8168 35.5391 17.9465 35.5391 18.141C35.5391 18.3787 35.4743 18.5732 35.3446 18.7029C35.2149 18.8326 35.042 18.8974 34.8259 18.8974H32.9888C32.6646 18.8974 32.5133 19.0487 32.5133 19.3296V23.371C32.5133 23.8897 32.6213 24.3003 32.8591 24.5812C33.0968 24.8622 33.3994 24.9919 33.8101 24.9919C34.0478 24.9919 34.3072 24.927 34.5665 24.7974C34.8475 24.6677 35.0852 24.4948 35.3014 24.2355C35.4094 24.1058 35.5391 24.041 35.6472 24.041C35.7552 24.041 35.8417 24.0842 35.9281 24.1706C35.993 24.2571 36.0362 24.3867 35.993 24.5164C35.7985 25.2728 35.431 25.8563 34.8691 26.2453C34.3288 26.6343 33.6155 26.8289 32.751 26.8289C30.8275 26.8072 29.8549 25.7915 29.8549 23.76Z" fill="#B4B4B4"/>
<path d="M38.0882 26.1134C37.6127 25.6379 37.375 25.0112 37.375 24.2548C37.375 23.4119 37.7424 22.7204 38.4773 22.2017C39.2121 21.683 40.2063 21.3805 41.4166 21.3156C41.8489 21.294 42.1947 21.2508 42.3892 21.2076C42.6054 21.1643 42.735 21.0779 42.7999 20.9914C42.8647 20.905 42.8863 20.7537 42.8647 20.5808L42.8215 20.1918C42.7567 19.6947 42.6054 19.3274 42.3892 19.068C42.1731 18.8087 41.8705 18.7006 41.4599 18.7006C41.0708 18.7006 40.7466 18.8087 40.4657 19.0248C40.2063 19.2409 40.055 19.5651 39.9902 19.9973C39.8605 20.6457 39.4499 20.9482 38.7582 20.9482C38.5421 20.9482 38.3476 20.8618 38.1747 20.7105C38.0018 20.5592 37.9153 20.3431 37.9153 20.0621C37.9153 19.5651 38.1098 19.1328 38.4773 18.7438C38.8447 18.3548 39.3634 18.0523 39.9902 17.8145C40.617 17.5768 41.3086 17.4688 42.0866 17.4688C43.2321 17.4688 44.0751 17.7281 44.5938 18.2468C45.1125 18.7654 45.4367 19.5435 45.5447 20.5808L45.977 23.8874C46.0202 24.298 46.1067 24.5574 46.1931 24.7086C46.3012 24.8599 46.4093 24.9248 46.5822 24.9248C46.7335 24.9248 46.8631 24.8815 46.9928 24.7735C47.1225 24.6654 47.2089 24.6222 47.2738 24.6222C47.5115 24.6222 47.6196 24.7735 47.6196 25.0544C47.6196 25.3138 47.5331 25.5731 47.3602 25.8324C47.1873 26.0918 46.9496 26.3079 46.647 26.5024C46.3444 26.6753 46.0202 26.7617 45.6528 26.7617C45.1557 26.7617 44.7667 26.6537 44.4641 26.416C44.1831 26.1998 43.967 25.8541 43.8157 25.4218C43.7725 25.2922 43.7292 25.2273 43.6428 25.2273C43.5996 25.2273 43.4915 25.3786 43.2754 25.6596C43.0592 25.9405 42.735 26.2214 42.2595 26.4592C41.7841 26.6969 41.1357 26.8266 40.336 26.8266C39.3418 26.8266 38.5853 26.5888 38.0882 26.1134ZM42.7783 24.7951C43.1025 24.4493 43.2538 23.9738 43.2538 23.4119C43.2538 23.239 43.2538 23.1094 43.2321 23.0229L43.1889 22.8068C43.1457 22.5475 43.0592 22.3962 42.9079 22.3098C42.7566 22.2449 42.4541 22.2017 41.9786 22.2017C41.3302 22.2017 40.8547 22.353 40.5521 22.6339C40.2495 22.9149 40.0982 23.3039 40.0982 23.7793C40.0982 24.2764 40.2279 24.6654 40.4657 24.9248C40.725 25.1841 41.0925 25.3138 41.5679 25.3138C42.065 25.3138 42.4541 25.1409 42.7783 24.7951Z" fill="#B4B4B4"/>
<path d="M52.2659 26.5644C51.8768 26.3699 51.5094 26.1537 51.2284 25.8728C51.0771 25.7215 50.9474 25.6351 50.8826 25.6351C50.7529 25.6351 50.6016 25.7647 50.4287 26.0241C50.2774 26.2186 50.1262 26.3699 49.9965 26.4779C49.8668 26.586 49.6939 26.6292 49.4994 26.6292C49.2184 26.6292 49.1103 26.4563 49.1536 26.1321C49.2184 25.7431 49.2616 25.3109 49.2832 24.8787C49.3048 24.4248 49.3265 23.8197 49.3265 23.0417V16.2772C49.3265 15.9963 49.2832 15.7802 49.2184 15.6505C49.1536 15.4992 49.0239 15.4128 48.851 15.3912C48.7861 15.3696 48.6565 15.3696 48.4836 15.3263C48.3107 15.3047 48.181 15.2615 48.0945 15.1967C48.0081 15.1318 47.9648 15.067 47.9648 14.9589C47.9648 14.8076 48.0297 14.678 48.1594 14.5915C48.289 14.5051 48.4619 14.397 48.7213 14.3106C48.8294 14.2674 49.0671 14.1809 49.4778 14.0512C49.8884 13.9216 50.2342 13.8135 50.5368 13.7487C50.8394 13.6838 51.0987 13.6406 51.2933 13.6406C51.5526 13.6406 51.7471 13.6838 51.8552 13.7703C51.9633 13.8567 52.0281 14.0296 52.0281 14.2674V19.0219C52.0281 19.1516 52.0281 19.238 52.0497 19.3029C52.0713 19.3677 52.0929 19.4109 52.1146 19.4109C52.1362 19.4109 52.2659 19.238 52.482 18.8922C52.6981 18.5465 53.0439 18.2223 53.4978 17.9197C53.9517 17.6172 54.492 17.4875 55.1404 17.4875C55.7672 17.4875 56.3507 17.6604 56.8694 18.0062C57.3881 18.352 57.8204 18.849 58.123 19.4974C58.4472 20.1457 58.5985 20.9237 58.5985 21.8098C58.5985 22.7607 58.404 23.6252 57.9933 24.4032C57.6043 25.1812 57.0423 25.7647 56.3075 26.197C55.5943 26.6292 54.773 26.8453 53.8868 26.8453C53.2168 26.8237 52.6549 26.7373 52.2659 26.5644ZM55.2917 24.9435C55.6159 24.4896 55.7888 23.8197 55.7888 22.912C55.7888 21.7882 55.6375 20.9021 55.3133 20.2754C55.0107 19.6486 54.5352 19.3245 53.9517 19.3245C53.3897 19.3245 52.9358 19.5622 52.5684 20.0377C52.201 20.5131 52.0065 21.1182 52.0065 21.8314V22.0475C52.0065 23.2362 52.1794 24.1222 52.5252 24.7274C52.871 25.3109 53.3465 25.6135 53.9733 25.6135C54.5352 25.6351 54.9675 25.3973 55.2917 24.9435Z" fill="#B4B4B4"/>
<path d="M62.5535 26.2256C61.7754 25.815 61.1919 25.2531 60.7596 24.5399C60.3273 23.8267 60.1328 23.0271 60.1328 22.1194C60.1328 21.2117 60.3489 20.4121 60.7596 19.6989C61.1919 18.9857 61.7754 18.4238 62.5535 18.0348C63.3099 17.6458 64.1961 17.4297 65.1687 17.4297C66.1412 17.4297 67.0274 17.6242 67.7838 18.0348C68.5403 18.4238 69.1455 18.9857 69.5777 19.6989C70.01 20.4121 70.2045 21.2117 70.2045 22.1194C70.2045 23.0271 69.9884 23.8483 69.5777 24.5399C69.1455 25.2531 68.5619 25.815 67.7838 26.204C67.0058 26.593 66.1412 26.8091 65.1687 26.8091C64.1961 26.8307 63.3315 26.6362 62.5535 26.2256ZM66.8329 24.9721C67.1787 24.5399 67.3516 23.9348 67.3516 23.1784C67.3516 22.53 67.2435 21.8817 67.049 21.1685C66.8545 20.4769 66.5735 19.8934 66.1845 19.418C65.8171 18.9425 65.3848 18.7048 64.8877 18.7048C64.3257 18.7048 63.8719 18.9209 63.5045 19.3531C63.1587 19.7854 62.9641 20.3905 62.9641 21.1253C62.9641 21.7952 63.0722 22.4652 63.2667 23.1784C63.4612 23.8699 63.7422 24.4535 64.1096 24.9289C64.477 25.4044 64.9093 25.6421 65.4064 25.6421C66.0116 25.6421 66.4871 25.426 66.8329 24.9721Z" fill="#B4B4B4"/>
<path d="M71.6747 26.5685C71.4154 26.4605 71.2857 26.3092 71.2857 26.0931C71.2857 25.8553 71.4153 25.7041 71.6531 25.596C71.9341 25.4879 72.1502 25.3799 72.2799 25.2286C72.4096 25.0773 72.496 24.9044 72.5176 24.6883C72.5392 24.4938 72.5608 24.1912 72.5608 23.7806V16.2814C72.5608 15.9788 72.5392 15.7627 72.4744 15.6114C72.4096 15.4602 72.2799 15.3953 72.0637 15.3737C71.7395 15.3305 71.5234 15.2873 71.3937 15.244C71.2641 15.2008 71.1992 15.0928 71.1992 14.9415C71.1992 14.7686 71.2641 14.6389 71.3937 14.5525C71.5234 14.466 71.6963 14.3796 71.9557 14.2931C72.5392 14.077 73.0579 13.9257 73.4686 13.7961C73.9009 13.6664 74.2467 13.6016 74.5276 13.6016C74.787 13.6016 74.9815 13.6448 75.0896 13.7312C75.1976 13.8177 75.2625 13.9906 75.2625 14.2283V23.7374C75.2625 24.148 75.2841 24.4506 75.3057 24.6451C75.3273 24.8396 75.4138 25.0125 75.5434 25.1638C75.6731 25.315 75.8676 25.4447 76.1486 25.5528C76.2783 25.6176 76.3864 25.6824 76.4512 25.7689C76.516 25.8553 76.5593 25.9418 76.5593 26.0715C76.5593 26.2876 76.4296 26.4605 76.1918 26.5469C75.9541 26.655 75.457 26.6982 74.7005 26.6982H73.1444C72.4312 26.7198 71.9341 26.6766 71.6747 26.5685Z" fill="#B4B4B4"/>
<path d="M78.288 26.5665C78.0286 26.4584 77.899 26.3072 77.899 26.091C77.899 25.8533 78.0286 25.702 78.2664 25.594C78.5474 25.4859 78.7635 25.3779 78.8932 25.2266C79.0228 25.0753 79.1093 24.9024 79.1309 24.6863C79.1525 24.4918 79.1741 24.1892 79.1741 23.7786V20.2343C79.1741 19.9317 79.1525 19.7156 79.0877 19.5643C79.0228 19.413 78.8932 19.3266 78.677 19.3266C78.3961 19.305 78.1799 19.2834 78.0286 19.2402C77.8773 19.1969 77.8125 19.0889 77.8125 18.9376C77.8125 18.7647 77.8773 18.635 78.007 18.5486C78.1367 18.4621 78.3096 18.3541 78.569 18.2676C79.8225 17.8354 80.687 17.5977 81.1409 17.5977C81.4003 17.5977 81.5948 17.6409 81.7029 17.7273C81.8109 17.8138 81.8758 17.9867 81.8758 18.2244V23.7786C81.8758 24.1892 81.8974 24.4918 81.919 24.6863C81.9406 24.8808 82.0271 25.0537 82.1567 25.205C82.2864 25.3562 82.4809 25.4859 82.7619 25.594C82.8916 25.6588 82.978 25.7236 83.0429 25.8101C83.1077 25.8965 83.1509 25.983 83.1509 26.1126C83.1509 26.3288 83.0213 26.5017 82.7835 26.5881C82.5458 26.6962 82.0487 26.7394 81.3138 26.7394H79.7577C79.0444 26.7178 78.5473 26.6745 78.288 26.5665ZM79.0661 16.1065C78.7419 15.8687 78.569 15.5662 78.569 15.1772C78.569 14.8098 78.7419 14.5072 79.0661 14.2911C79.3903 14.0534 79.8225 13.9453 80.3629 13.9453C80.8816 13.9453 81.2922 14.0534 81.5948 14.2911C81.919 14.5288 82.0703 14.8098 82.0703 15.1772C82.0703 15.5662 81.919 15.8687 81.5948 16.1065C81.2922 16.3442 80.86 16.4523 80.3629 16.4523C79.8225 16.4523 79.3903 16.3442 79.0661 16.1065Z" fill="#B4B4B4"/>
<path d="M91.2113 26.7461C90.6277 26.6597 90.109 26.6164 89.6551 26.6164H85.2893C85.0515 26.6164 84.8786 26.5732 84.7706 26.4868C84.6625 26.4003 84.5977 26.3139 84.5977 26.1842C84.5977 26.0113 84.7057 25.7736 84.9002 25.471L89.4174 19.2901C89.4606 19.2469 89.4822 19.182 89.4822 19.0956C89.4822 18.9659 89.4174 18.9011 89.2877 18.9011H87.2345C86.9751 18.9011 86.7806 18.9875 86.6293 19.1388C86.478 19.2901 86.3267 19.6359 86.1754 20.133C86.0673 20.3707 85.9593 20.522 85.8512 20.63C85.7431 20.7165 85.5919 20.7597 85.3973 20.7597C85.2461 20.7597 85.1164 20.7165 85.0299 20.63C84.9435 20.5436 84.9002 20.3707 84.9002 20.0897C84.9002 19.852 84.9651 19.5062 85.0731 19.0524C85.2028 18.5553 85.2893 18.2095 85.3757 17.9934C85.4622 17.7773 85.5486 17.6476 85.6351 17.5612C85.7431 17.4963 85.8728 17.4531 86.0457 17.4531C86.1754 17.4531 86.3483 17.4747 86.5212 17.518C87.0616 17.6044 87.6019 17.6476 88.1638 17.6476H92.5945C92.7674 17.6476 92.8971 17.6909 92.9835 17.7773C93.07 17.8637 93.1132 17.9502 93.1132 18.0582C93.1132 18.2311 93.0268 18.4256 92.8755 18.6201L88.3151 24.9956C88.2719 25.0388 88.2503 25.1036 88.2503 25.1901C88.2503 25.2981 88.3151 25.363 88.4448 25.363H90.5413C90.8222 25.363 91.0384 25.2765 91.1896 25.1036C91.3409 24.9307 91.4922 24.585 91.6435 24.0447C91.7516 23.8069 91.8596 23.6556 91.9677 23.5476C92.0974 23.4611 92.2487 23.4179 92.4216 23.4179C92.5729 23.4179 92.681 23.4611 92.789 23.5476C92.8755 23.634 92.9187 23.7853 92.9187 24.0447C92.9187 24.304 92.8538 24.6714 92.7242 25.1468C92.5945 25.6655 92.4864 26.0329 92.4 26.249C92.3135 26.4652 92.2271 26.6164 92.1406 26.6813C92.0542 26.7461 91.9029 26.7893 91.73 26.7893C91.6003 26.8109 91.4274 26.7893 91.2113 26.7461Z" fill="#B4B4B4"/>
<path d="M96.5285 26.2035C95.8369 25.7713 95.2965 25.1877 94.9291 24.4746C94.5617 23.7614 94.3672 22.9618 94.3672 22.0973C94.3672 21.2112 94.5833 20.4116 95.0156 19.6984C95.4478 19.0068 96.0098 18.4665 96.723 18.0775C97.4362 17.6885 98.2143 17.5156 99.0356 17.5156C99.8137 17.5156 100.484 17.6885 101.067 18.0127C101.651 18.3369 102.083 18.7475 102.386 19.2229C102.688 19.6984 102.84 20.1955 102.84 20.6709C102.84 21.1464 102.731 21.4706 102.515 21.6651C102.299 21.8596 101.91 21.9892 101.391 22.0757L97.7172 22.616C97.5875 22.6376 97.5011 22.6808 97.4579 22.724C97.4146 22.7672 97.393 22.8321 97.393 22.9185C97.393 23.2427 97.5011 23.5669 97.6956 23.891C97.8901 24.2152 98.1711 24.4962 98.5385 24.7339C98.9059 24.9716 99.3382 25.0797 99.8353 25.0797C100.376 25.0797 100.851 24.9716 101.262 24.7555C101.672 24.5394 101.997 24.2801 102.256 23.9559C102.364 23.8478 102.45 23.783 102.559 23.783C102.71 23.783 102.818 23.8262 102.883 23.9127C102.948 23.9991 102.991 24.1072 102.991 24.2152C102.991 24.2584 102.969 24.3233 102.948 24.4097C102.71 25.1013 102.256 25.6848 101.586 26.1603C100.916 26.6357 100.051 26.8951 98.9924 26.8951C98.0414 26.8302 97.2201 26.6141 96.5285 26.2035ZM99.7705 21.0167C99.9866 20.9735 100.116 20.9086 100.203 20.8222C100.289 20.7358 100.332 20.6061 100.332 20.4548C100.332 20.1955 100.268 19.9361 100.138 19.6552C100.008 19.3742 99.8137 19.1365 99.5543 18.9636C99.295 18.7691 99.014 18.6827 98.6898 18.6827C98.2143 18.6827 97.8469 18.8772 97.5227 19.2446C97.2201 19.6336 97.0688 20.1306 97.0688 20.8006C97.0688 21.0383 97.0904 21.1896 97.1337 21.2977C97.1769 21.3841 97.2417 21.4273 97.3498 21.4273C97.393 21.4273 97.4579 21.4057 97.5443 21.3841L99.7705 21.0167Z" fill="#B4B4B4"/>
<path d="M109.002 15.9615C109.002 15.7022 108.613 15.4861 107.986 15.3132C107.143 15.097 106.473 14.4055 106.235 13.5626C106.062 12.9359 105.846 12.5469 105.587 12.5469C105.327 12.5469 105.111 12.9359 104.938 13.5626C104.722 14.4055 104.031 15.0754 103.188 15.3132C102.561 15.4861 102.172 15.7022 102.172 15.9615C102.172 16.2208 102.561 16.437 103.188 16.6099C104.031 16.826 104.701 17.5175 104.938 18.3604C105.111 18.9871 105.327 19.3761 105.587 19.3761C105.846 19.3761 106.062 18.9871 106.235 18.3604C106.451 17.5175 107.143 16.8476 107.986 16.6099C108.613 16.437 109.002 16.1992 109.002 15.9615Z" fill="#B4B4B4"/>
</svg>
