<svg width="110" height="40" viewBox="0 0 110 40" fill="none" xmlns="http://www.w3.org/2000/svg">
<path d="M15.7106 11.4219C10.8997 11.4219 7 15.4066 7 20.321C7 25.2341 10.8997 29.2188 15.7106 29.2188C17.1481 29.2188 18.5062 28.8619 19.699 28.2321L16.9378 24.9192C16.5464 25.0278 16.1364 25.0848 15.7106 25.0848C13.1333 25.0848 11.0439 22.9513 11.0439 20.3197C11.0439 17.6881 13.132 15.5545 15.7106 15.5545C18.2893 15.5545 20.376 17.6881 20.376 20.3197C20.376 20.948 20.2583 21.5466 20.0428 22.0949L22.8344 25.4444C23.8354 23.9949 24.4239 22.2279 24.4239 20.3197C24.4239 15.4066 20.5228 11.4219 15.712 11.4219H15.7106ZM19.7201 22.7572C19.6024 22.958 19.4728 23.1508 19.3274 23.3313C19.01 23.7276 18.6305 24.0723 18.2047 24.3478C18.0156 24.4727 17.8159 24.5813 17.6069 24.6749L20.2888 27.8915C20.4792 27.772 20.663 27.6458 20.8415 27.5101C21.2475 27.2101 21.6257 26.8722 21.9735 26.5044C22.1295 26.3402 22.2803 26.1692 22.4218 25.9941L19.7215 22.7572H19.7201Z" fill="#B4B4B4"/>
<path d="M52.3538 21.2859V21.3008C52.3538 21.5085 52.293 21.6645 52.1515 21.803C52.006 21.9468 51.8394 22.0133 51.6291 22.0133H45.6995C45.4932 22.0133 45.3411 21.9496 45.2036 21.8098C45.0661 21.6727 45.0039 21.5166 45.0039 21.3008V21.2859C45.0079 21.0809 45.0753 20.9154 45.2102 20.7702C45.3451 20.6249 45.4972 20.5625 45.6982 20.5625H51.6278C51.8354 20.5625 51.9941 20.629 52.1435 20.7783C52.2863 20.9235 52.3511 21.085 52.3538 21.2872V21.2859Z" fill="#B4B4B4"/>
<path d="M23.2265 27.6125C23.1948 28.0088 23.0348 28.3372 22.7491 28.5951L22.7293 28.6127C22.4675 28.8394 22.1726 28.9547 21.8499 28.9547C21.7996 28.9547 21.7481 28.952 21.6952 28.9466C21.317 28.9086 20.9917 28.7335 20.7364 28.4268L19.738 27.2284L17.0549 24.0118L16.6767 23.5558C16.4228 23.2518 16.3104 22.903 16.3408 22.5189C16.3686 22.1294 16.5312 21.8105 16.8367 21.5431L16.8565 21.5268C17.1237 21.3001 17.4331 21.1875 17.7743 21.1875C17.802 21.1875 17.8311 21.1875 17.8602 21.1902C18.2464 21.2119 18.573 21.3775 18.8282 21.6856L19.1681 22.0941L21.8671 25.331L22.8867 26.5552C23.1379 26.8579 23.253 27.2135 23.2265 27.6125V27.6125Z" fill="#B4B4B4"/>
<path d="M37.3617 20.6624C37.3617 21.721 37.1343 22.6629 36.6886 23.4596C36.2456 24.2508 35.6109 24.8778 34.8016 25.3243C33.9817 25.7763 33.0084 26.0057 31.9108 26.0057H29.2925V15.3191H31.9108C33.0084 15.3191 33.9804 15.5485 34.8016 16.0004C35.6109 16.4483 36.2456 17.0767 36.6886 17.8652C37.1343 18.6646 37.3617 19.6051 37.3617 20.6624ZM39.4339 16.6871C38.8137 15.4182 37.8735 14.3704 36.6437 13.5737C35.4112 12.773 33.8984 12.3672 32.1528 12.3672H27.773C27.3578 12.3672 26.9875 12.526 26.7019 12.83C26.4215 13.1259 26.2734 13.5032 26.2734 13.9198V27.428C26.2734 27.8487 26.4242 28.2247 26.7085 28.5151C26.9928 28.8069 27.3618 28.9603 27.773 28.9603H32.1528C33.8984 28.9603 35.4125 28.5531 36.6437 27.7537C37.8748 26.9571 38.8137 25.9079 39.4339 24.639C40.0488 23.3849 40.3583 22.0467 40.3583 20.6637C40.3583 19.2807 40.0475 17.9439 39.4339 16.6885V16.6871Z" fill="#B4B4B4"/>
<path d="M62.4427 29.2073C60.4353 29.2073 58.5284 28.8151 56.7749 28.0401C56.6466 27.9845 56.5461 27.899 56.4615 27.7741C56.3795 27.6533 56.3398 27.5325 56.3398 27.4022C56.3398 27.2244 56.3941 27.0806 56.5118 26.9503C56.6202 26.8309 56.7524 26.7738 56.9296 26.7738C57.0354 26.7738 57.132 26.7956 57.2285 26.8376C58.7744 27.542 60.4551 27.899 62.2219 27.899C66.1084 27.899 66.9243 26.1048 66.9243 24.5983C66.9243 23.974 66.6916 23.4474 66.234 23.0307C65.8267 22.6615 65.3229 22.3684 64.7344 22.1594C64.1883 21.9639 63.4028 21.7305 62.4004 21.4604C61.0992 21.1157 60.0333 20.7805 59.2372 20.4615C58.4834 20.1616 57.8262 19.7042 57.2827 19.1043C56.763 18.5289 56.5104 17.7716 56.5104 16.7876C56.5104 15.9244 56.7352 15.1291 57.1782 14.4261C57.6226 13.7217 58.2957 13.1503 59.1751 12.7269C60.0703 12.2966 61.1706 12.0781 62.4427 12.0781C64.1817 12.0781 65.7738 12.3468 67.1742 12.8789C67.4718 12.9874 67.5895 13.1625 67.5895 13.4842C67.5895 13.6511 67.5353 13.7977 67.4189 13.9375C67.3184 14.0596 67.1967 14.1139 67.0248 14.1139C67.0169 14.1139 66.9521 14.1112 66.7868 14.0447C65.4551 13.5738 64.0825 13.3376 62.686 13.3376C61.2896 13.3376 60.1933 13.609 59.3232 14.1492C58.3856 14.7287 57.9109 15.5566 57.9109 16.6125C57.9109 17.3305 58.1476 17.9249 58.6144 18.3823C59.0402 18.7976 59.5758 19.1233 60.2092 19.3513C60.799 19.5644 61.6096 19.7924 62.6186 20.0286C63.8788 20.338 64.9129 20.6529 65.6852 20.961C66.4099 21.2514 67.0394 21.7088 67.5551 22.3209C68.0497 22.9072 68.3009 23.7229 68.3009 24.7489C68.3009 25.5999 68.0695 26.3423 67.5948 27.0168C67.1187 27.694 66.435 28.2301 65.5609 28.6142C64.6696 29.0064 63.621 29.2046 62.4414 29.2046H62.444L62.4427 29.2073Z" fill="#B4B4B4"/>
<path d="M93.5916 28.9587C93.2769 28.9587 93.0163 28.8475 92.7942 28.6208C92.5707 28.3928 92.4609 28.1254 92.4609 27.8051V12.9384C92.4609 12.7307 92.5257 12.5652 92.6633 12.4186C92.7955 12.2761 92.9515 12.2109 93.1486 12.2109C93.3456 12.2109 93.5083 12.2802 93.6524 12.4254C93.7952 12.5706 93.8627 12.7348 93.8627 12.9398V27.5283H102.289C102.49 27.5283 102.649 27.5961 102.793 27.7427C102.936 27.8879 103.002 28.0521 103.002 28.2571C103.002 28.462 102.937 28.6167 102.799 28.7538C102.655 28.895 102.493 28.9601 102.29 28.9601H93.5916V28.9587Z" fill="#B4B4B4"/>
<path d="M80.2576 13.1387C76.4319 13.1605 73.3243 16.3675 73.3296 20.2885C73.3309 24.2094 76.457 27.4002 80.2973 27.4002C84.1494 27.3947 87.2822 24.1985 87.2861 20.2749C87.2861 16.3404 84.1521 13.1415 80.2999 13.1415H80.2576V13.1387ZM80.2893 28.7886C75.7046 28.7886 71.9675 24.9749 71.9648 20.2898C71.9596 15.6034 75.6755 11.768 80.247 11.7422H80.2946C82.5414 11.7422 84.6453 12.6284 86.2163 14.2381C87.7847 15.8436 88.6482 17.9866 88.6469 20.2722C88.6442 24.9654 84.8992 28.7845 80.2973 28.7872H80.288L80.2893 28.7886Z" fill="#B4B4B4"/>
<path d="M99.7663 14.055V12.5489H99.2422V12.2422H100.646V12.5489H100.123V14.055H99.7663Z" fill="#B4B4B4"/>
<path d="M100.872 14.055V12.2422H101.406L101.727 13.4788L102.044 12.2422H102.579V14.055H102.247V12.628L101.897 14.055H101.553L101.204 12.628V14.055H100.872Z" fill="#B4B4B4"/>
<path d="M24.1055 18.3359C24.1372 18.4784 24.165 18.6223 24.1901 18.7648C24.1663 18.6209 24.1359 18.4784 24.1055 18.3359Z" fill="#B4B4B4"/>
</svg>
