<svg width="110" height="40" viewBox="0 0 110 40" fill="none" xmlns="http://www.w3.org/2000/svg">
<g clip-path="url(#clip0_7010_359)">
<path d="M40.1448 25.5757C39.109 25.5757 38.1823 25.3304 37.3646 24.8398C36.5469 24.3355 35.8995 23.6541 35.4225 22.7955C34.9455 21.9369 34.707 20.9693 34.707 19.8927C34.707 18.8024 34.9523 17.828 35.443 16.9694C35.9472 16.1108 36.6286 15.4362 37.4872 14.9456C38.3458 14.4413 39.3134 14.1892 40.3901 14.1892C41.4531 14.1892 42.4071 14.4413 43.2521 14.9456C44.1106 15.4362 44.7852 16.1108 45.2759 16.9694C45.7801 17.828 46.0391 18.8024 46.0527 19.8927L45.3576 20.2402C45.3576 21.2487 45.126 22.155 44.6626 22.9591C44.2129 23.7631 43.5928 24.4037 42.8023 24.8807C42.0255 25.344 41.1396 25.5757 40.1448 25.5757ZM40.3901 24.0221C41.1533 24.0221 41.8279 23.8449 42.4139 23.4906C43.0136 23.1226 43.4837 22.6252 43.8244 21.9983C44.1788 21.3714 44.356 20.6695 44.356 19.8927C44.356 19.1022 44.1788 18.4004 43.8244 17.7871C43.4837 17.1602 43.0136 16.6627 42.4139 16.2948C41.8279 15.9268 41.1533 15.7428 40.3901 15.7428C39.6405 15.7428 38.9591 15.9268 38.3458 16.2948C37.7462 16.6627 37.2692 17.1602 36.9148 17.7871C36.5605 18.4004 36.3833 19.1022 36.3833 19.8927C36.3833 20.6695 36.5605 21.3714 36.9148 21.9983C37.2692 22.6252 37.7462 23.1226 38.3458 23.4906C38.9591 23.8449 39.6405 24.0221 40.3901 24.0221ZM45.1737 25.4735C44.9283 25.4735 44.7171 25.3986 44.5399 25.2486C44.3764 25.0851 44.2946 24.8739 44.2946 24.6149V21.2419L44.683 19.4634L46.0527 19.8927V24.6149C46.0527 24.8739 45.9709 25.0851 45.8074 25.2486C45.6438 25.3986 45.4326 25.4735 45.1737 25.4735Z" fill="#B4B4B4"/>
<path d="M51.6086 25.4735C51.0362 25.4735 50.532 25.3236 50.0959 25.0238C49.6598 24.7103 49.319 24.281 49.0737 23.7359C48.8284 23.1907 48.7058 22.5638 48.7058 21.8552V10.3664C48.7058 10.1075 48.7807 9.90304 48.9306 9.75312C49.0942 9.58958 49.3054 9.50781 49.5644 9.50781C49.8097 9.50781 50.0073 9.58958 50.1572 9.75312C50.3207 9.90304 50.4025 10.1075 50.4025 10.3664V21.8552C50.4025 22.4139 50.5115 22.8773 50.7296 23.2453C50.9613 23.5996 51.2543 23.7768 51.6086 23.7768H52.1197C52.3377 23.7768 52.5149 23.8585 52.6512 24.0221C52.7875 24.172 52.8556 24.3696 52.8556 24.6149C52.8556 24.8739 52.7534 25.0851 52.549 25.2486C52.3582 25.3986 52.1061 25.4735 51.7926 25.4735H51.6086Z" fill="#B4B4B4"/>
<path d="M59.2299 25.5757C58.1941 25.5757 57.2674 25.3304 56.4497 24.8398C55.632 24.3355 54.9846 23.6541 54.5076 22.7955C54.0306 21.9369 53.7921 20.9693 53.7921 19.8927C53.7921 18.8024 54.0375 17.828 54.5281 16.9694C55.0323 16.1108 55.7138 15.4362 56.5723 14.9456C57.4309 14.4413 58.3986 14.1892 59.4752 14.1892C60.5382 14.1892 61.4922 14.4413 62.3372 14.9456C63.1958 15.4362 63.8704 16.1108 64.361 16.9694C64.8652 17.828 65.1242 18.8024 65.1378 19.8927L64.4428 20.2402C64.4428 21.2487 64.2111 22.155 63.7477 22.9591C63.298 23.7631 62.6779 24.4037 61.8874 24.8807C61.1106 25.344 60.2248 25.5757 59.2299 25.5757ZM59.4752 24.0221C60.2384 24.0221 60.913 23.8449 61.499 23.4906C62.0987 23.1226 62.5688 22.6252 62.9096 21.9983C63.2639 21.3714 63.4411 20.6695 63.4411 19.8927C63.4411 19.1022 63.2639 18.4004 62.9096 17.7871C62.5688 17.1602 62.0987 16.6627 61.499 16.2948C60.913 15.9268 60.2384 15.7428 59.4752 15.7428C58.7256 15.7428 58.0442 15.9268 57.4309 16.2948C56.8313 16.6627 56.3543 17.1602 55.9999 17.7871C55.6456 18.4004 55.4684 19.1022 55.4684 19.8927C55.4684 20.6695 55.6456 21.3714 55.9999 21.9983C56.3543 22.6252 56.8313 23.1226 57.4309 23.4906C58.0442 23.8449 58.7256 24.0221 59.4752 24.0221ZM64.2588 25.4735C64.0135 25.4735 63.8022 25.3986 63.6251 25.2486C63.4615 25.0851 63.3797 24.8739 63.3797 24.6149V21.2419L63.7681 19.4634L65.1378 19.8927V24.6149C65.1378 24.8739 65.056 25.0851 64.8925 25.2486C64.729 25.3986 64.5177 25.4735 64.2588 25.4735Z" fill="#B4B4B4"/>
<path d="M69.365 25.4735C69.106 25.4735 68.8948 25.3986 68.7312 25.2486C68.5677 25.0851 68.4859 24.867 68.4859 24.5945V15.1704C68.4859 14.8979 68.5677 14.6866 68.7312 14.5367C68.8948 14.3732 69.106 14.2914 69.365 14.2914C69.6239 14.2914 69.8283 14.3732 69.9782 14.5367C70.1418 14.6866 70.2235 14.8979 70.2235 15.1704V24.5945C70.2235 24.867 70.1418 25.0851 69.9782 25.2486C69.8283 25.3986 69.6239 25.4735 69.365 25.4735ZM69.3445 12.2676C69.0174 12.2676 68.738 12.1517 68.5064 11.92C68.2747 11.6747 68.1588 11.3885 68.1588 11.0615C68.1588 10.7207 68.2747 10.4414 68.5064 10.2233C68.7517 10.0052 69.0311 9.89622 69.3445 9.89622C69.658 9.89622 69.9305 10.0052 70.1622 10.2233C70.4075 10.4414 70.5302 10.7207 70.5302 11.0615C70.5302 11.3885 70.4143 11.6747 70.1827 11.92C69.951 12.1517 69.6716 12.2676 69.3445 12.2676Z" fill="#B4B4B4"/>
<path d="M83.7355 25.4735C83.4765 25.4735 83.2653 25.3917 83.1018 25.2282C82.9382 25.0647 82.8565 24.8602 82.8565 24.6149V19.402C82.8565 18.5707 82.6997 17.8961 82.3863 17.3782C82.0864 16.8467 81.6708 16.4515 81.1393 16.1926C80.6078 15.92 80.0013 15.7837 79.3199 15.7837C78.6793 15.7837 78.1001 15.9132 77.5823 16.1721C77.078 16.4174 76.676 16.7581 76.3761 17.1942C76.0763 17.6167 75.9264 18.1073 75.9264 18.6661H74.7407C74.768 17.8075 74.9929 17.0443 75.4153 16.3765C75.8514 15.6951 76.4307 15.1568 77.153 14.7616C77.8753 14.3663 78.6793 14.1687 79.5652 14.1687C80.5192 14.1687 81.371 14.3732 82.1205 14.782C82.8837 15.1772 83.4834 15.7633 83.9195 16.5401C84.3692 17.3169 84.5941 18.2709 84.5941 19.402V24.6149C84.5941 24.8602 84.5123 25.0647 84.3488 25.2282C84.1852 25.3917 83.9808 25.4735 83.7355 25.4735ZM75.0678 25.4735C74.7952 25.4735 74.5772 25.3986 74.4136 25.2486C74.2637 25.0851 74.1888 24.8739 74.1888 24.6149V15.1704C74.1888 14.8979 74.2637 14.6866 74.4136 14.5367C74.5772 14.3732 74.7952 14.2914 75.0678 14.2914C75.3268 14.2914 75.5312 14.3732 75.6811 14.5367C75.8446 14.6866 75.9264 14.8979 75.9264 15.1704V24.6149C75.9264 24.8739 75.8446 25.0851 75.6811 25.2486C75.5312 25.3986 75.3268 25.4735 75.0678 25.4735Z" fill="#B4B4B4"/>
<path d="M93.1945 25.5757C92.077 25.5757 91.0889 25.3372 90.2303 24.8602C89.3717 24.3696 88.6971 23.695 88.2065 22.8364C87.7159 21.9778 87.4706 20.9966 87.4706 19.8927C87.4706 18.7751 87.7023 17.7939 88.1656 16.9489C88.629 16.0903 89.2627 15.4157 90.0668 14.9251C90.8845 14.4345 91.8249 14.1892 92.8879 14.1892C93.9236 14.1892 94.8231 14.4277 95.5863 14.9047C96.3631 15.368 96.956 16.0154 97.3648 16.8467C97.7873 17.6781 97.9985 18.6252 97.9985 19.6882C97.9985 19.9199 97.9236 20.1107 97.7737 20.2606C97.6238 20.3969 97.433 20.4651 97.2013 20.4651H88.6563V19.0545H97.3035L96.4245 19.6678C96.4381 18.9182 96.3018 18.2436 96.0156 17.644C95.7294 17.0443 95.3206 16.5741 94.789 16.2334C94.2575 15.8927 93.6238 15.7224 92.8879 15.7224C92.1111 15.7224 91.4296 15.8995 90.8436 16.2539C90.2712 16.6082 89.8283 17.1057 89.5148 17.7462C89.215 18.3731 89.0651 19.0886 89.0651 19.8927C89.0651 20.6967 89.2423 21.4122 89.5966 22.0391C89.951 22.6661 90.4348 23.1567 91.048 23.511C91.6749 23.8654 92.3904 24.0425 93.1945 24.0425C93.6579 24.0425 94.1281 23.9608 94.6051 23.7972C95.0957 23.6337 95.4841 23.4292 95.7703 23.1839C95.9338 23.0613 96.1178 23 96.3222 23C96.5403 22.9863 96.7175 23.0408 96.8537 23.1635C97.0582 23.3407 97.1604 23.5315 97.1604 23.7359C97.174 23.9403 97.0854 24.1175 96.8946 24.2674C96.4449 24.649 95.8725 24.9624 95.1775 25.2078C94.4824 25.4531 93.8214 25.5757 93.1945 25.5757Z" fill="#B4B4B4"/>
<path d="M25.5869 10.25C28.4485 10.25 30.7686 12.5701 30.7686 15.4316V24.3135C30.7686 27.175 28.4484 29.4951 25.5869 29.4951H16.7051C13.8435 29.4951 11.5234 27.175 11.5234 24.3135V15.4316C11.5234 12.5701 13.8435 10.25 16.7051 10.25H25.5869ZM21.1445 13.9062C17.8526 13.9062 15.1836 16.5752 15.1836 19.8672V19.9443C15.2247 23.1749 17.8367 25.7862 21.0674 25.8271H21.1445C22.7012 25.8271 24.1181 25.2302 25.1797 24.2529L26.4492 25.5215C26.6912 25.7632 27.1045 25.5921 27.1045 25.25V19.7764C27.0563 16.5521 24.4477 13.9473 21.2217 13.9062H21.1445ZM21.1445 15.5703C23.517 15.5705 25.4404 17.4946 25.4404 19.8672C25.4403 22.2396 23.5169 24.1629 21.1445 24.1631C18.772 24.1631 16.8478 22.2397 16.8477 19.8672C16.8477 17.4945 18.7719 15.5703 21.1445 15.5703ZM19.4824 18.7109C19.0973 18.711 18.7852 19.0231 18.7852 19.4082V20.3359C18.7852 20.721 19.0974 21.0332 19.4824 21.0332C19.8675 21.0332 20.1797 20.721 20.1797 20.3359V19.4082C20.1797 19.0231 19.8675 18.7109 19.4824 18.7109ZM22.8027 18.7109C22.4004 18.7109 22.0742 19.0372 22.0742 19.4395V20.3047C22.0742 20.707 22.4004 21.0332 22.8027 21.0332C23.205 21.0332 23.5312 20.707 23.5312 20.3047V19.4395C23.5312 19.0372 23.205 18.711 22.8027 18.7109Z" fill="#B4B4B4"/>
</g>
<defs>
<clipPath id="clip0_7010_359">
<rect width="86.4768" height="19.9849" fill="white" transform="translate(11.5234 9.50781)"/>
</clipPath>
</defs>
</svg>
