<svg width="110" height="40" viewBox="0 0 110 40" fill="none" xmlns="http://www.w3.org/2000/svg">
<g clip-path="url(#clip0_7010_330)">
<mask id="mask0_7010_330" style="mask-type:luminance" maskUnits="userSpaceOnUse" x="9" y="11" width="92" height="16">
<path d="M101 11.9998H9V26.9997H101V11.9998Z" fill="white"/>
</mask>
<g mask="url(#mask0_7010_330)">
<path d="M31.4548 18.1709C32.0123 18.166 32.5622 18.2934 33.0542 18.5415C33.5573 18.8032 33.9777 19.1869 34.2723 19.653L36.3059 18.5314C35.8956 17.7434 35.2319 17.0984 34.41 16.6889C33.5039 16.247 32.4952 16.0266 31.476 16.0481C30.375 16.0289 29.2865 16.2699 28.3089 16.749C27.4098 17.1944 26.659 17.8669 26.1401 18.6917C25.6098 19.5471 25.3386 20.5241 25.3563 21.5155C25.3394 22.51 25.6105 23.4899 26.1401 24.3494C26.6592 25.1809 27.4153 25.8576 28.3221 26.302C29.2966 26.7792 30.3812 27.0201 31.4785 27.003C32.4921 27.023 33.4944 26.799 34.3913 26.3521C35.2151 25.9338 35.8839 25.2874 36.308 24.4996L34.2743 23.378C33.9801 23.8444 33.5596 24.2281 33.0562 24.4896C32.4018 24.806 31.66 24.9239 30.9321 24.8271C30.2042 24.7304 29.5256 24.4236 28.9889 23.9488C28.6621 23.6265 28.4081 23.2447 28.2424 22.8266C28.0767 22.4085 28.0027 21.9629 28.025 21.5169C28.0027 21.0701 28.0777 20.6237 28.2453 20.2054C28.413 19.7871 28.6696 19.4058 28.9994 19.085C29.3224 18.7837 29.7068 18.5476 30.1292 18.391C30.5516 18.2343 31.0033 18.1605 31.4568 18.1738" fill="#B4B4B4"/>
<path d="M43.2751 18.1709C43.8326 18.166 44.3825 18.2934 44.8745 18.5415C45.3776 18.8033 45.798 19.1869 46.0926 19.653L48.1263 18.5314C47.7159 17.7434 47.0522 17.0984 46.2303 16.6889C45.3242 16.247 44.3155 16.0266 43.2963 16.0481C42.1954 16.0289 41.1068 16.2699 40.1292 16.749C39.2301 17.1944 38.4793 17.8669 37.9604 18.6917C37.4301 19.5471 37.1589 20.5241 37.1766 21.5155C37.1598 22.51 37.4308 23.4899 37.9604 24.3494C38.4795 25.1809 39.2356 25.8576 40.1424 26.302C41.1169 26.7792 42.2015 27.02 43.2988 27.003C44.3124 27.023 45.3147 26.799 46.2116 26.3521C47.0354 25.9338 47.7042 25.2874 48.1283 24.4996L46.0946 23.378C45.8003 23.8443 45.3798 24.228 44.8765 24.4896C44.2221 24.806 43.4803 24.9239 42.7524 24.8271C42.0245 24.7304 41.3459 24.4236 40.8092 23.9488C40.4824 23.6265 40.2284 23.2447 40.0627 22.8266C39.897 22.4085 39.823 21.9629 39.8453 21.5169C39.823 21.0701 39.898 20.6237 40.0657 20.2054C40.2333 19.7871 40.4899 19.4058 40.8198 19.085C41.1427 18.7837 41.5271 18.5476 41.9495 18.391C42.3719 18.2343 42.8236 18.1605 43.2771 18.1738" fill="#B4B4B4"/>
<path d="M57.7944 16.7384C56.8896 16.2692 55.8711 16.031 54.8393 16.0474C53.7896 16.0321 52.7535 16.2735 51.8316 16.7484C50.9567 17.2021 50.2338 17.8785 49.745 18.701C49.237 19.56 48.9776 20.5304 48.993 21.5144C48.9759 22.5076 49.2431 23.4867 49.7662 24.3483C50.2836 25.1846 51.0448 25.8625 51.9587 26.3009C52.876 26.7138 53.8713 26.9495 54.8862 26.9942C55.901 27.0389 56.9151 26.8917 57.8691 26.5613C58.617 26.2873 59.2798 25.8396 59.7963 25.2595L58.377 23.7174C57.9776 24.101 57.4985 24.4023 56.9698 24.6022C56.4411 24.8022 55.8744 24.8964 55.3053 24.879C54.4319 24.908 53.5725 24.6653 52.859 24.188C52.2096 23.7385 51.7723 23.0663 51.641 22.3155H60.5181C60.5464 21.995 60.5606 21.748 60.561 21.5745C60.5832 20.5666 60.3316 19.5702 59.8301 18.6805C59.361 17.8637 58.6556 17.1899 57.7965 16.7379M51.6198 20.6523C51.7161 19.9179 52.0974 19.2435 52.6896 18.7597C53.2894 18.281 54.0546 18.0279 54.8393 18.0487C55.6296 18.0248 56.4007 18.2821 57 18.7697C57.5807 19.2541 57.9505 19.9249 58.0381 20.6523H51.6198Z" fill="#B4B4B4"/>
<path d="M64.6675 11.9998H62.0195V26.8595H64.6675V11.9998Z" fill="#B4B4B4"/>
<path d="M79.8383 17.7304V16.1682H77.3164V26.8623H79.9644V21.6752C79.9 20.7811 80.2122 19.8992 80.833 19.2219C81.151 18.9294 81.53 18.7027 81.9458 18.5562C82.3615 18.4096 82.805 18.3465 83.248 18.3707C83.4543 18.3729 83.6599 18.3931 83.8623 18.4308V16.0466C81.9416 16.0466 80.5999 16.6074 79.8373 17.7289" fill="#B4B4B4"/>
<path d="M87.7691 16.1638H85.1211V26.8579H87.7691V16.1638Z" fill="#B4B4B4"/>
<path d="M100.226 18.6902C99.7146 17.8662 98.9699 17.1935 98.076 16.7476C97.1142 16.2868 96.0511 16.0466 94.9728 16.0466C93.8945 16.0466 92.8314 16.2868 91.8696 16.7476C90.9755 17.1932 90.2308 17.866 89.7194 18.6902C89.1955 19.5478 88.9282 20.5239 88.9462 21.5141C88.9291 22.5073 89.1963 23.4865 89.7194 24.3479C90.2282 25.1766 90.9733 25.8533 91.8696 26.3006C92.8314 26.7614 93.8945 27.0016 94.9728 27.0016C96.0511 27.0016 97.1142 26.7614 98.076 26.3006C98.9721 25.8531 99.7172 25.1764 100.226 24.3479C100.749 23.4864 101.016 22.5073 100.999 21.5141C101.017 20.524 100.75 19.5479 100.226 18.6902ZM97.3769 23.9355C97.0639 24.2389 96.6876 24.4774 96.2718 24.636C95.8561 24.7946 95.41 24.8698 94.9619 24.8567C94.5154 24.8704 94.0708 24.7955 93.6568 24.6368C93.2428 24.4781 92.8685 24.2392 92.5581 23.9355C92.2385 23.611 91.9905 23.2296 91.8286 22.8136C91.6666 22.3975 91.594 21.9551 91.6149 21.5122C91.594 21.0693 91.6666 20.6269 91.8286 20.2108C91.9905 19.7947 92.2385 19.4133 92.5581 19.0889C92.8685 18.7852 93.2428 18.5463 93.6568 18.3876C94.0708 18.229 94.5154 18.154 94.9619 18.1676C95.41 18.1547 95.8561 18.2299 96.2718 18.3885C96.6875 18.5471 97.0638 18.7856 97.3769 19.0889C97.6994 19.4119 97.9499 19.7928 98.1136 20.2091C98.2774 20.6254 98.351 21.0685 98.3302 21.5122C98.3511 21.9559 98.2775 22.399 98.1137 22.8153C97.95 23.2316 97.6994 23.6125 97.3769 23.9355Z" fill="#B4B4B4"/>
<path d="M22.1926 22.9831C21.7462 23.2752 21.2785 23.5372 20.793 23.767L22.1957 26.8583H25.0762L22.9613 22.4294C22.7142 22.6202 22.4569 22.8076 22.1921 22.9826" fill="#B4B4B4"/>
<path d="M15.6463 23.4971C17.8757 23.4722 20.0447 22.8086 21.8668 21.594C23.0271 20.8601 24.0223 19.9165 24.7953 18.8175C25.5683 17.7185 26.1038 16.4859 26.371 15.1905L23.7855 14.7752C23.4575 16.3728 22.5711 17.8199 21.2686 18.8841L18.384 12.8435H15.6725L9 26.8621H11.8387L13.1203 24.0178L11.875 22.7036H11.8775C13.0525 23.236 14.3408 23.507 15.6437 23.4956M14.7601 20.4028L17.0051 15.4437L18.9 19.5965L19.1795 20.2116C17.7448 20.9061 16.1154 21.1563 14.522 20.9269L14.7601 20.4028Z" fill="#B4B4B4"/>
<path d="M71.1196 16.0544H67.7044V18.1735H71.1196V18.1673C71.6462 18.2128 72.1459 18.4081 72.5526 18.7276C72.7963 18.9486 72.9861 19.2172 73.1087 19.5147C73.2313 19.8121 73.2837 20.1313 73.2622 20.45V20.6102H70.3368C68.7127 20.6102 67.523 20.9006 66.7678 21.4814C66.4007 21.7563 66.107 22.1088 65.9101 22.5105C65.7133 22.9122 65.6189 23.352 65.6345 23.7945C65.626 24.3823 65.807 24.9586 66.1535 25.4468C66.5206 25.9509 67.031 26.3466 67.6258 26.5883C68.3274 26.8746 69.0861 27.0146 69.8501 26.9989C70.5922 27.017 71.3304 26.8908 72.0189 26.6284C72.5835 26.4091 73.0665 26.0361 73.4065 25.5569V26.8587H75.9062V20.5916C75.9062 19.0695 75.4649 17.9313 74.5822 17.1769C73.6046 16.4252 72.3754 16.0277 71.1156 16.0559M73.2582 23.5156C73.0596 24.0349 72.6731 24.4711 72.1672 24.7472C71.6297 25.0392 71.0182 25.1876 70.3984 25.1764C69.837 25.2076 69.2799 25.0672 68.8096 24.7758C68.627 24.6544 68.4792 24.492 68.3794 24.3033C68.2796 24.1145 68.2309 23.9053 68.2376 23.6944C68.2376 22.7467 69.0002 22.2728 70.5255 22.2724H73.2582V23.5156Z" fill="#B4B4B4"/>
</g>
</g>
<defs>
<clipPath id="clip0_7010_330">
<rect width="92" height="15" fill="white" transform="translate(9 12)"/>
</clipPath>
</defs>
</svg>
